{
.appVersion = "1282";
DisplayStrings = (
"/colonsign"
);
classes = (
{
automatic = 1;
code = "A Aacute Abreve Abreveacute Abrevedotbelow Abrevegrave Abrevehookabove Abrevetilde Acircumflex Acircumflexacute Acircumflexdotbelow Acircumflexgrave Acircumflexhookabove Acircumflextilde Adblgrave Adieresis Adotbelow Agrave Ahookabove Ainvertedbreve Amacron Aogonek Aring Aringacute Atilde AE AEacute B C Cacute Ccaron Ccedilla Ccircumflex Cdotaccent D DZcaron Eth Dcaron Dcroat Dzcaron E Eacute Ebreve Ecaron Ecircumflex Ecircumflexacute Ecircumflexdotbelow Ecircumflexgrave Ecircumflexhookabove Ecircumflextilde Edblgrave Edieresis Edotaccent Edotbelow Egrave Ehookabove Einvertedbreve Emacron Eogonek Etilde F G Gbreve Gcaron Gcircumflex Gcommaaccent Gdotaccent H Hbar Hcircumflex I Iacute Ibreve Icircumflex Idblgrave Idieresis Idotaccent Idotbelow Igrave Ihookabove Iinvertedbreve Imacron Iogonek Itilde J Jcircumflex K Kcommaaccent L LJ Lacute Lcaron Lcommaaccent Ldot Lj Lslash M N NJ Nacute Ncaron Ncommaaccent Eng Nj Ntilde O Oacute Obreve Ocircumflex Ocircumflexacute Ocircumflexdotbelow Ocircumflexgrave Ocircumflexhookabove Ocircumflextilde Odblgrave Odieresis Odieresismacron Odotaccentmacron Odotbelow Ograve Ohookabove Ohorn Ohornacute Ohorndotbelow Ohorngrave Ohornhookabove Ohorntilde Ohungarumlaut Oinvertedbreve Omacron Oogonek Oslash Oslashacute Otilde Otildemacron OE P Thorn Q R Racute Rcaron Rcommaaccent Rdblgrave Rinvertedbreve S Sacute Scaron Scedilla Scircumflex Scommaaccent Germandbls Schwa T Tbar Tcaron Tcedilla Tcommaaccent U Uacute Ubreve Ucircumflex Udblgrave Udieresis Udotbelow Ugrave Uhookabove Uhorn Uhornacute Uhorndotbelow Uhorngrave Uhornhookabove Uhorntilde Uhungarumlaut Uinvertedbreve Umacron Uogonek Uring Utilde V W Wacute Wcircumflex Wdieresis Wgrave X Y Yacute Ycircumflex Ydieresis Ydotbelow Ygrave Yhookabove Ymacron Ytilde Z Zacute Zcaron Zdotaccent W.rvrn";
name = Uppercase;
}
);

glyphs = (
{
color = 1;
glyphname = .notdef;
lastChange = "2019-12-28 17:44:18 +0000";
layers = (
{
layerId = "EA94BB3F-1054-4F03-AAB6-69C3B81B3CC3";
paths = (
{
closed = 1;
nodes = (
"1136 -354 LINE",
"1136 1410 LINE",
"136 1410 LINE",
"136 -354 LINE"
);
},
{
closed = 1;
nodes = (
"248 1298 LINE",
"1024 1298 LINE",
"1024 -242 LINE",
"248 -242 LINE"
);
}
);
width = 1272;
},
{
layerId = "1A84AFAC-8532-492C-A52A-D2ACD869B7F8";
paths = (
{
closed = 1;
nodes = (
"1136 -354 LINE",
"1136 1410 LINE",
"136 1410 LINE",
"136 -354 LINE"
);
},
{
closed = 1;
nodes = (
"248 1298 LINE",
"1024 1298 LINE",
"1024 -242 LINE",
"248 -242 LINE"
);
}
);
width = 1272;
},
{
layerId = "16E03120-9D89-4B3A-B1E3-633A6E865927";
paths = (
{
closed = 1;
nodes = (
"1304 -369 LINE",
"1304 1425 LINE",
"174 1425 LINE",
"174 -369 LINE"
);
},
{
closed = 1;
nodes = (
"416 1283 LINE",
"1062 1283 LINE",
"1062 -227 LINE",
"416 -227 LINE"
);
}
);
width = 1478;
},
{
layerId = "5EAC5215-9D4A-4BA0-8B26-A551FA1A966A";
paths = (
{
closed = 1;
nodes = (
"1277 -369 LINE",
"1277 1425 LINE",
"147 1425 LINE",
"147 -369 LINE"
);
},
{
closed = 1;
nodes = (
"389 1283 LINE",
"1035 1283 LINE",
"1035 -227 LINE",
"389 -227 LINE"
);
}
);
width = 1424;
},
{
layerId = "B4536172-55B8-4884-A498-BDE07D5884DA";
paths = (
{
closed = 1;
nodes = (
"1220 -362 LINE",
"1220 1418 LINE",
"155 1418 LINE",
"155 -362 LINE"
);
},
{
closed = 1;
nodes = (
"332 1291 LINE",
"1043 1291 LINE",
"1043 -235 LINE",
"332 -235 LINE"
);
}
);
width = 1375;
},
{
layerId = "09CD4194-2486-478D-AB32-B0AA8D4EDA22";
paths = (
{
closed = 1;
nodes = (
"1174 -354 LINE",
"1174 1410 LINE",
"174 1410 LINE",
"174 -354 LINE"
);
},
{
closed = 1;
nodes = (
"286 1298 LINE",
"1062 1298 LINE",
"1062 -242 LINE",
"286 -242 LINE"
);
}
);
width = 1348;
},
{
background = {
paths = (
{
closed = 1;
nodes = (
"1219 -337 LINE",
"1219 1419 LINE",
"16 1419 LINE",
"16 -337 LINE"
);
},
{
closed = 1;
nodes = (
"306 1150 LINE",
"931 1150 LINE",
"931 -68 LINE",
"306 -68 LINE"
);
}
);
};
layerId = "338DAB22-2F62-42B0-AF6A-AC80FC784DAE";
paths = (
{
closed = 1;
nodes = (
"1219 -337 LINE",
"1219 1419 LINE",
"16 1419 LINE",
"16 -337 LINE"
);
},
{
closed = 1;
nodes = (
"306 1150 LINE",
"931 1150 LINE",
"931 -68 LINE",
"306 -68 LINE"
);
}
);
width = 1235;
},
{
background = {
paths = (
{
closed = 1;
nodes = (
"1132 -354 LINE",
"1132 1410 LINE",
"103 1410 LINE",
"103 -354 LINE"
);
},
{
closed = 1;
nodes = (
"218 1298 LINE",
"1018 1298 LINE",
"1018 -242 LINE",
"218 -242 LINE"
);
}
);
};
layerId = "B71E0DD6-B640-4F5E-B48D-BF5E04BC2E71";
paths = (
{
closed = 1;
nodes = (
"1132 -354 LINE",
"1132 1410 LINE",
"103 1410 LINE",
"103 -354 LINE"
);
},
{
closed = 1;
nodes = (
"218 1298 LINE",
"1018 1298 LINE",
"1018 -242 LINE",
"218 -242 LINE"
);
}
);
width = 1235;
},
{
layerId = "50B3BD20-6B7E-4A37-88B3-070541B8FD4C";
paths = (
{
closed = 1;
nodes = (
"1169 -347 LINE",
"1169 1414 LINE",
"66 1414 LINE",
"66 -347 LINE"
);
},
{
closed = 1;
nodes = (
"256 1234 LINE",
"981 1234 LINE",
"981 -167 LINE",
"256 -167 LINE"
);
}
);
width = 1235;
}
);
leftKerningGroup = .notdef;
note = .notdef;
rightKerningGroup = .notdef;
unicode = 007F;
},
{
color = 1;
glyphname = A;
lastChange = "2019-12-28 20:28:15 +0000";
layers = (
{
anchors = (
{
name = bottom;
position = "{651, 0}";
},
{
name = ogonek;
position = "{1080, 0}";
},
{
name = top;
position = "{675, 1430}";
}
);
background = {
paths = (
{
closed = 1;
nodes = (
"19 36 LINE",
"19 0 LINE",
"469 0 LINE",
"469 36 LINE",
"403 36 LINE SMOOTH",
"301 36 OFFCURVE",
"259 54 OFFCURVE",
"259 98 CURVE SMOOTH",
"259 112 OFFCURVE",
"269 150 OFFCURVE",
"285 196 CURVE SMOOTH",
"383 468 LINE",
"871 468 LINE",
"1035 36 LINE",
"823 36 LINE",
"823 0 LINE",
"1447 0 LINE",
"1447 36 LINE",
"1265 36 LINE",
"723 1452 LINE",
"697 1452 LINE",
"245 200 LINE SMOOTH",
"195 56 OFFCURVE",
"175 36 OFFCURVE",
"87 36 CURVE SMOOTH"
);
},
{
closed = 1;
nodes = (
"395 502 LINE",
"619 1138 LINE",
"859 502 LINE"
);
}
);
};
layerId = "EA94BB3F-1054-4F03-AAB6-69C3B81B3CC3";
paths = (
{
closed = 1;
nodes = (
"107 0 LINE",
"591 1196 LINE",
"563 1197 LINE",
"1041 0 LINE",
"1279 0 LINE",
"675 1486 LINE",
"73 0 LINE"
);
},
{
closed = 1;
nodes = (
"865 466 LINE",
"851 502 LINE",
"300 502 LINE",
"285 466 LINE"
);
}
);
width = 1352;
},
{
anchors = (
{
name = bottom;
position = "{700, -80}";
},
{
name = ogonek;
position = "{1106, 0}";
},
{
name = top;
position = "{724, 1350}";
}
);
layerId = "16E03120-9D89-4B3A-B1E3-633A6E865927";
paths = (
{
closed = 1;
nodes = (
"172 0 LINE",
"647 1072 LINE",
"604 1012 LINE",
"1056 0 LINE",
"1390 0 LINE",
"724 1500 LINE",
"63 0 LINE"
);
},
{
closed = 1;
nodes = (
"993 391 LINE",
"967 457 LINE",
"303 457 LINE",
"275 391 LINE"
);
}
);
width = 1452;
},
{
anchors = (
{
name = bottom;
position = "{648, 0}";
},
{
name = ogonek;
position = "{1200, 0}";
},
{
name = top;
position = "{671, 1430}";
}
);
background = {
paths = (
{
closed = 1;
nodes = (
"84 0 LINE",
"564 1186 LINE",
"641 1377 LINE",
"1190 0 LINE",
"1275 0 LINE",
"673 1482 LINE",
"73 0 LINE"
);
},
{
closed = 1;
nodes = (
"858 476 LINE",
"851 492 LINE",
"277 492 LINE",
"271 476 LINE"
);
}
);
};
layerId = "1A84AFAC-8532-492C-A52A-D2ACD869B7F8";
paths = (
{
closed = 1;
nodes = (
"94 0 LINE",
"657 1391 LINE",
"637 1386 LINE",
"1190 0 LINE",
"1275 0 LINE",
"673 1482 LINE",
"73 0 LINE"
);
},
{
closed = 1;
nodes = (
"1042 466 LINE",
"1031 492 LINE",
"277 492 LINE",
"267 466 LINE"
);
}
);
width = 1348;
},
{
anchors = (
{
name = bottom;
position = "{670, -80}";
},
{
name = ogonek;
position = "{1230, 0}";
},
{
name = top;
position = "{694, 1360}";
}
);
layerId = "5EAC5215-9D4A-4BA0-8B26-A551FA1A966A";
paths = (
{
closed = 1;
nodes = (
"144 0 LINE",
"636 1072 LINE",
"598 1043 LINE",
"1045 0 LINE",
"1360 0 LINE",
"720 1500 LINE",
"33 0 LINE"
);
},
{
closed = 1;
nodes = (
"969 321 LINE",
"943 347 LINE",
"279 347 LINE",
"251 321 LINE"
);
}
);
width = 1395;
},
{
anchors = (
{
name = bottom;
position = "{649, -40}";
},
{
name = ogonek;
position = "{1129, 0}";
},
{
name = top;
position = "{661, 1395}";
}
);
background = {
paths = (
{
closed = 1;
nodes = (
"109 36 LINE",
"109 0 LINE",
"559 0 LINE",
"559 36 LINE",
"493 36 LINE SMOOTH",
"391 36 OFFCURVE",
"349 54 OFFCURVE",
"349 98 CURVE SMOOTH",
"349 112 OFFCURVE",
"359 150 OFFCURVE",
"375 196 CURVE SMOOTH",
"473 468 LINE",
"961 468 LINE",
"1125 36 LINE",
"913 36 LINE",
"913 0 LINE",
"1537 0 LINE",
"1537 36 LINE",
"1355 36 LINE",
"813 1452 LINE",
"787 1452 LINE",
"335 200 LINE SMOOTH",
"285 56 OFFCURVE",
"265 36 OFFCURVE",
"177 36 CURVE SMOOTH"
);
},
{
closed = 1;
nodes = (
"485 502 LINE",
"709 1138 LINE",
"949 502 LINE"
);
}
);
};
layerId = "B4536172-55B8-4884-A498-BDE07D5884DA";
paths = (
{
closed = 1;
nodes = (
"105 0 LINE",
"636 1224 LINE",
"609 1204 LINE",
"1114 0 LINE",
"1317 0 LINE",
"689 1489 LINE",
"38 0 LINE"
);
},
{
closed = 1;
nodes = (
"993 398 LINE",
"978 416 LINE",
"267 416 LINE",
"251 398 LINE"
);
}
);
width = 1355;
},
{
anchors = (
{
name = bottom;
position = "{626, 0}";
},
{
name = ogonek;
position = "{1193, 0}";
},
{
name = top;
position = "{626, 1430}";
}
);
background = {
paths = (
{
closed = 1;
nodes = (
"62 0 LINE",
"542 1186 LINE",
"619 1377 LINE",
"1168 0 LINE",
"1253 0 LINE",
"651 1482 LINE",
"51 0 LINE"
);
},
{
closed = 1;
nodes = (
"836 476 LINE",
"829 492 LINE",
"255 492 LINE",
"249 476 LINE"
);
}
);
};
layerId = "09CD4194-2486-478D-AB32-B0AA8D4EDA22";
paths = (
{
closed = 1;
nodes = (
"65 0 LINE",
"634 1376 LINE",
"619 1365 LINE",
"1181 0 LINE",
"1273 0 LINE",
"656 1477 LINE",
"41 0 LINE"
);
},
{
closed = 1;
nodes = (
"1015 474 LINE",
"1011 484 LINE",
"253 484 LINE",
"249 474 LINE"
);
}
);
width = 1314;
},
{
anchors = (
{
name = bottom;
position = "{844, 50}";
},
{
name = ogonek;
position = "{1252, 0}";
},
{
name = top;
position = "{844, 1430}";
}
);
layerId = "338DAB22-2F62-42B0-AF6A-AC80FC784DAE";
paths = (
{
closed = 1;
nodes = (
"298 0 LINE",
"760 942 LINE",
"734 956 LINE",
"1180 0 LINE",
"1591 0 LINE",
"842 1479 LINE",
"99 0 LINE"
);
},
{
closed = 1;
nodes = (
"1163 313 LINE",
"1083 519 LINE",
"410 519 LINE",
"321 313 LINE"
);
}
);
width = 1690;
},
{
anchors = (
{
name = bottom;
position = "{739, -20}";
},
{
name = ogonek;
position = "{1329, 0}";
},
{
name = top;
position = "{739, 1430}";
}
);
background = {
anchors = (
{
name = bottom;
position = "{739, 0}";
},
{
name = ogonek;
position = "{1350, 10}";
},
{
name = top;
position = "{739, 1430}";
}
);
paths = (
{
closed = 1;
nodes = (
"190 0 LINE",
"776 1357 LINE",
"699 1350 LINE",
"1284 0 LINE",
"1373 0 LINE",
"738 1466 LINE",
"105 0 LINE"
);
},
{
closed = 1;
nodes = (
"1137 510 LINE",
"1106 587 LINE",
"373 587 LINE",
"342 510 LINE"
);
}
);
};
layerId = "B71E0DD6-B640-4F5E-B48D-BF5E04BC2E71";
paths = (
{
closed = 1;
nodes = (
"190 0 LINE",
"760 1320 LINE",
"699 1350 LINE",
"1284 0 LINE",
"1373 0 LINE",
"738 1466 LINE",
"105 0 LINE"
);
},
{
closed = 1;
nodes = (
"1137 510 LINE",
"1106 587 LINE",
"373 587 LINE",
"342 510 LINE"
);
}
);
width = 1478;
},
{
anchors = (
{
name = bottom;
position = "{785, 10}";
},
{
name = ogonek;
position = "{1297, 0}";
},
{
name = top;
position = "{785, 1430}";
}
);
layerId = "50B3BD20-6B7E-4A37-88B3-070541B8FD4C";
paths = (
{
closed = 1;
nodes = (
"237 0 LINE",
"761 1157 LINE",
"715 1181 LINE",
"1240 0 LINE",
"1468 0 LINE",
"784 1472 LINE",
"103 0 LINE"
);
},
{
closed = 1;
nodes = (
"1149 425 LINE",
"1097 558 LINE",
"390 558 LINE",
"334 425 LINE"
);
}
);
width = 1571;
}
);
leftKerningGroup = A;
note = A;
rightKerningGroup = A;
unicode = 0041;
},
{
color = 8;
glyphname = Adieresis;
lastChange = "2019-12-28 20:28:17 +0000";
layers = (
{
background = {
paths = (
{
closed = 1;
nodes = (
"-6 34 LINE",
"-6 0 LINE",
"414 0 LINE",
"414 34 LINE",
"352 34 LINE SMOOTH",
"258 34 OFFCURVE",
"218 50 OFFCURVE",
"218 92 CURVE SMOOTH",
"218 104 OFFCURVE",
"228 140 OFFCURVE",
"242 182 CURVE SMOOTH",
"334 436 LINE",
"790 436 LINE",
"942 34 LINE",
"744 34 LINE",
"744 0 LINE",
"1326 0 LINE",
"1326 34 LINE",
"1156 34 LINE",
"652 1354 LINE",
"626 1354 LINE",
"206 186 LINE SMOOTH",
"158 52 OFFCURVE",
"140 34 OFFCURVE",
"58 34 CURVE SMOOTH"
);
},
{
closed = 1;
nodes = (
"346 468 LINE",
"554 1062 LINE",
"778 468 LINE"
);
},
{
closed = 1;
nodes = (
"772 1698 OFFCURVE",
"728 1656 OFFCURVE",
"728 1602 CURVE SMOOTH",
"728 1550 OFFCURVE",
"772 1506 OFFCURVE",
"824 1506 CURVE SMOOTH",
"876 1506 OFFCURVE",
"920 1550 OFFCURVE",
"920 1602 CURVE SMOOTH",
"920 1654 OFFCURVE",
"876 1698 OFFCURVE",
"826 1698 CURVE SMOOTH"
);
},
{
closed = 1;
nodes = (
"396 1698 OFFCURVE",
"352 1656 OFFCURVE",
"352 1602 CURVE SMOOTH",
"352 1550 OFFCURVE",
"396 1506 OFFCURVE",
"448 1506 CURVE SMOOTH",
"500 1506 OFFCURVE",
"544 1550 OFFCURVE",
"544 1602 CURVE SMOOTH",
"544 1654 OFFCURVE",
"500 1698 OFFCURVE",
"450 1698 CURVE SMOOTH"
);
}
);
};
components = (
{
name = A;
},
{
name = dieresiscomb.case;
transform = "{1, 0, 0, 1, 386, 550}";
}
);
layerId = "EA94BB3F-1054-4F03-AAB6-69C3B81B3CC3";
width = 1352;
},
{
components = (
{
name = A;
},
{
name = dieresiscomb.case;
transform = "{1, 0, 0, 1, 493, 500}";
}
);
layerId = "1A84AFAC-8532-492C-A52A-D2ACD869B7F8";
width = 1348;
},
{
components = (
{
name = A;
},
{
name = dieresiscomb.case;
transform = "{1, 0, 0, 1, 325, 520}";
}
);
layerId = "16E03120-9D89-4B3A-B1E3-633A6E865927";
width = 1452;
},
{
components = (
{
name = A;
},
{
name = dieresiscomb.case;
transform = "{1, 0, 0, 1, 301, 530}";
}
);
layerId = "5EAC5215-9D4A-4BA0-8B26-A551FA1A966A";
width = 1395;
},
{
background = {
paths = (
{
closed = 1;
nodes = (
"-6 34 LINE",
"-6 0 LINE",
"414 0 LINE",
"414 34 LINE",
"352 34 LINE SMOOTH",
"258 34 OFFCURVE",
"218 50 OFFCURVE",
"218 92 CURVE SMOOTH",
"218 104 OFFCURVE",
"228 140 OFFCURVE",
"242 182 CURVE SMOOTH",
"334 436 LINE",
"790 436 LINE",
"942 34 LINE",
"744 34 LINE",
"744 0 LINE",
"1326 0 LINE",
"1326 34 LINE",
"1156 34 LINE",
"652 1354 LINE",
"626 1354 LINE",
"206 186 LINE SMOOTH",
"158 52 OFFCURVE",
"140 34 OFFCURVE",
"58 34 CURVE SMOOTH"
);
},
{
closed = 1;
nodes = (
"346 468 LINE",
"554 1062 LINE",
"778 468 LINE"
);
},
{
closed = 1;
nodes = (
"772 1698 OFFCURVE",
"728 1656 OFFCURVE",
"728 1602 CURVE SMOOTH",
"728 1550 OFFCURVE",
"772 1506 OFFCURVE",
"824 1506 CURVE SMOOTH",
"876 1506 OFFCURVE",
"920 1550 OFFCURVE",
"920 1602 CURVE SMOOTH",
"920 1654 OFFCURVE",
"876 1698 OFFCURVE",
"826 1698 CURVE SMOOTH"
);
},
{
closed = 1;
nodes = (
"396 1698 OFFCURVE",
"352 1656 OFFCURVE",
"352 1602 CURVE SMOOTH",
"352 1550 OFFCURVE",
"396 1506 OFFCURVE",
"448 1506 CURVE SMOOTH",
"500 1506 OFFCURVE",
"544 1550 OFFCURVE",
"544 1602 CURVE SMOOTH",
"544 1654 OFFCURVE",
"500 1698 OFFCURVE",
"450 1698 CURVE SMOOTH"
);
}
);
};
components = (
{
name = A;
},
{
name = dieresiscomb.case;
transform = "{1, 0, 0, 1, 348, 465}";
}
);
layerId = "B4536172-55B8-4884-A498-BDE07D5884DA";
width = 1355;
},
{
components = (
{
name = A;
},
{
name = dieresiscomb.case;
transform = "{1, 0, 0, 1, 401, 500}";
}
);
layerId = "09CD4194-2486-478D-AB32-B0AA8D4EDA22";
width = 1314;
},
{
background = {
components = (
{
name = A;
},
{
name = dieresiscomb;
transform = "{1, 0, 0, 1, 311, 510}";
}
);
};
components = (
{
name = A;
},
{
name = dieresiscomb.case;
transform = "{1, 0, 0, 1, 433, 520}";
}
);
layerId = "338DAB22-2F62-42B0-AF6A-AC80FC784DAE";
width = 1690;
},
{
background = {
components = (
{
name = A;
},
{
name = dieresiscomb;
transform = "{1, 0, 0, 1, 516, 441}";
}
);
};
components = (
{
name = A;
},
{
name = dieresiscomb.case;
transform = "{1, 0, 0, 1, 486, 540}";
}
);
layerId = "B71E0DD6-B640-4F5E-B48D-BF5E04BC2E71";
width = 1478;
},
{
components = (
{
name = A;
},
{
name = dieresiscomb.case;
transform = "{1, 0, 0, 1, 464, 531}";
}
);
layerId = "50B3BD20-6B7E-4A37-88B3-070541B8FD4C";
width = 1571;
}
);
leftKerningGroup = A;
note = Adieresis;
rightKerningGroup = A;
unicode = 00C4;
},
{
color = 8;
glyphname = Aring;
lastChange = "2019-12-28 20:28:17 +0000";
layers = (
{
background = {
paths = (
{
closed = 1;
nodes = (
"-6 34 LINE",
"-6 0 LINE",
"414 0 LINE",
"414 34 LINE",
"352 34 LINE SMOOTH",
"258 34 OFFCURVE",
"218 50 OFFCURVE",
"218 92 CURVE SMOOTH",
"218 104 OFFCURVE",
"228 140 OFFCURVE",
"242 182 CURVE SMOOTH",
"334 436 LINE",
"790 436 LINE",
"942 34 LINE",
"744 34 LINE",
"744 0 LINE",
"1326 0 LINE",
"1326 34 LINE",
"1156 34 LINE",
"652 1354 LINE",
"626 1354 LINE",
"206 186 LINE SMOOTH",
"158 52 OFFCURVE",
"140 34 OFFCURVE",
"58 34 CURVE SMOOTH"
);
},
{
closed = 1;
nodes = (
"346 468 LINE",
"554 1062 LINE",
"778 468 LINE"
);
},
{
closed = 1;
nodes = (
"538 1812 OFFCURVE",
"454 1730 OFFCURVE",
"454 1628 CURVE SMOOTH",
"454 1524 OFFCURVE",
"538 1440 OFFCURVE",
"640 1440 CURVE SMOOTH",
"742 1440 OFFCURVE",
"826 1524 OFFCURVE",
"826 1626 CURVE SMOOTH",
"826 1726 OFFCURVE",
"742 1812 OFFCURVE",
"642 1812 CURVE SMOOTH"
);
},
{
closed = 1;
nodes = (
"714 1762 OFFCURVE",
"776 1700 OFFCURVE",
"776 1626 CURVE SMOOTH",
"776 1552 OFFCURVE",
"714 1490 OFFCURVE",
"640 1490 CURVE SMOOTH",
"564 1490 OFFCURVE",
"504 1552 OFFCURVE",
"504 1628 CURVE SMOOTH",
"504 1702 OFFCURVE",
"566 1762 OFFCURVE",
"642 1762 CURVE SMOOTH"
);
}
);
};
components = (
{
name = A;
},
{
name = ringcomb.case;
transform = "{1, 0, 0, 1, 416, 550}";
}
);
layerId = "EA94BB3F-1054-4F03-AAB6-69C3B81B3CC3";
width = 1352;
},
{
components = (
{
name = A;
},
{
name = ringcomb.case;
transform = "{1, 0, 0, 1, 438, 500}";
}
);
layerId = "1A84AFAC-8532-492C-A52A-D2ACD869B7F8";
width = 1348;
},
{
components = (
{
name = A;
},
{
name = ringcomb.case;
transform = "{1, 0, 0, 1, 440, 520}";
}
);
layerId = "16E03120-9D89-4B3A-B1E3-633A6E865927";
width = 1452;
},
{
components = (
{
name = A;
},
{
name = ringcomb.case;
transform = "{1, 0, 0, 1, 466, 530}";
}
);
layerId = "5EAC5215-9D4A-4BA0-8B26-A551FA1A966A";
width = 1395;
},
{
background = {
paths = (
{
closed = 1;
nodes = (
"-6 34 LINE",
"-6 0 LINE",
"414 0 LINE",
"414 34 LINE",
"352 34 LINE SMOOTH",
"258 34 OFFCURVE",
"218 50 OFFCURVE",
"218 92 CURVE SMOOTH",
"218 104 OFFCURVE",
"228 140 OFFCURVE",
"242 182 CURVE SMOOTH",
"334 436 LINE",
"790 436 LINE",
"942 34 LINE",
"744 34 LINE",
"744 0 LINE",
"1326 0 LINE",
"1326 34 LINE",
"1156 34 LINE",
"652 1354 LINE",
"626 1354 LINE",
"206 186 LINE SMOOTH",
"158 52 OFFCURVE",
"140 34 OFFCURVE",
"58 34 CURVE SMOOTH"
);
},
{
closed = 1;
nodes = (
"346 468 LINE",
"554 1062 LINE",
"778 468 LINE"
);
},
{
closed = 1;
nodes = (
"538 1812 OFFCURVE",
"454 1730 OFFCURVE",
"454 1628 CURVE SMOOTH",
"454 1524 OFFCURVE",
"538 1440 OFFCURVE",
"640 1440 CURVE SMOOTH",
"742 1440 OFFCURVE",
"826 1524 OFFCURVE",
"826 1626 CURVE SMOOTH",
"826 1726 OFFCURVE",
"742 1812 OFFCURVE",
"642 1812 CURVE SMOOTH"
);
},
{
closed = 1;
nodes = (
"714 1762 OFFCURVE",
"776 1700 OFFCURVE",
"776 1626 CURVE SMOOTH",
"776 1552 OFFCURVE",
"714 1490 OFFCURVE",
"640 1490 CURVE SMOOTH",
"564 1490 OFFCURVE",
"504 1552 OFFCURVE",
"504 1628 CURVE SMOOTH",
"504 1702 OFFCURVE",
"566 1762 OFFCURVE",
"642 1762 CURVE SMOOTH"
);
}
);
};
components = (
{
name = A;
},
{
name = ringcomb.case;
transform = "{1, 0, 0, 1, 402, 465}";
}
);
layerId = "B4536172-55B8-4884-A498-BDE07D5884DA";
width = 1355;
},
{
components = (
{
name = A;
},
{
name = ringcomb.case;
transform = "{1, 0, 0, 1, 393, 500}";
}
);
layerId = "09CD4194-2486-478D-AB32-B0AA8D4EDA22";
width = 1314;
},
{
background = {
components = (
{
name = A;
},
{
name = ringcomb;
transform = "{1, 0, 0, 1, 435, 510}";
}
);
};
components = (
{
name = A;
},
{
name = ringcomb.case;
transform = "{1, 0, 0, 1, 557, 520}";
}
);
layerId = "338DAB22-2F62-42B0-AF6A-AC80FC784DAE";
width = 1690;
},
{
background = {
components = (
{
name = A;
},
{
name = ringcomb;
transform = "{1, 0, 0, 1, 519, 441}";
}
);
};
components = (
{
name = A;
},
{
name = ringcomb.case;
transform = "{1, 0, 0, 1, 494, 540}";
}
);
layerId = "B71E0DD6-B640-4F5E-B48D-BF5E04BC2E71";
width = 1478;
},
{
components = (
{
name = A;
},
{
name = ringcomb.case;
transform = "{1, 0, 0, 1, 522, 531}";
}
);
layerId = "50B3BD20-6B7E-4A37-88B3-070541B8FD4C";
width = 1571;
}
);
leftKerningGroup = A;
note = Aring;
rightKerningGroup = A;
unicode = 00C5;
},
{
color = 1;
glyphname = AE;
lastChange = "2019-12-28 20:28:14 +0000";
layers = (
{
anchors = (
{
name = bottom;
position = "{959, 0}";
},
{
name = top;
position = "{959, 1430}";
}
);
background = {
paths = (
{
closed = 1;
nodes = (
"41 0 LINE",
"145 2 OFFCURVE",
"223 4 OFFCURVE",
"277 4 CURVE SMOOTH",
"327 4 OFFCURVE",
"407 2 OFFCURVE",
"509 0 CURVE",
"509 34 LINE",
"447 34 LINE SMOOTH",
"361 34 OFFCURVE",
"323 48 OFFCURVE",
"323 80 CURVE SMOOTH",
"323 104 OFFCURVE",
"347 162 OFFCURVE",
"383 230 CURVE SMOOTH",
"493 436 LINE",
"941 436 LINE",
"941 34 LINE",
"723 34 LINE",
"723 0 LINE",
"1807 0 LINE",
"1807 394 LINE",
"1773 394 LINE",
"1773 374 LINE SMOOTH",
"1773 274 OFFCURVE",
"1749 184 OFFCURVE",
"1709 142 CURVE SMOOTH",
"1637 62 OFFCURVE",
"1531 34 OFFCURVE",
"1309 34 CURVE SMOOTH",
"1135 34 LINE",
"1135 660 LINE",
"1201 660 LINE SMOOTH",
"1335 660 OFFCURVE",
"1391 644 OFFCURVE",
"1417 598 CURVE",
"1433 572 OFFCURVE",
"1445 510 OFFCURVE",
"1445 456 CURVE SMOOTH",
"1445 432 LINE",
"1477 432 LINE",
"1477 936 LINE",
"1445 936 LINE",
"1445 912 LINE SMOOTH",
"1445 880 OFFCURVE",
"1435 814 OFFCURVE",
"1427 792 CURVE SMOOTH",
"1401 720 OFFCURVE",
"1341 694 OFFCURVE",
"1203 694 CURVE SMOOTH",
"1135 694 LINE",
"1135 1300 LINE",
"1315 1300 LINE SMOOTH",
"1471 1300 OFFCURVE",
"1569 1276 OFFCURVE",
"1621 1222 CURVE",
"1659 1186 OFFCURVE",
"1697 1088 OFFCURVE",
"1697 1026 CURVE SMOOTH",
"1697 1008 LINE",
"1731 1008 LINE",
"1699 1334 LINE",
"707 1334 LINE",
"707 1300 LINE",
"917 1300 LINE",
"335 210 LINE SMOOTH",
"315 172 OFFCURVE",
"279 118 OFFCURVE",
"255 90 CURVE SMOOTH",
"223 52 OFFCURVE",
"175 34 OFFCURVE",
"107 34 CURVE SMOOTH",
"41 34 LINE"
);
},
{
closed = 1;
nodes = (
"941 1276 LINE",
"941 470 LINE",
"509 470 LINE"
);
}
);
};
layerId = "EA94BB3F-1054-4F03-AAB6-69C3B81B3CC3";
paths = (
{
closed = 1;
nodes = (
"105 0 LINE",
"965 1430 LINE",
"929 1430 LINE",
"69 0 LINE"
);
},
{
closed = 1;
nodes = (
"1053 466 LINE",
"1053 502 LINE",
"379 502 LINE",
"379 466 LINE"
);
},
{
closed = 1;
nodes = (
"1779 0 LINE",
"1779 36 LINE",
"1042 36 LINE",
"1135 13 LINE",
"1135 723 LINE",
"1042 710 LINE",
"1779 710 LINE",
"1779 746 LINE",
"1042 746 LINE",
"1135 733 LINE",
"1135 1417 LINE",
"1042 1394 LINE",
"1779 1394 LINE",
"1779 1430 LINE",
"929 1430 LINE",
"929 0 LINE"
);
}
);
width = 1874;
},
{
anchors = (
{
name = bottom;
position = "{884, -20}";
},
{
name = top;
position = "{884, 1450}";
}
);
layerId = "1A84AFAC-8532-492C-A52A-D2ACD869B7F8";
paths = (
{
closed = 1;
nodes = (
"135 -10 LINE",
"983 1440 LINE",
"917 1440 LINE",
"69 -10 LINE"
);
},
{
closed = 1;
nodes = (
"1007 459 LINE",
"1007 486 LINE",
"365 486 LINE",
"365 459 LINE"
);
},
{
closed = 1;
nodes = (
"1584 -10 LINE",
"1584 17 LINE",
"1005 17 LINE",
"1034 0 LINE",
"1034 745 LINE",
"1006 715 LINE",
"1584 715 LINE",
"1584 742 LINE",
"1006 742 LINE",
"1034 722 LINE",
"1034 1440 LINE",
"1005 1413 LINE",
"1584 1413 LINE",
"1584 1440 LINE",
"974 1440 LINE",
"974 -10 LINE"
);
}
);
width = 1676;
},
{
anchors = (
{
name = bottom;
position = "{1031, 0}";
},
{
name = top;
position = "{1031, 1430}";
}
);
layerId = "16E03120-9D89-4B3A-B1E3-633A6E865927";
paths = (
{
closed = 1;
nodes = (
"215 -15 LINE",
"1093 1445 LINE",
"937 1445 LINE",
"59 -15 LINE"
);
},
{
closed = 1;
nodes = (
"1191 451 LINE",
"1191 517 LINE",
"437 517 LINE",
"437 451 LINE"
);
},
{
closed = 1;
nodes = (
"1917 -15 LINE",
"1917 51 LINE",
"980 51 LINE",
"1273 -1 LINE",
"1273 748 LINE",
"1092 695 LINE",
"1917 695 LINE",
"1917 761 LINE",
"1092 761 LINE",
"1273 708 LINE",
"1273 1431 LINE",
"980 1379 LINE",
"1917 1379 LINE",
"1917 1445 LINE",
"937 1445 LINE",
"937 -15 LINE"
);
}
);
width = 2010;
},
{
anchors = (
{
name = bottom;
position = "{976, 0}";
},
{
name = top;
position = "{976, 1440}";
}
);
background = {
paths = (
{
closed = 1;
nodes = (
"993 -15 LINE",
"1871 1445 LINE",
"1715 1445 LINE",
"837 -15 LINE"
);
},
{
closed = 1;
nodes = (
"1969 451 LINE",
"1969 517 LINE",
"1215 517 LINE",
"1215 451 LINE"
);
},
{
closed = 1;
nodes = (
"2695 -15 LINE",
"2695 51 LINE",
"1758 51 LINE",
"2051 -1 LINE",
"2051 748 LINE",
"1870 695 LINE",
"2695 695 LINE",
"2695 761 LINE",
"1870 761 LINE",
"2051 708 LINE",
"2051 1431 LINE",
"1758 1379 LINE",
"2695 1379 LINE",
"2695 1445 LINE",
"1715 1445 LINE",
"1715 -15 LINE"
);
}
);
};
layerId = "5EAC5215-9D4A-4BA0-8B26-A551FA1A966A";
paths = (
{
closed = 1;
nodes = (
"220 0 LINE",
"991 1445 LINE",
"802 1445 LINE",
"30 0 LINE"
);
},
{
closed = 1;
nodes = (
"1076 411 LINE",
"1050 437 LINE",
"426 437 LINE",
"398 411 LINE"
);
},
{
closed = 1;
nodes = (
"1841 0 LINE",
"1841 26 LINE",
"1056 26 LINE",
"1217 13 LINE",
"1217 752 LINE",
"1084 715 LINE",
"1841 715 LINE",
"1841 741 LINE",
"1056 741 LINE",
"1217 708 LINE",
"1217 1431 LINE",
"944 1419 LINE",
"1841 1419 LINE",
"1841 1445 LINE",
"977 1445 LINE",
"977 0 LINE"
);
}
);
width = 1908;
},
{
anchors = (
{
name = bottom;
position = "{898, -10}";
},
{
name = top;
position = "{898, 1445}";
}
);
background = {
paths = (
{
closed = 1;
nodes = (
"-44 0 LINE",
"60 2 OFFCURVE",
"138 4 OFFCURVE",
"192 4 CURVE SMOOTH",
"242 4 OFFCURVE",
"322 2 OFFCURVE",
"424 0 CURVE",
"424 34 LINE",
"362 34 LINE SMOOTH",
"276 34 OFFCURVE",
"238 48 OFFCURVE",
"238 80 CURVE SMOOTH",
"238 104 OFFCURVE",
"262 162 OFFCURVE",
"298 230 CURVE SMOOTH",
"408 436 LINE",
"856 436 LINE",
"856 34 LINE",
"638 34 LINE",
"638 0 LINE",
"1722 0 LINE",
"1722 394 LINE",
"1688 394 LINE",
"1688 374 LINE SMOOTH",
"1688 274 OFFCURVE",
"1664 184 OFFCURVE",
"1624 142 CURVE SMOOTH",
"1552 62 OFFCURVE",
"1446 34 OFFCURVE",
"1224 34 CURVE SMOOTH",
"1050 34 LINE",
"1050 660 LINE",
"1116 660 LINE SMOOTH",
"1250 660 OFFCURVE",
"1306 644 OFFCURVE",
"1332 598 CURVE",
"1348 572 OFFCURVE",
"1360 510 OFFCURVE",
"1360 456 CURVE SMOOTH",
"1360 432 LINE",
"1392 432 LINE",
"1392 936 LINE",
"1360 936 LINE",
"1360 912 LINE SMOOTH",
"1360 880 OFFCURVE",
"1350 814 OFFCURVE",
"1342 792 CURVE SMOOTH",
"1316 720 OFFCURVE",
"1256 694 OFFCURVE",
"1118 694 CURVE SMOOTH",
"1050 694 LINE",
"1050 1300 LINE",
"1230 1300 LINE SMOOTH",
"1386 1300 OFFCURVE",
"1484 1276 OFFCURVE",
"1536 1222 CURVE",
"1574 1186 OFFCURVE",
"1612 1088 OFFCURVE",
"1612 1026 CURVE SMOOTH",
"1612 1008 LINE",
"1646 1008 LINE",
"1614 1334 LINE",
"622 1334 LINE",
"622 1300 LINE",
"832 1300 LINE",
"250 210 LINE SMOOTH",
"230 172 OFFCURVE",
"194 118 OFFCURVE",
"170 90 CURVE SMOOTH",
"138 52 OFFCURVE",
"90 34 OFFCURVE",
"22 34 CURVE SMOOTH",
"-44 34 LINE"
);
},
{
closed = 1;
nodes = (
"856 1276 LINE",
"856 470 LINE",
"424 470 LINE"
);
}
);
};
layerId = "B4536172-55B8-4884-A498-BDE07D5884DA";
paths = (
{
closed = 1;
nodes = (
"146 -5 LINE",
"955 1443 LINE",
"843 1443 LINE",
"33 -5 LINE"
);
},
{
closed = 1;
nodes = (
"1010 435 LINE",
"997 462 LINE",
"379 462 LINE",
"365 435 LINE"
);
},
{
closed = 1;
nodes = (
"1681 -5 LINE",
"1681 22 LINE",
"999 22 LINE",
"1094 7 LINE",
"1094 749 LINE",
"1013 715 LINE",
"1681 715 LINE",
"1681 742 LINE",
"999 742 LINE",
"1094 715 LINE",
"1094 1436 LINE",
"943 1416 LINE",
"1681 1416 LINE",
"1681 1443 LINE",
"944 1443 LINE",
"944 -5 LINE"
);
}
);
width = 1751;
},
{
anchors = (
{
name = bottom;
position = "{820, -20}";
},
{
name = top;
position = "{820, 1450}";
}
);
layerId = "09CD4194-2486-478D-AB32-B0AA8D4EDA22";
paths = (
{
closed = 1;
nodes = (
"71 -10 LINE",
"919 1440 LINE",
"883 1440 LINE",
"35 -10 LINE"
);
},
{
closed = 1;
nodes = (
"943 459 LINE",
"943 486 LINE",
"331 486 LINE",
"331 459 LINE"
);
},
{
closed = 1;
nodes = (
"1520 -10 LINE",
"1520 17 LINE",
"941 17 LINE",
"970 0 LINE",
"970 745 LINE",
"942 715 LINE",
"1520 715 LINE",
"1520 742 LINE",
"942 742 LINE",
"970 722 LINE",
"970 1440 LINE",
"941 1413 LINE",
"1520 1413 LINE",
"1520 1440 LINE",
"910 1440 LINE",
"910 -10 LINE"
);
}
);
width = 1593;
},
{
anchors = (
{
name = bottom;
position = "{1202, 50}";
},
{
name = top;
position = "{1202, 1430}";
}
);
background = {
anchors = (
{
name = bottom;
position = "{1202, 0}";
},
{
name = top;
position = "{1202, 1430}";
}
);
paths = (
{
closed = 1;
nodes = (
"388 -18 LINE",
"1383 1437 LINE",
"1138 1437 LINE",
"142 -18 LINE"
);
},
{
closed = 1;
nodes = (
"1418 405 LINE",
"1418 598 LINE",
"605 598 LINE",
"605 405 LINE"
);
},
{
closed = 1;
nodes = (
"2165 -18 LINE",
"2165 175 LINE",
"1169 175 LINE",
"1167 44 LINE",
"1502 -7 LINE",
"1502 808 LINE",
"1289 755 LINE",
"1293 625 LINE",
"2165 625 LINE",
"2165 818 LINE",
"1294 818 LINE",
"1290 688 LINE",
"1502 633 LINE",
"1502 1424 LINE",
"1168 1375 LINE",
"1170 1244 LINE",
"2165 1244 LINE",
"2165 1437 LINE",
"1115 1437 LINE",
"1115 -18 LINE"
);
}
);
};
layerId = "338DAB22-2F62-42B0-AF6A-AC80FC784DAE";
paths = (
{
closed = 1;
nodes = (
"345 -18 LINE",
"1340 1437 LINE",
"1095 1437 LINE",
"99 -18 LINE"
);
},
{
closed = 1;
nodes = (
"1418 405 LINE",
"1418 598 LINE",
"605 598 LINE",
"605 405 LINE"
);
},
{
closed = 1;
nodes = (
"2165 -18 LINE",
"2165 175 LINE",
"1169 175 LINE",
"1502 -7 LINE",
"1502 808 LINE",
"1293 625 LINE",
"2165 625 LINE",
"2165 818 LINE",
"1294 818 LINE",
"1502 633 LINE",
"1502 1424 LINE",
"1170 1244 LINE",
"2165 1244 LINE",
"2165 1437 LINE",
"1115 1437 LINE",
"1115 -18 LINE"
);
}
);
width = 2282;
},
{
anchors = (
{
name = bottom;
position = "{921, -20}";
},
{
name = top;
position = "{921, 1430}";
}
);
background = {
anchors = (
{
name = bottom;
position = "{921, 0}";
},
{
name = top;
position = "{921, 1430}";
}
);
paths = (
{
closed = 1;
nodes = (
"195 0 LINE",
"1101 1430 LINE",
"1011 1430 LINE",
"105 0 LINE"
);
},
{
closed = 1;
nodes = (
"1117 444 LINE",
"1117 522 LINE",
"452 522 LINE",
"452 444 LINE"
);
},
{
closed = 1;
nodes = (
"1728 0 LINE",
"1728 78 LINE",
"1106 78 LINE",
"1148 12 LINE",
"1148 761 LINE",
"1120 689 LINE",
"1728 689 LINE",
"1728 767 LINE",
"1086 767 LINE",
"1148 701 LINE",
"1148 1423 LINE",
"1007 1352 LINE",
"1728 1352 LINE",
"1728 1430 LINE",
"1064 1430 LINE",
"1064 0 LINE"
);
}
);
};
layerId = "B71E0DD6-B640-4F5E-B48D-BF5E04BC2E71";
paths = (
{
closed = 1;
nodes = (
"195 0 LINE",
"1101 1430 LINE",
"1011 1430 LINE",
"105 0 LINE"
);
},
{
closed = 1;
nodes = (
"1117 444 LINE",
"1117 522 LINE",
"452 522 LINE",
"452 444 LINE"
);
},
{
closed = 1;
nodes = (
"1728 0 LINE",
"1728 78 LINE",
"1106 78 LINE",
"1148 12 LINE",
"1148 761 LINE",
"1120 689 LINE",
"1728 689 LINE",
"1728 767 LINE",
"1086 767 LINE",
"1148 701 LINE",
"1148 1423 LINE",
"1007 1352 LINE",
"1728 1352 LINE",
"1728 1430 LINE",
"1064 1430 LINE",
"1064 0 LINE"
);
}
);
width = 1841;
},
{
anchors = (
{
name = bottom;
position = "{1041, 10}";
},
{
name = top;
position = "{1041, 1430}";
}
);
layerId = "50B3BD20-6B7E-4A37-88B3-070541B8FD4C";
paths = (
{
closed = 1;
nodes = (
"259 -8 LINE",
"1203 1433 LINE",
"1047 1433 LINE",
"102 -8 LINE"
);
},
{
closed = 1;
nodes = (
"1246 427 LINE",
"1246 555 LINE",
"517 555 LINE",
"517 427 LINE"
);
},
{
closed = 1;
nodes = (
"1915 -8 LINE",
"1915 120 LINE",
"1133 120 LINE",
"1300 4 LINE",
"1300 781 LINE",
"1194 661 LINE",
"1915 661 LINE",
"1915 789 LINE",
"1175 789 LINE",
"1300 672 LINE",
"1300 1423 LINE",
"1077 1306 LINE",
"1915 1306 LINE",
"1915 1433 LINE",
"1085 1433 LINE",
"1085 -8 LINE"
);
}
);
width = 2030;
}
);
leftKerningGroup = A;
note = AE;
rightKerningGroup = E;
unicode = 00C6;
},
{
color = 1;
glyphname = B;
lastChange = "2019-12-28 20:28:16 +0000";
layers = (
{
anchors = (
{
name = bottom;
position = "{654, 0}";
},
{
name = top;
position = "{654, 1430}";
}
);
background = {
paths = (
{
closed = 1;
nodes = (
"87 1430 LINE",
"87 1394 LINE",
"295 1394 LINE",
"295 36 LINE",
"87 36 LINE",
"87 0 LINE",
"715 0 LINE SMOOTH",
"961 0 OFFCURVE",
"1009 10 OFFCURVE",
"1115 82 CURVE SMOOTH",
"1219 154 OFFCURVE",
"1279 266 OFFCURVE",
"1279 388 CURVE SMOOTH",
"1279 534 OFFCURVE",
"1201 650 OFFCURVE",
"1057 708 CURVE SMOOTH",
"1001 732 OFFCURVE",
"955 742 OFFCURVE",
"845 758 CURVE",
"955 766 OFFCURVE",
"1005 776 OFFCURVE",
"1063 804 CURVE SMOOTH",
"1177 858 OFFCURVE",
"1245 962 OFFCURVE",
"1245 1084 CURVE SMOOTH",
"1245 1250 OFFCURVE",
"1133 1366 OFFCURVE",
"937 1408 CURVE SMOOTH",
"847 1428 OFFCURVE",
"803 1430 OFFCURVE",
"601 1430 CURVE SMOOTH"
);
},
{
closed = 1;
nodes = (
"503 1394 LINE",
"547 1394 LINE SMOOTH",
"737 1394 OFFCURVE",
"813 1378 OFFCURVE",
"897 1320 CURVE SMOOTH",
"985 1262 OFFCURVE",
"1033 1172 OFFCURVE",
"1033 1062 CURVE SMOOTH",
"1033 964 OFFCURVE",
"999 886 OFFCURVE",
"937 838 CURVE SMOOTH",
"873 788 OFFCURVE",
"793 776 OFFCURVE",
"541 776 CURVE SMOOTH",
"503 776 LINE"
);
},
{
closed = 1;
nodes = (
"503 746 LINE",
"539 746 LINE SMOOTH",
"665 746 OFFCURVE",
"779 732 OFFCURVE",
"835 710 CURVE SMOOTH",
"979 652 OFFCURVE",
"1047 550 OFFCURVE",
"1047 396 CURVE SMOOTH",
"1047 272 OFFCURVE",
"995 156 OFFCURVE",
"911 98 CURVE SMOOTH",
"845 52 OFFCURVE",
"759 36 OFFCURVE",
"563 36 CURVE SMOOTH",
"503 36 LINE"
);
}
);
};
layerId = "EA94BB3F-1054-4F03-AAB6-69C3B81B3CC3";
paths = (
{
closed = 1;
nodes = (
"567 0 LINE SMOOTH",
"911 0 OFFCURVE",
"1133 80 OFFCURVE",
"1133 406 CURVE SMOOTH",
"1133 670 OFFCURVE",
"987 732 OFFCURVE",
"819 756 CURVE",
"819 760 LINE",
"957 798 OFFCURVE",
"1071 856 OFFCURVE",
"1071 1054 CURVE SMOOTH",
"1071 1312 OFFCURVE",
"877 1430 OFFCURVE",
"567 1430 CURVE SMOOTH",
"175 1430 LINE",
"175 0 LINE"
);
},
{
closed = 1;
nodes = (
"381 748 LINE",
"288 740 LINE",
"617 740 LINE SMOOTH",
"831 740 OFFCURVE",
"915 570 OFFCURVE",
"915 406 CURVE SMOOTH",
"915 208 OFFCURVE",
"791 36 OFFCURVE",
"567 36 CURVE SMOOTH",
"288 36 LINE",
"381 13 LINE"
);
},
{
closed = 1;
nodes = (
"381 1417 LINE",
"288 1394 LINE",
"567 1394 LINE SMOOTH",
"823 1394 OFFCURVE",
"853 1154 OFFCURVE",
"853 1034 CURVE SMOOTH",
"853 888 OFFCURVE",
"809 776 OFFCURVE",
"567 776 CURVE SMOOTH",
"288 776 LINE",
"381 767 LINE"
);
}
);
width = 1236;
},
{
anchors = (
{
name = bottom;
position = "{524, 0}";
},
{
name = top;
position = "{524, 1430}";
}
);
layerId = "1A84AFAC-8532-492C-A52A-D2ACD869B7F8";
paths = (
{
closed = 1;
nodes = (
"557 0 LINE SMOOTH",
"827 0 OFFCURVE",
"1003 151 OFFCURVE",
"1003 386 CURVE SMOOTH",
"1003 586 OFFCURVE",
"875 747 OFFCURVE",
"695 762 CURVE",
"696 750 LINE",
"843 782 OFFCURVE",
"961 899 OFFCURVE",
"961 1074 CURVE SMOOTH",
"961 1275 OFFCURVE",
"805 1430 OFFCURVE",
"577 1430 CURVE SMOOTH",
"175 1430 LINE",
"175 0 LINE"
);
},
{
closed = 1;
nodes = (
"235 755 LINE",
"190 747 LINE",
"587 747 LINE SMOOTH",
"789 747 OFFCURVE",
"935 630 OFFCURVE",
"935 397 CURVE SMOOTH",
"935 184 OFFCURVE",
"813 26 OFFCURVE",
"517 26 CURVE SMOOTH",
"216 26 LINE",
"235 10 LINE"
);
},
{
closed = 1;
nodes = (
"235 1420 LINE",
"206 1404 LINE",
"557 1404 LINE SMOOTH",
"817 1404 OFFCURVE",
"895 1238 OFFCURVE",
"895 1069 CURVE SMOOTH",
"895 837 OFFCURVE",
"748 768 OFFCURVE",
"577 768 CURVE SMOOTH",
"190 768 LINE",
"235 761 LINE"
);
}
);
width = 1108;
},
{
anchors = (
{
name = bottom;
position = "{711, 0}";
},
{
name = top;
position = "{711, 1430}";
}
);
layerId = "16E03120-9D89-4B3A-B1E3-633A6E865927";
paths = (
{
closed = 1;
nodes = (
"624 0 LINE SMOOTH",
"1057 0 OFFCURVE",
"1285 121 OFFCURVE",
"1285 415 CURVE SMOOTH",
"1285 618 OFFCURVE",
"1161 725 OFFCURVE",
"941 769 CURVE",
"941 767 LINE",
"1123 827 OFFCURVE",
"1213 912 OFFCURVE",
"1213 1059 CURVE SMOOTH",
"1213 1315 OFFCURVE",
"982 1444 OFFCURVE",
"624 1444 CURVE SMOOTH",
"167 1444 LINE",
"167 0 LINE"
);
},
{
closed = 1;
nodes = (
"503 757 LINE",
"391 732 LINE",
"674 732 LINE SMOOTH",
"834 732 OFFCURVE",
"917 583 OFFCURVE",
"917 415 CURVE SMOOTH",
"917 204 OFFCURVE",
"791 66 OFFCURVE",
"624 66 CURVE SMOOTH",
"210 66 LINE",
"503 14 LINE"
);
},
{
closed = 1;
nodes = (
"503 1420 LINE",
"210 1378 LINE",
"624 1378 LINE SMOOTH",
"817 1378 OFFCURVE",
"855 1166 OFFCURVE",
"855 1039 CURVE SMOOTH",
"855 862 OFFCURVE",
"790 798 OFFCURVE",
"624 798 CURVE SMOOTH",
"429 798 LINE",
"503 773 LINE"
);
}
);
width = 1373;
},
{
anchors = (
{
name = bottom;
position = "{712, 0}";
},
{
name = top;
position = "{712, 1440}";
}
);
layerId = "5EAC5215-9D4A-4BA0-8B26-A551FA1A966A";
paths = (
{
closed = 1;
nodes = (
"725 0 LINE SMOOTH",
"1098 0 OFFCURVE",
"1256 104 OFFCURVE",
"1256 395 CURVE SMOOTH",
"1256 691 OFFCURVE",
"1092 766 OFFCURVE",
"872 810 CURVE",
"876 802 LINE",
"1090 832 OFFCURVE",
"1194 927 OFFCURVE",
"1194 1104 CURVE SMOOTH",
"1194 1338 OFFCURVE",
"1013 1444 OFFCURVE",
"675 1444 CURVE SMOOTH",
"168 1444 LINE",
"168 0 LINE"
);
},
{
closed = 1;
nodes = (
"428 787 LINE",
"392 782 LINE",
"645 782 LINE SMOOTH",
"855 782 OFFCURVE",
"1006 689 OFFCURVE",
"1006 395 CURVE SMOOTH",
"1006 80 OFFCURVE",
"832 26 OFFCURVE",
"625 26 CURVE SMOOTH",
"211 26 LINE",
"428 14 LINE"
);
},
{
closed = 1;
nodes = (
"428 1430 LINE",
"211 1418 LINE",
"555 1418 LINE SMOOTH",
"848 1418 OFFCURVE",
"940 1288 OFFCURVE",
"940 1099 CURVE SMOOTH",
"940 884 OFFCURVE",
"821 808 OFFCURVE",
"665 808 CURVE SMOOTH",
"400 808 LINE",
"428 803 LINE"
);
}
);
width = 1338;
},
{
anchors = (
{
name = bottom;
position = "{664, 0}";
},
{
name = top;
position = "{664, 1435}";
}
);
background = {
paths = (
{
closed = 1;
nodes = (
"54 1430 LINE",
"54 1394 LINE",
"262 1394 LINE",
"262 36 LINE",
"54 36 LINE",
"54 0 LINE",
"682 0 LINE SMOOTH",
"928 0 OFFCURVE",
"976 10 OFFCURVE",
"1082 82 CURVE SMOOTH",
"1186 154 OFFCURVE",
"1246 266 OFFCURVE",
"1246 388 CURVE SMOOTH",
"1246 534 OFFCURVE",
"1168 650 OFFCURVE",
"1024 708 CURVE SMOOTH",
"968 732 OFFCURVE",
"922 742 OFFCURVE",
"812 758 CURVE",
"922 766 OFFCURVE",
"972 776 OFFCURVE",
"1030 804 CURVE SMOOTH",
"1144 858 OFFCURVE",
"1212 962 OFFCURVE",
"1212 1084 CURVE SMOOTH",
"1212 1250 OFFCURVE",
"1100 1366 OFFCURVE",
"904 1408 CURVE SMOOTH",
"814 1428 OFFCURVE",
"770 1430 OFFCURVE",
"568 1430 CURVE SMOOTH"
);
},
{
closed = 1;
nodes = (
"470 1394 LINE",
"514 1394 LINE SMOOTH",
"704 1394 OFFCURVE",
"780 1378 OFFCURVE",
"864 1320 CURVE SMOOTH",
"952 1262 OFFCURVE",
"1000 1172 OFFCURVE",
"1000 1062 CURVE SMOOTH",
"1000 964 OFFCURVE",
"966 886 OFFCURVE",
"904 838 CURVE SMOOTH",
"840 788 OFFCURVE",
"760 776 OFFCURVE",
"508 776 CURVE SMOOTH",
"470 776 LINE"
);
},
{
closed = 1;
nodes = (
"470 746 LINE",
"506 746 LINE SMOOTH",
"632 746 OFFCURVE",
"746 732 OFFCURVE",
"802 710 CURVE SMOOTH",
"946 652 OFFCURVE",
"1014 550 OFFCURVE",
"1014 396 CURVE SMOOTH",
"1014 272 OFFCURVE",
"962 156 OFFCURVE",
"878 98 CURVE SMOOTH",
"812 52 OFFCURVE",
"726 36 OFFCURVE",
"530 36 CURVE SMOOTH",
"470 36 LINE"
);
}
);
};
layerId = "B4536172-55B8-4884-A498-BDE07D5884DA";
paths = (
{
closed = 1;
nodes = (
"637 0 LINE SMOOTH",
"1004 0 OFFCURVE",
"1173 108 OFFCURVE",
"1173 391 CURVE SMOOTH",
"1173 660 OFFCURVE",
"1021 768 OFFCURVE",
"748 785 CURVE",
"750 780 LINE",
"992 794 OFFCURVE",
"1121 906 OFFCURVE",
"1121 1089 CURVE SMOOTH",
"1121 1309 OFFCURVE",
"940 1437 OFFCURVE",
"637 1437 CURVE SMOOTH",
"172 1437 LINE",
"172 0 LINE"
);
},
{
closed = 1;
nodes = (
"338 771 LINE",
"297 768 LINE",
"617 768 LINE SMOOTH",
"848 768 OFFCURVE",
"1002 697 OFFCURVE",
"1002 396 CURVE SMOOTH",
"1002 114 OFFCURVE",
"864 18 OFFCURVE",
"582 18 CURVE SMOOTH",
"220 18 LINE",
"338 12 LINE"
);
},
{
closed = 1;
nodes = (
"338 1425 LINE",
"215 1419 LINE",
"567 1419 LINE SMOOTH",
"864 1419 OFFCURVE",
"948 1268 OFFCURVE",
"948 1084 CURVE SMOOTH",
"948 850 OFFCURVE",
"811 786 OFFCURVE",
"622 786 CURVE SMOOTH",
"301 786 LINE",
"338 782 LINE"
);
}
);
width = 1259;
},
{
anchors = (
{
name = bottom;
position = "{615, 0}";
},
{
name = top;
position = "{615, 1430}";
}
);
layerId = "09CD4194-2486-478D-AB32-B0AA8D4EDA22";
paths = (
{
closed = 1;
nodes = (
"548 0 LINE SMOOTH",
"908 0 OFFCURVE",
"1088 111 OFFCURVE",
"1088 386 CURVE SMOOTH",
"1088 628 OFFCURVE",
"948 769 OFFCURVE",
"623 759 CURVE",
"623 758 LINE",
"892 755 OFFCURVE",
"1046 884 OFFCURVE",
"1046 1074 CURVE SMOOTH",
"1046 1280 OFFCURVE",
"866 1430 OFFCURVE",
"598 1430 CURVE SMOOTH",
"174 1430 LINE",
"174 0 LINE"
);
},
{
closed = 1;
nodes = (
"246 755 LINE",
"201 753 LINE",
"588 753 LINE SMOOTH",
"840 753 OFFCURVE",
"996 704 OFFCURVE",
"996 397 CURVE SMOOTH",
"996 148 OFFCURVE",
"894 10 OFFCURVE",
"538 10 CURVE SMOOTH",
"227 10 LINE",
"246 10 LINE"
);
},
{
closed = 1;
nodes = (
"246 1420 LINE",
"217 1420 LINE",
"578 1420 LINE SMOOTH",
"878 1420 OFFCURVE",
"954 1247 OFFCURVE",
"954 1069 CURVE SMOOTH",
"954 816 OFFCURVE",
"799 763 OFFCURVE",
"578 763 CURVE SMOOTH",
"201 763 LINE",
"246 761 LINE"
);
}
);
width = 1177;
},
{
anchors = (
{
name = bottom;
position = "{691, 50}";
},
{
name = top;
position = "{691, 1430}";
}
);
background = {
anchors = (
{
name = bottom;
position = "{691, 0}";
},
{
name = top;
position = "{691, 1430}";
}
);
paths = (
{
closed = 1;
nodes = (
"629 0 LINE SMOOTH",
"1116 0 OFFCURVE",
"1332 132 OFFCURVE",
"1332 442 CURVE SMOOTH",
"1332 651 OFFCURVE",
"1214 771 OFFCURVE",
"987 817 CURVE",
"967 701 LINE",
"1169 765 OFFCURVE",
"1257 859 OFFCURVE",
"1257 1019 CURVE SMOOTH",
"1257 1295 OFFCURVE",
"1042 1436 OFFCURVE",
"629 1436 CURVE SMOOTH",
"138 1436 LINE",
"138 0 LINE"
);
},
{
closed = 1;
nodes = (
"525 813 LINE",
"390 791 LINE",
"392 660 LINE",
"681 660 LINE SMOOTH",
"822 660 OFFCURVE",
"911 574 OFFCURVE",
"911 441 CURVE SMOOTH",
"911 293 OFFCURVE",
"797 193 OFFCURVE",
"629 193 CURVE SMOOTH",
"192 193 LINE",
"190 62 LINE",
"525 11 LINE"
);
},
{
closed = 1;
nodes = (
"525 1411 LINE",
"191 1375 LINE",
"193 1243 LINE",
"629 1243 LINE SMOOTH",
"818 1243 OFFCURVE",
"847 1092 OFFCURVE",
"847 1000 CURVE SMOOTH",
"847 888 OFFCURVE",
"797 854 OFFCURVE",
"629 854 CURVE SMOOTH",
"434 854 LINE",
"430 724 LINE",
"525 699 LINE"
);
}
);
};
layerId = "338DAB22-2F62-42B0-AF6A-AC80FC784DAE";
paths = (
{
closed = 1;
nodes = (
"629 0 LINE SMOOTH",
"1116 0 OFFCURVE",
"1332 132 OFFCURVE",
"1332 442 CURVE SMOOTH",
"1332 651 OFFCURVE",
"1214 771 OFFCURVE",
"987 817 CURVE",
"967 701 LINE",
"1169 765 OFFCURVE",
"1257 859 OFFCURVE",
"1257 1019 CURVE SMOOTH",
"1257 1295 OFFCURVE",
"1042 1436 OFFCURVE",
"629 1436 CURVE SMOOTH",
"138 1436 LINE",
"138 0 LINE"
);
},
{
closed = 1;
nodes = (
"525 813 LINE",
"392 660 LINE",
"681 660 LINE SMOOTH",
"822 660 OFFCURVE",
"911 574 OFFCURVE",
"911 441 CURVE SMOOTH",
"911 293 OFFCURVE",
"797 193 OFFCURVE",
"629 193 CURVE SMOOTH",
"192 193 LINE",
"525 11 LINE"
);
},
{
closed = 1;
nodes = (
"525 1411 LINE",
"193 1243 LINE",
"629 1243 LINE SMOOTH",
"818 1243 OFFCURVE",
"847 1092 OFFCURVE",
"847 1000 CURVE SMOOTH",
"847 888 OFFCURVE",
"797 854 OFFCURVE",
"629 854 CURVE SMOOTH",
"434 854 LINE",
"525 699 LINE"
);
}
);
width = 1437;
},
{
anchors = (
{
name = bottom;
position = "{583, -20}";
},
{
name = top;
position = "{583, 1430}";
}
);
background = {
anchors = (
{
name = bottom;
position = "{583, 0}";
},
{
name = top;
position = "{583, 1430}";
}
);
paths = (
{
closed = 1;
nodes = (
"557 0 LINE SMOOTH",
"871 0 OFFCURVE",
"1055 148 OFFCURVE",
"1055 401 CURVE SMOOTH",
"1055 609 OFFCURVE",
"921 767 OFFCURVE",
"717 784 CURVE",
"725 727 LINE",
"900 764 OFFCURVE",
"1007 890 OFFCURVE",
"1007 1058 CURVE SMOOTH",
"1007 1279 OFFCURVE",
"832 1430 OFFCURVE",
"575 1430 CURVE SMOOTH",
"143 1430 LINE",
"143 0 LINE"
);
},
{
closed = 1;
nodes = (
"226 777 LINE",
"182 720 LINE",
"592 720 LINE SMOOTH",
"818 720 OFFCURVE",
"963 601 OFFCURVE",
"963 410 CURVE SMOOTH",
"963 199 OFFCURVE",
"800 77 OFFCURVE",
"519 77 CURVE SMOOTH",
"189 77 LINE",
"226 13 LINE"
);
},
{
closed = 1;
nodes = (
"226 1418 LINE",
"150 1353 LINE",
"557 1353 LINE SMOOTH",
"783 1353 OFFCURVE",
"916 1244 OFFCURVE",
"916 1050 CURVE SMOOTH",
"916 864 OFFCURVE",
"777 793 OFFCURVE",
"575 793 CURVE SMOOTH",
"171 793 LINE",
"226 736 LINE"
);
}
);
};
layerId = "B71E0DD6-B640-4F5E-B48D-BF5E04BC2E71";
paths = (
{
closed = 1;
nodes = (
"557 0 LINE SMOOTH",
"871 0 OFFCURVE",
"1055 148 OFFCURVE",
"1055 401 CURVE SMOOTH",
"1055 609 OFFCURVE",
"921 767 OFFCURVE",
"717 784 CURVE",
"725 727 LINE",
"900 764 OFFCURVE",
"1007 890 OFFCURVE",
"1007 1058 CURVE SMOOTH",
"1007 1279 OFFCURVE",
"832 1430 OFFCURVE",
"575 1430 CURVE SMOOTH",
"143 1430 LINE",
"143 0 LINE"
);
},
{
closed = 1;
nodes = (
"226 777 LINE",
"182 720 LINE",
"592 720 LINE SMOOTH",
"818 720 OFFCURVE",
"963 601 OFFCURVE",
"963 410 CURVE SMOOTH",
"963 199 OFFCURVE",
"800 77 OFFCURVE",
"519 77 CURVE SMOOTH",
"189 77 LINE",
"226 13 LINE"
);
},
{
closed = 1;
nodes = (
"226 1418 LINE",
"150 1353 LINE",
"557 1353 LINE SMOOTH",
"783 1353 OFFCURVE",
"916 1244 OFFCURVE",
"916 1050 CURVE SMOOTH",
"916 864 OFFCURVE",
"777 793 OFFCURVE",
"575 793 CURVE SMOOTH",
"171 793 LINE",
"226 736 LINE"
);
}
);
width = 1165;
},
{
anchors = (
{
name = bottom;
position = "{629, 10}";
},
{
name = top;
position = "{629, 1430}";
}
);
layerId = "50B3BD20-6B7E-4A37-88B3-070541B8FD4C";
paths = (
{
closed = 1;
nodes = (
"588 0 LINE SMOOTH",
"976 0 OFFCURVE",
"1174 141 OFFCURVE",
"1174 419 CURVE SMOOTH",
"1174 627 OFFCURVE",
"1047 769 OFFCURVE",
"833 798 CURVE",
"829 716 LINE",
"1016 764 OFFCURVE",
"1114 877 OFFCURVE",
"1114 1041 CURVE SMOOTH",
"1114 1286 OFFCURVE",
"922 1433 OFFCURVE",
"598 1433 CURVE SMOOTH",
"141 1433 LINE",
"141 0 LINE"
);
},
{
closed = 1;
nodes = (
"355 792 LINE",
"272 694 LINE",
"630 694 LINE SMOOTH",
"820 694 OFFCURVE",
"941 589 OFFCURVE",
"941 423 CURVE SMOOTH",
"941 239 OFFCURVE",
"799 127 OFFCURVE",
"566 127 CURVE SMOOTH",
"190 127 LINE",
"355 12 LINE"
);
},
{
closed = 1;
nodes = (
"355 1415 LINE",
"168 1306 LINE",
"588 1306 LINE SMOOTH",
"798 1306 OFFCURVE",
"886 1179 OFFCURVE",
"886 1029 CURVE SMOOTH",
"886 874 OFFCURVE",
"786 819 OFFCURVE",
"598 819 CURVE SMOOTH",
"284 819 LINE",
"355 720 LINE"
);
}
);
width = 1282;
}
);
leftKerningGroup = H;
note = B;
rightKerningGroup = B;
unicode = 0042;
},
{
color = 1;
glyphname = C;
lastChange = "2019-12-28 23:14:18 +0000";
layers = (
{
anchors = (
{
name = bottom;
position = "{746, -10}";
},
{
name = top;
position = "{790, 1430}";
}
);
background = {
paths = (
{
closed = 1;
nodes = (
"970 -26 OFFCURVE",
"1146 42 OFFCURVE",
"1276 182 CURVE SMOOTH",
"1314 224 OFFCURVE",
"1348 268 OFFCURVE",
"1376 318 CURVE",
"1196 318 LINE",
"1116 122 OFFCURVE",
"972 4 OFFCURVE",
"790 4 CURVE SMOOTH",
"504 4 OFFCURVE",
"314 288 OFFCURVE",
"314 712 CURVE SMOOTH",
"314 1142 OFFCURVE",
"504 1430 OFFCURVE",
"790 1430 CURVE SMOOTH",
"970 1430 OFFCURVE",
"1114 1314 OFFCURVE",
"1192 1118 CURVE",
"1370 1118 LINE",
"1344 1166 OFFCURVE",
"1312 1208 OFFCURVE",
"1276 1244 CURVE SMOOTH",
"1152 1374 OFFCURVE",
"962 1460 OFFCURVE",
"790 1460 CURVE SMOOTH",
"616 1460 OFFCURVE",
"426 1370 OFFCURVE",
"304 1244 CURVE SMOOTH",
"182 1118 OFFCURVE",
"102 930 OFFCURVE",
"102 712 CURVE SMOOTH",
"102 508 OFFCURVE",
"172 320 OFFCURVE",
"304 182 CURVE SMOOTH",
"434 44 OFFCURVE",
"608 -26 OFFCURVE",
"790 -26 CURVE SMOOTH"
);
}
);
};
layerId = "EA94BB3F-1054-4F03-AAB6-69C3B81B3CC3";
paths = (
{
closed = 1;
nodes = (
"1040 -26 OFFCURVE",
"1256 106 OFFCURVE",
"1376 318 CURVE",
"1196 318 LINE",
"1115 120 OFFCURVE",
"971 4 OFFCURVE",
"789 4 CURVE SMOOTH",
"504 4 OFFCURVE",
"314 288 OFFCURVE",
"314 715 CURVE SMOOTH",
"314 1141 OFFCURVE",
"504 1430 OFFCURVE",
"790 1430 CURVE SMOOTH",
"970 1430 OFFCURVE",
"1114 1314 OFFCURVE",
"1192 1118 CURVE",
"1370 1118 LINE",
"1265 1312 OFFCURVE",
"1019 1460 OFFCURVE",
"788 1460 CURVE SMOOTH",
"407 1460 OFFCURVE",
"102 1117 OFFCURVE",
"102 718 CURVE SMOOTH",
"102 300 OFFCURVE",
"388 -26 OFFCURVE",
"795 -26 CURVE SMOOTH"
);
}
);
width = 1455;
},
{
anchors = (
{
name = bottom;
position = "{685, 0}";
},
{
name = top;
position = "{685, 1430}";
}
);
layerId = "1A84AFAC-8532-492C-A52A-D2ACD869B7F8";
paths = (
{
closed = 1;
nodes = (
"1002 -6 OFFCURVE",
"1158 98 OFFCURVE",
"1276 308 CURVE",
"1216 308 LINE",
"1099 90 OFFCURVE",
"933 24 OFFCURVE",
"767 24 CURVE SMOOTH",
"418 24 OFFCURVE",
"182 315 OFFCURVE",
"182 718 CURVE SMOOTH",
"182 1131 OFFCURVE",
"423 1410 OFFCURVE",
"760 1410 CURVE SMOOTH",
"925 1410 OFFCURVE",
"1111 1343 OFFCURVE",
"1218 1128 CURVE",
"1273 1128 LINE",
"1167 1350 OFFCURVE",
"985 1440 OFFCURVE",
"762 1440 CURVE SMOOTH",
"369 1440 OFFCURVE",
"106 1154 OFFCURVE",
"106 715 CURVE SMOOTH",
"106 254 OFFCURVE",
"379 -6 OFFCURVE",
"761 -6 CURVE SMOOTH"
);
}
);
width = 1357;
},
{
anchors = (
{
name = bottom;
position = "{800, -20}";
},
{
name = top;
position = "{844, 1430}";
}
);
background = {
components = (
{
name = O;
transform = "{1, 0, 0, 1, -5, 0}";
}
);
};
layerId = "16E03120-9D89-4B3A-B1E3-633A6E865927";
paths = (
{
closed = 1;
nodes = (
"1132 -41 OFFCURVE",
"1384 109 OFFCURVE",
"1504 343 CURVE",
"1194 343 LINE",
"1110 134 OFFCURVE",
"991 29 OFFCURVE",
"843 29 CURVE SMOOTH",
"602 29 OFFCURVE",
"433 308 OFFCURVE",
"433 715 CURVE SMOOTH",
"433 1125 OFFCURVE",
"605 1405 OFFCURVE",
"844 1405 CURVE SMOOTH",
"991 1405 OFFCURVE",
"1109 1300 OFFCURVE",
"1189 1093 CURVE",
"1498 1093 LINE",
"1409 1293 OFFCURVE",
"1136 1475 OFFCURVE",
"842 1475 CURVE SMOOTH",
"451 1475 OFFCURVE",
"91 1153 OFFCURVE",
"91 718 CURVE SMOOTH",
"91 300 OFFCURVE",
"422 -41 OFFCURVE",
"849 -41 CURVE SMOOTH"
);
}
);
width = 1575;
},
{
anchors = (
{
name = bottom;
position = "{802, -20}";
},
{
name = top;
position = "{826, 1440}";
}
);
layerId = "5EAC5215-9D4A-4BA0-8B26-A551FA1A966A";
paths = (
{
closed = 1;
nodes = (
"1114 -41 OFFCURVE",
"1366 109 OFFCURVE",
"1481 333 CURVE",
"1176 343 LINE",
"1092 134 OFFCURVE",
"973 29 OFFCURVE",
"825 29 CURVE SMOOTH",
"584 29 OFFCURVE",
"415 309 OFFCURVE",
"415 715 CURVE SMOOTH",
"415 1126 OFFCURVE",
"587 1405 OFFCURVE",
"826 1405 CURVE SMOOTH",
"973 1405 OFFCURVE",
"1091 1300 OFFCURVE",
"1171 1093 CURVE",
"1474 1103 LINE",
"1388 1293 OFFCURVE",
"1113 1475 OFFCURVE",
"824 1475 CURVE SMOOTH",
"428 1475 OFFCURVE",
"73 1155 OFFCURVE",
"73 718 CURVE SMOOTH",
"73 302 OFFCURVE",
"404 -41 OFFCURVE",
"831 -41 CURVE SMOOTH"
);
}
);
width = 1528;
},
{
anchors = (
{
name = bottom;
position = "{776, -10}";
},
{
name = top;
position = "{778, 1435}";
}
);
background = {
paths = (
{
closed = 1;
nodes = (
"945 -26 OFFCURVE",
"1121 42 OFFCURVE",
"1251 182 CURVE SMOOTH",
"1289 224 OFFCURVE",
"1323 268 OFFCURVE",
"1351 318 CURVE",
"1171 318 LINE",
"1091 122 OFFCURVE",
"947 4 OFFCURVE",
"765 4 CURVE SMOOTH",
"479 4 OFFCURVE",
"289 288 OFFCURVE",
"289 712 CURVE SMOOTH",
"289 1142 OFFCURVE",
"479 1430 OFFCURVE",
"765 1430 CURVE SMOOTH",
"945 1430 OFFCURVE",
"1089 1314 OFFCURVE",
"1167 1118 CURVE",
"1345 1118 LINE",
"1319 1166 OFFCURVE",
"1287 1208 OFFCURVE",
"1251 1244 CURVE SMOOTH",
"1127 1374 OFFCURVE",
"937 1460 OFFCURVE",
"765 1460 CURVE SMOOTH",
"591 1460 OFFCURVE",
"401 1370 OFFCURVE",
"279 1244 CURVE SMOOTH",
"157 1118 OFFCURVE",
"77 930 OFFCURVE",
"77 712 CURVE SMOOTH",
"77 508 OFFCURVE",
"147 320 OFFCURVE",
"279 182 CURVE SMOOTH",
"409 44 OFFCURVE",
"583 -26 OFFCURVE",
"765 -26 CURVE SMOOTH"
);
}
);
};
layerId = "B4536172-55B8-4884-A498-BDE07D5884DA";
paths = (
{
closed = 1;
nodes = (
"1080 -24 OFFCURVE",
"1284 104 OFFCURVE",
"1421 321 CURVE",
"1238 326 LINE",
"1118 112 OFFCURVE",
"975 17 OFFCURVE",
"818 17 CURVE SMOOTH",
"523 17 OFFCURVE",
"294 312 OFFCURVE",
"294 717 CURVE SMOOTH",
"294 1129 OFFCURVE",
"527 1418 OFFCURVE",
"815 1418 CURVE SMOOTH",
"971 1418 OFFCURVE",
"1123 1322 OFFCURVE",
"1232 1111 CURVE",
"1411 1116 LINE",
"1300 1322 OFFCURVE",
"1071 1458 OFFCURVE",
"815 1458 CURVE SMOOTH",
"421 1458 OFFCURVE",
"77 1155 OFFCURVE",
"77 717 CURVE SMOOTH",
"77 278 OFFCURVE",
"414 -24 OFFCURVE",
"818 -24 CURVE SMOOTH"
);
}
);
width = 1468;
},
{
anchors = (
{
name = bottom;
position = "{749, 0}";
},
{
name = top;
position = "{729, 1430}";
}
);
background = {
components = (
{
name = O;
transform = "{1, 0, 0, 1, 22, 0}";
}
);
};
layerId = "09CD4194-2486-478D-AB32-B0AA8D4EDA22";
paths = (
{
closed = 1;
nodes = (
"1046 -6 OFFCURVE",
"1202 98 OFFCURVE",
"1360 308 CURVE",
"1300 308 LINE",
"1143 90 OFFCURVE",
"977 4 OFFCURVE",
"811 4 CURVE SMOOTH",
"462 4 OFFCURVE",
"172 315 OFFCURVE",
"172 718 CURVE SMOOTH",
"172 1131 OFFCURVE",
"467 1430 OFFCURVE",
"804 1430 CURVE SMOOTH",
"969 1430 OFFCURVE",
"1155 1343 OFFCURVE",
"1292 1128 CURVE",
"1347 1128 LINE",
"1211 1350 OFFCURVE",
"1029 1440 OFFCURVE",
"806 1440 CURVE SMOOTH",
"413 1440 OFFCURVE",
"80 1154 OFFCURVE",
"80 715 CURVE SMOOTH",
"80 254 OFFCURVE",
"423 -6 OFFCURVE",
"805 -6 CURVE SMOOTH"
);
}
);
width = 1408;
},
{
anchors = (
{
name = bottom;
position = "{824, 50}";
},
{
name = top;
position = "{874, 1430}";
}
);
background = {
anchors = (
{
name = bottom;
position = "{824, 0}";
},
{
name = top;
position = "{824, 1430}";
}
);
paths = (
{
closed = 1;
nodes = (
"1220 -45 OFFCURVE",
"1499 134 OFFCURVE",
"1631 443 CURVE",
"1240 443 LINE",
"1169 254 OFFCURVE",
"1046 154 OFFCURVE",
"882 154 CURVE SMOOTH",
"637 154 OFFCURVE",
"479 370 OFFCURVE",
"479 709 CURVE SMOOTH",
"479 1049 OFFCURVE",
"638 1269 OFFCURVE",
"882 1269 CURVE SMOOTH",
"1047 1269 OFFCURVE",
"1169 1169 OFFCURVE",
"1235 981 CURVE",
"1612 981 LINE",
"1533 1261 OFFCURVE",
"1208 1467 OFFCURVE",
"880 1467 CURVE SMOOTH",
"444 1467 OFFCURVE",
"87 1129 OFFCURVE",
"87 712 CURVE SMOOTH",
"87 293 OFFCURVE",
"444 -45 OFFCURVE",
"887 -45 CURVE SMOOTH"
);
}
);
};
layerId = "338DAB22-2F62-42B0-AF6A-AC80FC784DAE";
paths = (
{
closed = 1;
nodes = (
"1220 -45 OFFCURVE",
"1499 134 OFFCURVE",
"1621 443 CURVE",
"1240 443 LINE",
"1169 254 OFFCURVE",
"1046 154 OFFCURVE",
"882 154 CURVE SMOOTH",
"637 154 OFFCURVE",
"479 370 OFFCURVE",
"479 709 CURVE SMOOTH",
"479 1049 OFFCURVE",
"638 1269 OFFCURVE",
"882 1269 CURVE SMOOTH",
"1047 1269 OFFCURVE",
"1169 1169 OFFCURVE",
"1235 981 CURVE",
"1602 981 LINE",
"1533 1261 OFFCURVE",
"1208 1467 OFFCURVE",
"880 1467 CURVE SMOOTH",
"444 1467 OFFCURVE",
"107 1129 OFFCURVE",
"107 712 CURVE SMOOTH",
"107 293 OFFCURVE",
"444 -45 OFFCURVE",
"887 -45 CURVE SMOOTH"
);
}
);
width = 1722;
},
{
anchors = (
{
name = bottom;
position = "{731, -20}";
},
{
name = top;
position = "{781, 1430}";
}
);
background = {
anchors = (
{
name = bottom;
position = "{731, 0}";
},
{
name = top;
position = "{731, 1430}";
}
);
paths = (
{
closed = 1;
nodes = (
"1048 -10 OFFCURVE",
"1219 101 OFFCURVE",
"1356 349 CURVE",
"1262 349 LINE",
"1167 169 OFFCURVE",
"1003 69 OFFCURVE",
"798 69 CURVE SMOOTH",
"451 69 OFFCURVE",
"212 333 OFFCURVE",
"212 717 CURVE SMOOTH",
"212 1102 OFFCURVE",
"448 1364 OFFCURVE",
"792 1364 CURVE SMOOTH",
"1003 1364 OFFCURVE",
"1180 1260 OFFCURVE",
"1263 1087 CURVE",
"1349 1087 LINE",
"1240 1323 OFFCURVE",
"1051 1443 OFFCURVE",
"794 1443 CURVE SMOOTH",
"392 1443 OFFCURVE",
"114 1145 OFFCURVE",
"114 716 CURVE SMOOTH",
"114 279 OFFCURVE",
"384 -10 OFFCURVE",
"794 -10 CURVE SMOOTH"
);
}
);
};
layerId = "B71E0DD6-B640-4F5E-B48D-BF5E04BC2E71";
paths = (
{
closed = 1;
nodes = (
"1048 -10 OFFCURVE",
"1219 101 OFFCURVE",
"1356 349 CURVE",
"1262 349 LINE",
"1167 169 OFFCURVE",
"1003 69 OFFCURVE",
"798 69 CURVE SMOOTH",
"451 69 OFFCURVE",
"212 333 OFFCURVE",
"212 717 CURVE SMOOTH",
"212 1102 OFFCURVE",
"448 1364 OFFCURVE",
"792 1364 CURVE SMOOTH",
"1003 1364 OFFCURVE",
"1187 1260 OFFCURVE",
"1265 1087 CURVE",
"1356 1087 LINE",
"1249 1324 OFFCURVE",
"1051 1443 OFFCURVE",
"794 1443 CURVE SMOOTH",
"392 1443 OFFCURVE",
"114 1145 OFFCURVE",
"114 716 CURVE SMOOTH",
"114 279 OFFCURVE",
"384 -10 OFFCURVE",
"794 -10 CURVE SMOOTH"
);
}
);
width = 1462;
},
{
anchors = (
{
name = bottom;
position = "{771, 10}";
},
{
name = top;
position = "{821, 1430}";
}
);
layerId = "50B3BD20-6B7E-4A37-88B3-070541B8FD4C";
paths = (
{
closed = 1;
nodes = (
"1122 -25 OFFCURVE",
"1339 115 OFFCURVE",
"1470 389 CURVE",
"1252 389 LINE",
"1168 206 OFFCURVE",
"1021 106 OFFCURVE",
"834 106 CURVE SMOOTH",
"531 106 OFFCURVE",
"327 349 OFFCURVE",
"327 714 CURVE SMOOTH",
"327 1079 OFFCURVE",
"530 1323 OFFCURVE",
"831 1323 CURVE SMOOTH",
"1022 1323 OFFCURVE",
"1175 1221 OFFCURVE",
"1251 1041 CURVE",
"1458 1041 LINE",
"1366 1296 OFFCURVE",
"1118 1453 OFFCURVE",
"831 1453 CURVE SMOOTH",
"414 1453 OFFCURVE",
"111 1138 OFFCURVE",
"111 714 CURVE SMOOTH",
"111 285 OFFCURVE",
"410 -25 OFFCURVE",
"834 -25 CURVE SMOOTH"
);
}
);
width = 1574;
}
);
leftKerningGroup = O;
note = C;
rightKerningGroup = C;
unicode = 0043;
},
{
color = 8;
glyphname = Ccedilla;
lastChange = "2019-12-28 20:28:17 +0000";
layers = (
{
background = {
paths = (
{
closed = 1;
nodes = (
"1170 22 LINE",
"1166 110 OFFCURVE",
"1164 188 OFFCURVE",
"1164 224 CURVE SMOOTH",
"1164 294 OFFCURVE",
"1166 364 OFFCURVE",
"1170 476 CURVE",
"1138 476 LINE",
"1136 372 OFFCURVE",
"1120 308 OFFCURVE",
"1084 242 CURVE SMOOTH",
"1002 96 OFFCURVE",
"852 6 OFFCURVE",
"690 6 CURVE SMOOTH",
"432 6 OFFCURVE",
"296 224 OFFCURVE",
"296 640 CURVE SMOOTH",
"296 844 OFFCURVE",
"332 1034 OFFCURVE",
"394 1148 CURVE SMOOTH",
"458 1266 OFFCURVE",
"558 1326 OFFCURVE",
"694 1326 CURVE SMOOTH",
"834 1326 OFFCURVE",
"954 1264 OFFCURVE",
"1048 1146 CURVE SMOOTH",
"1108 1066 OFFCURVE",
"1130 1006 OFFCURVE",
"1138 896 CURVE",
"1170 896 LINE",
"1170 926 LINE",
"1164 1152 LINE",
"1164 1188 OFFCURVE",
"1166 1224 OFFCURVE",
"1170 1300 CURVE",
"1138 1300 LINE",
"1130 1244 OFFCURVE",
"1112 1220 OFFCURVE",
"1076 1220 CURVE SMOOTH",
"1054 1220 OFFCURVE",
"1040 1228 OFFCURVE",
"980 1266 CURVE SMOOTH",
"886 1328 OFFCURVE",
"800 1354 OFFCURVE",
"692 1354 CURVE SMOOTH",
"524 1354 OFFCURVE",
"360 1272 OFFCURVE",
"238 1124 CURVE SMOOTH",
"136 1002 OFFCURVE",
"74 820 OFFCURVE",
"74 642 CURVE SMOOTH",
"74 280 OFFCURVE",
"332 -8 OFFCURVE",
"670 -22 CURVE",
"560 -216 LINE",
"576 -230 LINE",
"612 -208 OFFCURVE",
"622 -204 OFFCURVE",
"648 -204 CURVE SMOOTH",
"706 -204 OFFCURVE",
"746 -240 OFFCURVE",
"746 -290 CURVE SMOOTH",
"746 -348 OFFCURVE",
"698 -392 OFFCURVE",
"632 -392 CURVE SMOOTH",
"584 -392 OFFCURVE",
"526 -380 OFFCURVE",
"488 -360 CURVE",
"476 -388 LINE",
"536 -416 OFFCURVE",
"600 -432 OFFCURVE",
"662 -432 CURVE SMOOTH",
"784 -432 OFFCURVE",
"876 -372 OFFCURVE",
"876 -290 CURVE SMOOTH",
"876 -218 OFFCURVE",
"812 -168 OFFCURVE",
"720 -168 CURVE SMOOTH",
"682 -168 OFFCURVE",
"654 -174 OFFCURVE",
"610 -192 CURVE",
"708 -22 LINE",
"826 -16 OFFCURVE",
"892 8 OFFCURVE",
"978 72 CURVE SMOOTH",
"1028 108 OFFCURVE",
"1042 116 OFFCURVE",
"1068 116 CURVE SMOOTH",
"1104 116 OFFCURVE",
"1134 78 OFFCURVE",
"1138 22 CURVE"
);
}
);
};
components = (
{
name = C;
},
{
name = cedillacomb.case;
transform = "{1, 0, 0, 1, 484, -10}";
}
);
layerId = "EA94BB3F-1054-4F03-AAB6-69C3B81B3CC3";
width = 1455;
},
{
components = (
{
name = C;
transform = "{1, 0, 0, 1.014, 0, 0}";
},
{
name = cedillacomb.case;
transform = "{1, 0, 0, 1, 515, 0}";
}
);
layerId = "1A84AFAC-8532-492C-A52A-D2ACD869B7F8";
width = 1357;
},
{
components = (
{
name = C;
},
{
name = cedillacomb.case;
transform = "{1, 0, 0, 1, 502, -20}";
}
);
layerId = "16E03120-9D89-4B3A-B1E3-633A6E865927";
width = 1575;
},
{
components = (
{
name = C;
},
{
name = cedillacomb.case;
transform = "{1, 0, 0, 1, 524, -20}";
}
);
layerId = "5EAC5215-9D4A-4BA0-8B26-A551FA1A966A";
width = 1528;
},
{
background = {
paths = (
{
closed = 1;
nodes = (
"1170 22 LINE",
"1166 110 OFFCURVE",
"1164 188 OFFCURVE",
"1164 224 CURVE SMOOTH",
"1164 294 OFFCURVE",
"1166 364 OFFCURVE",
"1170 476 CURVE",
"1138 476 LINE",
"1136 372 OFFCURVE",
"1120 308 OFFCURVE",
"1084 242 CURVE SMOOTH",
"1002 96 OFFCURVE",
"852 6 OFFCURVE",
"690 6 CURVE SMOOTH",
"432 6 OFFCURVE",
"296 224 OFFCURVE",
"296 640 CURVE SMOOTH",
"296 844 OFFCURVE",
"332 1034 OFFCURVE",
"394 1148 CURVE SMOOTH",
"458 1266 OFFCURVE",
"558 1326 OFFCURVE",
"694 1326 CURVE SMOOTH",
"834 1326 OFFCURVE",
"954 1264 OFFCURVE",
"1048 1146 CURVE SMOOTH",
"1108 1066 OFFCURVE",
"1130 1006 OFFCURVE",
"1138 896 CURVE",
"1170 896 LINE",
"1170 926 LINE",
"1164 1152 LINE",
"1164 1188 OFFCURVE",
"1166 1224 OFFCURVE",
"1170 1300 CURVE",
"1138 1300 LINE",
"1130 1244 OFFCURVE",
"1112 1220 OFFCURVE",
"1076 1220 CURVE SMOOTH",
"1054 1220 OFFCURVE",
"1040 1228 OFFCURVE",
"980 1266 CURVE SMOOTH",
"886 1328 OFFCURVE",
"800 1354 OFFCURVE",
"692 1354 CURVE SMOOTH",
"524 1354 OFFCURVE",
"360 1272 OFFCURVE",
"238 1124 CURVE SMOOTH",
"136 1002 OFFCURVE",
"74 820 OFFCURVE",
"74 642 CURVE SMOOTH",
"74 280 OFFCURVE",
"332 -8 OFFCURVE",
"670 -22 CURVE",
"560 -216 LINE",
"576 -230 LINE",
"612 -208 OFFCURVE",
"622 -204 OFFCURVE",
"648 -204 CURVE SMOOTH",
"706 -204 OFFCURVE",
"746 -240 OFFCURVE",
"746 -290 CURVE SMOOTH",
"746 -348 OFFCURVE",
"698 -392 OFFCURVE",
"632 -392 CURVE SMOOTH",
"584 -392 OFFCURVE",
"526 -380 OFFCURVE",
"488 -360 CURVE",
"476 -388 LINE",
"536 -416 OFFCURVE",
"600 -432 OFFCURVE",
"662 -432 CURVE SMOOTH",
"784 -432 OFFCURVE",
"876 -372 OFFCURVE",
"876 -290 CURVE SMOOTH",
"876 -218 OFFCURVE",
"812 -168 OFFCURVE",
"720 -168 CURVE SMOOTH",
"682 -168 OFFCURVE",
"654 -174 OFFCURVE",
"610 -192 CURVE",
"708 -22 LINE",
"826 -16 OFFCURVE",
"892 8 OFFCURVE",
"978 72 CURVE SMOOTH",
"1028 108 OFFCURVE",
"1042 116 OFFCURVE",
"1068 116 CURVE SMOOTH",
"1104 116 OFFCURVE",
"1134 78 OFFCURVE",
"1138 22 CURVE"
);
}
);
};
components = (
{
name = C;
transform = "{1, 0, 0, 1.007, 0, 0}";
},
{
name = cedillacomb.case;
transform = "{1, 0, 0, 1, 542, -10}";
}
);
layerId = "B4536172-55B8-4884-A498-BDE07D5884DA";
width = 1468;
},
{
components = (
{
name = C;
transform = "{1, 0, 0, 1.014, 0, 0}";
},
{
name = cedillacomb.case;
transform = "{1, 0, 0, 1, 579, 0}";
}
);
layerId = "09CD4194-2486-478D-AB32-B0AA8D4EDA22";
width = 1408;
},
{
background = {
components = (
{
name = C;
},
{
name = cedillacomb;
transform = "{1, 0, 0, 1, 538, -8}";
}
);
};
components = (
{
name = C;
},
{
name = cedillacomb.case;
transform = "{1, 0, 0, 1, 517, 30}";
}
);
layerId = "338DAB22-2F62-42B0-AF6A-AC80FC784DAE";
width = 1722;
},
{
background = {
components = (
{
name = C;
transform = "{1, 0, 0, 1.014, 0, 0}";
},
{
name = cedillacomb;
transform = "{1, 0, 0, 1, 578, 0}";
}
);
};
components = (
{
name = C;
transform = "{1, 0, 0, 1.014, 0, 0}";
},
{
name = cedillacomb.case;
transform = "{1, 0, 0, 1, 553, -40}";
}
);
layerId = "B71E0DD6-B640-4F5E-B48D-BF5E04BC2E71";
width = 1462;
},
{
components = (
{
name = C;
transform = "{1, 0, 0, 1.00798, 0, 0}";
},
{
name = cedillacomb.case;
transform = "{1, 0, 0, 1, 538, -10}";
}
);
layerId = "50B3BD20-6B7E-4A37-88B3-070541B8FD4C";
width = 1574;
}
);
leftKerningGroup = O;
note = Ccedilla;
rightKerningGroup = C;
unicode = 00C7;
},
{
color = 1;
glyphname = D;
lastChange = "2019-12-28 20:28:16 +0000";
layers = (
{
anchors = (
{
name = bottom;
position = "{776, 0}";
},
{
name = center;
position = "{290, 715}";
},
{
name = top;
position = "{776, 1430}";
}
);
background = {
paths = (
{
closed = 1;
nodes = (
"559 0 LINE SMOOTH",
"897 0 OFFCURVE",
"1039 54 OFFCURVE",
"1145 134 CURVE SMOOTH",
"1311 260 OFFCURVE",
"1395 459 OFFCURVE",
"1395 713 CURVE SMOOTH",
"1395 843 OFFCURVE",
"1373 956 OFFCURVE",
"1331 1054 CURVE SMOOTH",
"1247 1250 OFFCURVE",
"1089 1361 OFFCURVE",
"927 1400 CURVE SMOOTH",
"843 1420 OFFCURVE",
"727 1430 OFFCURVE",
"497 1430 CURVE SMOOTH",
"175 1430 LINE",
"175 0 LINE"
);
},
{
closed = 1;
nodes = (
"389 1417 LINE",
"296 1394 LINE",
"503 1394 LINE SMOOTH",
"1026 1394 OFFCURVE",
"1159 1124 OFFCURVE",
"1159 719 CURVE SMOOTH",
"1159 252 OFFCURVE",
"982 36 OFFCURVE",
"503 36 CURVE SMOOTH",
"296 36 LINE",
"389 13 LINE"
);
}
);
};
layerId = "EA94BB3F-1054-4F03-AAB6-69C3B81B3CC3";
paths = (
{
closed = 1;
nodes = (
"559 0 LINE SMOOTH",
"839 0 OFFCURVE",
"1013 34 OFFCURVE",
"1145 134 CURVE SMOOTH",
"1311 260 OFFCURVE",
"1395 459 OFFCURVE",
"1395 712 CURVE SMOOTH",
"1395 935 OFFCURVE",
"1330 1134 OFFCURVE",
"1175 1272 CURVE SMOOTH",
"997 1430 OFFCURVE",
"779 1430 OFFCURVE",
"497 1430 CURVE SMOOTH",
"175 1430 LINE",
"175 0 LINE"
);
},
{
closed = 1;
nodes = (
"389 1417 LINE",
"296 1394 LINE",
"503 1394 LINE SMOOTH",
"1026 1394 OFFCURVE",
"1159 1124 OFFCURVE",
"1159 719 CURVE SMOOTH",
"1159 252 OFFCURVE",
"982 36 OFFCURVE",
"503 36 CURVE SMOOTH",
"296 36 LINE",
"389 13 LINE"
);
}
);
width = 1500;
},
{
anchors = (
{
name = bottom;
position = "{666, 0}";
},
{
name = center;
position = "{216, 715}";
},
{
name = top;
position = "{666, 1430}";
}
);
layerId = "1A84AFAC-8532-492C-A52A-D2ACD869B7F8";
paths = (
{
closed = 1;
nodes = (
"499 0 LINE SMOOTH",
"690 0 OFFCURVE",
"841 27 OFFCURVE",
"957 95 CURVE SMOOTH",
"1128 194 OFFCURVE",
"1220 381 OFFCURVE",
"1220 715 CURVE SMOOTH",
"1220 991 OFFCURVE",
"1158 1174 OFFCURVE",
"1019 1286 CURVE SMOOTH",
"890 1390 OFFCURVE",
"696 1430 OFFCURVE",
"437 1430 CURVE SMOOTH",
"175 1430 LINE",
"175 0 LINE"
);
},
{
closed = 1;
nodes = (
"245 1415 LINE",
"221 1404 LINE",
"529 1404 LINE SMOOTH",
"971 1404 OFFCURVE",
"1155 1180 OFFCURVE",
"1155 719 CURVE SMOOTH",
"1155 250 OFFCURVE",
"964 26 OFFCURVE",
"519 26 CURVE SMOOTH",
"221 26 LINE",
"245 15 LINE"
);
}
);
width = 1332;
},
{
anchors = (
{
name = bottom;
position = "{834, 0}";
},
{
name = center;
position = "{348, 715}";
},
{
name = top;
position = "{834, 1430}";
}
);
layerId = "16E03120-9D89-4B3A-B1E3-633A6E865927";
paths = (
{
closed = 1;
nodes = (
"617 0 LINE SMOOTH",
"886 0 OFFCURVE",
"1061 0 OFFCURVE",
"1242 137 CURVE SMOOTH",
"1385 245 OFFCURVE",
"1518 440 OFFCURVE",
"1518 722 CURVE SMOOTH",
"1518 954 OFFCURVE",
"1422 1153 OFFCURVE",
"1276 1283 CURVE SMOOTH",
"1083 1454 OFFCURVE",
"871 1445 OFFCURVE",
"555 1445 CURVE SMOOTH",
"168 1445 LINE",
"168 0 LINE"
);
},
{
closed = 1;
nodes = (
"512 1441 LINE",
"219 1379 LINE",
"561 1379 LINE SMOOTH",
"981 1379 OFFCURVE",
"1152 1205 OFFCURVE",
"1152 729 CURVE SMOOTH",
"1152 256 OFFCURVE",
"983 66 OFFCURVE",
"561 66 CURVE SMOOTH",
"219 66 LINE",
"512 4 LINE"
);
}
);
width = 1610;
},
{
anchors = (
{
name = bottom;
position = "{796, 0}";
},
{
name = center;
position = "{310, 715}";
},
{
name = top;
position = "{796, 1440}";
}
);
layerId = "5EAC5215-9D4A-4BA0-8B26-A551FA1A966A";
paths = (
{
closed = 1;
nodes = (
"579 -15 LINE SMOOTH",
"861 -15 OFFCURVE",
"1077 52 OFFCURVE",
"1220 181 CURVE SMOOTH",
"1351 300 OFFCURVE",
"1420 472 OFFCURVE",
"1420 692 CURVE SMOOTH",
"1420 911 OFFCURVE",
"1351 1090 OFFCURVE",
"1223 1215 CURVE SMOOTH",
"1070 1364 OFFCURVE",
"831 1445 OFFCURVE",
"517 1445 CURVE SMOOTH",
"170 1445 LINE",
"170 -15 LINE"
);
},
{
closed = 1;
nodes = (
"430 1441 LINE",
"221 1419 LINE",
"523 1419 LINE SMOOTH",
"903 1419 OFFCURVE",
"1114 1152 OFFCURVE",
"1114 699 CURVE SMOOTH",
"1114 247 OFFCURVE",
"903 11 OFFCURVE",
"523 11 CURVE SMOOTH",
"221 11 LINE",
"430 -11 LINE"
);
}
);
width = 1496;
},
{
anchors = (
{
name = bottom;
position = "{739, 0}";
},
{
name = center;
position = "{265, 715}";
},
{
name = top;
position = "{739, 1435}";
}
);
background = {
paths = (
{
closed = 1;
nodes = (
"534 0 LINE SMOOTH",
"872 0 OFFCURVE",
"1014 54 OFFCURVE",
"1120 134 CURVE SMOOTH",
"1286 260 OFFCURVE",
"1370 459 OFFCURVE",
"1370 713 CURVE SMOOTH",
"1370 843 OFFCURVE",
"1348 956 OFFCURVE",
"1306 1054 CURVE SMOOTH",
"1222 1250 OFFCURVE",
"1064 1361 OFFCURVE",
"902 1400 CURVE SMOOTH",
"818 1420 OFFCURVE",
"702 1430 OFFCURVE",
"472 1430 CURVE SMOOTH",
"150 1430 LINE",
"150 0 LINE"
);
},
{
closed = 1;
nodes = (
"364 1417 LINE",
"271 1394 LINE",
"478 1394 LINE SMOOTH",
"1001 1394 OFFCURVE",
"1134 1124 OFFCURVE",
"1134 719 CURVE SMOOTH",
"1134 252 OFFCURVE",
"957 36 OFFCURVE",
"478 36 CURVE SMOOTH",
"271 36 LINE",
"364 13 LINE"
);
}
);
};
layerId = "B4536172-55B8-4884-A498-BDE07D5884DA";
paths = (
{
closed = 1;
nodes = (
"547 -8 LINE SMOOTH",
"798 -8 OFFCURVE",
"992 45 OFFCURVE",
"1124 153 CURVE SMOOTH",
"1269 268 OFFCURVE",
"1343 449 OFFCURVE",
"1343 704 CURVE SMOOTH",
"1343 952 OFFCURVE",
"1273 1133 OFFCURVE",
"1134 1252 CURVE SMOOTH",
"992 1376 OFFCURVE",
"773 1438 OFFCURVE",
"485 1438 CURVE SMOOTH",
"172 1438 LINE",
"172 -8 LINE"
);
},
{
closed = 1;
nodes = (
"345 1433 LINE",
"229 1420 LINE",
"508 1420 LINE SMOOTH",
"930 1420 OFFCURVE",
"1142 1176 OFFCURVE",
"1142 709 CURVE SMOOTH",
"1142 240 OFFCURVE",
"929 11 OFFCURVE",
"504 11 CURVE SMOOTH",
"229 11 LINE",
"345 -3 LINE"
);
}
);
width = 1426;
},
{
anchors = (
{
name = bottom;
position = "{681, 0}";
},
{
name = center;
position = "{219, 715}";
},
{
name = top;
position = "{681, 1430}";
}
);
layerId = "09CD4194-2486-478D-AB32-B0AA8D4EDA22";
paths = (
{
closed = 1;
nodes = (
"514 0 LINE SMOOTH",
"735 0 OFFCURVE",
"906 38 OFFCURVE",
"1028 124 CURVE SMOOTH",
"1187 235 OFFCURVE",
"1265 425 OFFCURVE",
"1265 715 CURVE SMOOTH",
"1265 993 OFFCURVE",
"1194 1176 OFFCURVE",
"1045 1288 CURVE SMOOTH",
"913 1388 OFFCURVE",
"714 1430 OFFCURVE",
"452 1430 CURVE SMOOTH",
"174 1430 LINE",
"174 0 LINE"
);
},
{
closed = 1;
nodes = (
"260 1425 LINE",
"236 1420 LINE",
"492 1420 LINE SMOOTH",
"957 1420 OFFCURVE",
"1170 1200 OFFCURVE",
"1170 719 CURVE SMOOTH",
"1170 233 OFFCURVE",
"954 10 OFFCURVE",
"484 10 CURVE SMOOTH",
"236 10 LINE",
"260 5 LINE"
);
}
);
width = 1355;
},
{
anchors = (
{
name = bottom;
position = "{813, 0}";
},
{
name = center;
position = "{333, 715}";
},
{
name = top;
position = "{813, 1430}";
}
);
background = {
anchors = (
{
name = bottom;
position = "{813, 0}";
},
{
name = center;
position = "{813, 715}";
},
{
name = top;
position = "{813, 1430}";
}
);
paths = (
{
closed = 1;
nodes = (
"621 0 LINE SMOOTH",
"1015 0 OFFCURVE",
"1097 14 OFFCURVE",
"1277 140 CURVE SMOOTH",
"1408 232 OFFCURVE",
"1569 428 OFFCURVE",
"1569 718 CURVE SMOOTH",
"1569 954 OFFCURVE",
"1446 1164 OFFCURVE",
"1314 1273 CURVE SMOOTH",
"1129 1425 OFFCURVE",
"1046 1437 OFFCURVE",
"557 1437 CURVE SMOOTH",
"138 1437 LINE",
"138 0 LINE"
);
},
{
closed = 1;
nodes = (
"533 1438 LINE",
"197 1375 LINE",
"200 1244 LINE",
"562 1244 LINE SMOOTH",
"1000 1244 OFFCURVE",
"1152 1109 OFFCURVE",
"1152 725 CURVE SMOOTH",
"1152 338 OFFCURVE",
"993 193 OFFCURVE",
"563 193 CURVE SMOOTH",
"200 193 LINE",
"197 62 LINE",
"533 -1 LINE"
);
}
);
};
layerId = "338DAB22-2F62-42B0-AF6A-AC80FC784DAE";
paths = (
{
closed = 1;
nodes = (
"621 0 LINE SMOOTH",
"955 0 OFFCURVE",
"1037 14 OFFCURVE",
"1217 140 CURVE SMOOTH",
"1348 232 OFFCURVE",
"1489 428 OFFCURVE",
"1489 718 CURVE SMOOTH",
"1489 954 OFFCURVE",
"1386 1164 OFFCURVE",
"1254 1273 CURVE SMOOTH",
"1069 1425 OFFCURVE",
"986 1437 OFFCURVE",
"557 1437 CURVE SMOOTH",
"138 1437 LINE",
"138 0 LINE"
);
},
{
closed = 1;
nodes = (
"533 1438 LINE",
"200 1244 LINE",
"562 1244 LINE SMOOTH",
"940 1244 OFFCURVE",
"1112 1109 OFFCURVE",
"1112 725 CURVE SMOOTH",
"1112 338 OFFCURVE",
"933 193 OFFCURVE",
"563 193 CURVE SMOOTH",
"200 193 LINE",
"533 -1 LINE"
);
}
);
width = 1597;
},
{
anchors = (
{
name = bottom;
position = "{680, -20}";
},
{
name = center;
position = "{189, 715}";
},
{
name = top;
position = "{680, 1430}";
}
);
background = {
anchors = (
{
name = bottom;
position = "{680, 0}";
},
{
name = center;
position = "{680, 715}";
},
{
name = top;
position = "{680, 1430}";
}
);
paths = (
{
closed = 1;
nodes = (
"485 0 LINE SMOOTH",
"707 0 OFFCURVE",
"849 30 OFFCURVE",
"976 102 CURVE SMOOTH",
"1154 204 OFFCURVE",
"1245 412 OFFCURVE",
"1245 714 CURVE SMOOTH",
"1245 981 OFFCURVE",
"1173 1176 OFFCURVE",
"1036 1283 CURVE SMOOTH",
"898 1391 OFFCURVE",
"727 1430 OFFCURVE",
"422 1430 CURVE SMOOTH",
"143 1430 LINE",
"143 0 LINE"
);
},
{
closed = 1;
nodes = (
"236 1414 LINE",
"186 1353 LINE",
"503 1353 LINE SMOOTH",
"954 1353 OFFCURVE",
"1153 1157 OFFCURVE",
"1153 719 CURVE SMOOTH",
"1153 274 OFFCURVE",
"952 77 OFFCURVE",
"495 77 CURVE SMOOTH",
"186 77 LINE",
"236 16 LINE"
);
}
);
};
layerId = "B71E0DD6-B640-4F5E-B48D-BF5E04BC2E71";
paths = (
{
closed = 1;
nodes = (
"485 0 LINE SMOOTH",
"707 0 OFFCURVE",
"849 30 OFFCURVE",
"976 102 CURVE SMOOTH",
"1154 204 OFFCURVE",
"1245 412 OFFCURVE",
"1245 714 CURVE SMOOTH",
"1245 981 OFFCURVE",
"1173 1176 OFFCURVE",
"1036 1283 CURVE SMOOTH",
"898 1391 OFFCURVE",
"727 1430 OFFCURVE",
"422 1430 CURVE SMOOTH",
"143 1430 LINE",
"143 0 LINE"
);
},
{
closed = 1;
nodes = (
"236 1414 LINE",
"186 1353 LINE",
"503 1353 LINE SMOOTH",
"954 1353 OFFCURVE",
"1153 1157 OFFCURVE",
"1153 719 CURVE SMOOTH",
"1153 274 OFFCURVE",
"952 77 OFFCURVE",
"495 77 CURVE SMOOTH",
"186 77 LINE",
"236 16 LINE"
);
}
);
width = 1360;
},
{
anchors = (
{
name = bottom;
position = "{737, -11}";
},
{
name = center;
position = "{251, 715}";
},
{
name = top;
position = "{737, 1430}";
}
);
layerId = "50B3BD20-6B7E-4A37-88B3-070541B8FD4C";
paths = (
{
closed = 1;
nodes = (
"544 0 LINE SMOOTH",
"814 0 OFFCURVE",
"930 23 OFFCURVE",
"1080 118 CURVE SMOOTH",
"1238 216 OFFCURVE",
"1350 419 OFFCURVE",
"1350 716 CURVE SMOOTH",
"1350 969 OFFCURVE",
"1265 1171 OFFCURVE",
"1130 1279 CURVE SMOOTH",
"972 1406 OFFCURVE",
"838 1433 OFFCURVE",
"480 1433 CURVE SMOOTH",
"141 1433 LINE",
"141 0 LINE"
);
},
{
closed = 1;
nodes = (
"364 1424 LINE",
"192 1306 LINE",
"528 1306 LINE SMOOTH",
"948 1306 OFFCURVE",
"1135 1136 OFFCURVE",
"1135 722 CURVE SMOOTH",
"1135 302 OFFCURVE",
"944 127 OFFCURVE",
"524 127 CURVE SMOOTH",
"192 127 LINE",
"364 9 LINE"
);
}
);
width = 1462;
}
);
leftKerningGroup = H;
note = D;
rightKerningGroup = O;
unicode = 0044;
},
{
color = 8;
glyphname = Eth;
lastChange = "2019-12-28 20:28:17 +0000";
layers = (
{
background = {
paths = (
{
closed = 1;
nodes = (
"34 1334 LINE",
"34 1300 LINE",
"228 1300 LINE",
"228 710 LINE",
"50 710 LINE",
"50 676 LINE",
"228 676 LINE",
"228 34 LINE",
"34 34 LINE",
"34 0 LINE",
"556 0 LINE SMOOTH",
"812 0 OFFCURVE",
"920 18 OFFCURVE",
"1038 84 CURVE SMOOTH",
"1242 196 OFFCURVE",
"1362 410 OFFCURVE",
"1362 662 CURVE SMOOTH",
"1362 980 OFFCURVE",
"1176 1228 OFFCURVE",
"878 1306 CURVE SMOOTH",
"786 1332 OFFCURVE",
"752 1334 OFFCURVE",
"526 1334 CURVE SMOOTH"
);
},
{
closed = 1;
nodes = (
"426 676 LINE",
"718 676 LINE",
"718 710 LINE",
"426 710 LINE",
"426 1300 LINE",
"632 1300 OFFCURVE",
"690 1294 OFFCURVE",
"778 1270 CURVE SMOOTH",
"1018 1198 OFFCURVE",
"1144 996 OFFCURVE",
"1144 676 CURVE SMOOTH",
"1144 482 OFFCURVE",
"1108 328 OFFCURVE",
"1038 226 CURVE SMOOTH",
"968 124 OFFCURVE",
"830 56 OFFCURVE",
"660 40 CURVE SMOOTH",
"600 36 OFFCURVE",
"564 34 OFFCURVE",
"426 34 CURVE"
);
}
);
};
components = (
{
name = D;
},
{
name = strokeshortcomb;
transform = "{1, 0, 0, 1, -76, -37}";
}
);
layerId = "EA94BB3F-1054-4F03-AAB6-69C3B81B3CC3";
width = 1500;
},
{
components = (
{
name = D;
},
{
name = strokeshortcomb;
transform = "{1, 0, 0, 1, -25, -37}";
}
);
layerId = "1A84AFAC-8532-492C-A52A-D2ACD869B7F8";
width = 1332;
},
{
components = (
{
name = D;
},
{
name = strokeshortcomb;
transform = "{1, 0, 0, 1, -88, -37}";
}
);
layerId = "16E03120-9D89-4B3A-B1E3-633A6E865927";
width = 1610;
},
{
components = (
{
name = D;
},
{
name = strokeshortcomb;
transform = "{1, 0, 0, 1, -123, -37}";
}
);
layerId = "5EAC5215-9D4A-4BA0-8B26-A551FA1A966A";
width = 1496;
},
{
background = {
paths = (
{
closed = 1;
nodes = (
"34 1334 LINE",
"34 1300 LINE",
"228 1300 LINE",
"228 710 LINE",
"50 710 LINE",
"50 676 LINE",
"228 676 LINE",
"228 34 LINE",
"34 34 LINE",
"34 0 LINE",
"556 0 LINE SMOOTH",
"812 0 OFFCURVE",
"920 18 OFFCURVE",
"1038 84 CURVE SMOOTH",
"1242 196 OFFCURVE",
"1362 410 OFFCURVE",
"1362 662 CURVE SMOOTH",
"1362 980 OFFCURVE",
"1176 1228 OFFCURVE",
"878 1306 CURVE SMOOTH",
"786 1332 OFFCURVE",
"752 1334 OFFCURVE",
"526 1334 CURVE SMOOTH"
);
},
{
closed = 1;
nodes = (
"426 676 LINE",
"718 676 LINE",
"718 710 LINE",
"426 710 LINE",
"426 1300 LINE",
"632 1300 OFFCURVE",
"690 1294 OFFCURVE",
"778 1270 CURVE SMOOTH",
"1018 1198 OFFCURVE",
"1144 996 OFFCURVE",
"1144 676 CURVE SMOOTH",
"1144 482 OFFCURVE",
"1108 328 OFFCURVE",
"1038 226 CURVE SMOOTH",
"968 124 OFFCURVE",
"830 56 OFFCURVE",
"660 40 CURVE SMOOTH",
"600 36 OFFCURVE",
"564 34 OFFCURVE",
"426 34 CURVE"
);
}
);
};
components = (
{
name = D;
},
{
name = strokeshortcomb;
transform = "{1, 0, 0, 1, -129, -41}";
}
);
layerId = "B4536172-55B8-4884-A498-BDE07D5884DA";
width = 1426;
},
{
components = (
{
name = D;
},
{
name = strokeshortcomb;
transform = "{1, 0, 0, 1, -133, -45}";
}
);
layerId = "09CD4194-2486-478D-AB32-B0AA8D4EDA22";
width = 1355;
},
{
background = {
components = (
{
name = D;
},
{
name = strokeshortcomb;
transform = "{1, 0, 0, 1, 361, -37}";
}
);
};
components = (
{
name = D;
},
{
name = strokeshortcomb;
transform = "{1, 0, 0, 1, -151, -66}";
}
);
layerId = "338DAB22-2F62-42B0-AF6A-AC80FC784DAE";
width = 1597;
},
{
background = {
components = (
{
name = D;
},
{
name = strokeshortcomb;
transform = "{1, 0, 0, 1, 439, -35}";
}
);
};
components = (
{
name = D;
},
{
name = strokeshortcomb;
transform = "{1, 0, 0, 1, -85, -35}";
}
);
layerId = "B71E0DD6-B640-4F5E-B48D-BF5E04BC2E71";
width = 1360;
},
{
components = (
{
name = D;
},
{
name = strokeshortcomb;
transform = "{1, 0, 0, 1, -113, -48}";
}
);
layerId = "50B3BD20-6B7E-4A37-88B3-070541B8FD4C";
width = 1462;
}
);
leftKerningGroup = H;
note = Eth;
rightKerningGroup = O;
unicode = 00D0;
},
{
color = 1;
glyphname = E;
lastChange = "2019-12-28 20:34:21 +0000";
layers = (
{
anchors = (
{
name = bottom;
position = "{586, 0}";
},
{
name = ogonek;
position = "{914, 0}";
},
{
name = top;
position = "{586, 1430}";
},
{
name = topleft;
position = "{71, 1430}";
}
);
background = {
paths = (
{
closed = 1;
nodes = (
"533 36 LINE",
"533 712 LINE",
"615 712 LINE SMOOTH",
"725 712 OFFCURVE",
"797 706 OFFCURVE",
"837 694 CURVE",
"909 674 OFFCURVE",
"947 618 OFFCURVE",
"947 538 CURVE SMOOTH",
"947 464 LINE",
"983 464 LINE",
"983 1002 LINE",
"947 1002 LINE",
"947 934 LINE SMOOTH",
"947 870 OFFCURVE",
"907 802 OFFCURVE",
"853 776 CURVE",
"807 756 OFFCURVE",
"717 744 OFFCURVE",
"617 744 CURVE SMOOTH",
"533 744 LINE",
"533 1394 LINE",
"777 1394 LINE SMOOTH",
"975 1394 OFFCURVE",
"1091 1376 OFFCURVE",
"1161 1336 CURVE SMOOTH",
"1241 1290 OFFCURVE",
"1265 1246 OFFCURVE",
"1293 1080 CURVE",
"1325 1080 LINE",
"1293 1430 LINE",
"115 1430 LINE",
"115 1394 LINE",
"323 1394 LINE",
"323 36 LINE",
"115 36 LINE",
"115 0 LINE",
"1401 0 LINE",
"1401 420 LINE",
"1365 420 LINE",
"1365 338 LINE SMOOTH",
"1365 220 OFFCURVE",
"1311 142 OFFCURVE",
"1193 88 CURVE",
"1117 50 OFFCURVE",
"1007 36 OFFCURVE",
"801 36 CURVE SMOOTH"
);
}
);
};
layerId = "EA94BB3F-1054-4F03-AAB6-69C3B81B3CC3";
paths = (
{
closed = 1;
nodes = (
"1025 0 LINE",
"1025 36 LINE",
"288 36 LINE",
"381 23 LINE",
"381 725 LINE",
"288 710 LINE",
"1025 710 LINE",
"1025 746 LINE",
"288 746 LINE",
"381 733 LINE",
"381 1417 LINE",
"288 1394 LINE",
"1025 1394 LINE",
"1025 1430 LINE",
"175 1430 LINE",
"175 0 LINE"
);
}
);
width = 1120;
},
{
anchors = (
{
name = bottom;
position = "{530, 0}";
},
{
name = ogonek;
position = "{782, 0}";
},
{
name = top;
position = "{530, 1430}";
},
{
name = topleft;
position = "{-15, 1430}";
}
);
layerId = "1A84AFAC-8532-492C-A52A-D2ACD869B7F8";
paths = (
{
closed = 1;
nodes = (
"919 0 LINE",
"919 26 LINE",
"210 26 LINE",
"235 12 LINE",
"235 738 LINE",
"203 715 LINE",
"919 715 LINE",
"919 741 LINE",
"210 741 LINE",
"235 727 LINE",
"235 1420 LINE",
"191 1404 LINE",
"919 1404 LINE",
"919 1430 LINE",
"175 1430 LINE",
"175 0 LINE"
);
}
);
width = 1011;
},
{
anchors = (
{
name = bottom;
position = "{621, 0}";
},
{
name = ogonek;
position = "{1099, 0}";
},
{
name = top;
position = "{661, 1445}";
},
{
name = topleft;
position = "{44, 1445}";
}
);
layerId = "16E03120-9D89-4B3A-B1E3-633A6E865927";
paths = (
{
closed = 1;
nodes = (
"1148 0 LINE",
"1148 66 LINE",
"323 66 LINE",
"504 13 LINE",
"504 752 LINE",
"351 695 LINE",
"1148 695 LINE",
"1148 761 LINE",
"323 761 LINE",
"504 708 LINE",
"504 1431 LINE",
"211 1379 LINE",
"1148 1379 LINE",
"1148 1445 LINE",
"168 1445 LINE",
"168 0 LINE"
);
}
);
width = 1241;
},
{
anchors = (
{
name = bottom;
position = "{594, 0}";
},
{
name = ogonek;
position = "{1077, 0}";
},
{
name = top;
position = "{594, 1445}";
},
{
name = topleft;
position = "{9, 1445}";
}
);
layerId = "5EAC5215-9D4A-4BA0-8B26-A551FA1A966A";
paths = (
{
closed = 1;
nodes = (
"1134 0 LINE",
"1134 26 LINE",
"249 26 LINE",
"430 13 LINE",
"430 752 LINE",
"277 715 LINE",
"1134 715 LINE",
"1134 741 LINE",
"249 741 LINE",
"430 708 LINE",
"430 1431 LINE",
"237 1419 LINE",
"1134 1419 LINE",
"1134 1445 LINE",
"170 1445 LINE",
"170 0 LINE"
);
}
);
width = 1201;
},
{
anchors = (
{
name = bottom;
position = "{563, 0}";
},
{
name = ogonek;
position = "{1031, 0}";
},
{
name = top;
position = "{663, 1439}";
},
{
name = topleft;
position = "{-2, 1430}";
}
);
background = {
paths = (
{
closed = 1;
nodes = (
"483 36 LINE",
"483 712 LINE",
"565 712 LINE SMOOTH",
"675 712 OFFCURVE",
"747 706 OFFCURVE",
"787 694 CURVE",
"859 674 OFFCURVE",
"897 618 OFFCURVE",
"897 538 CURVE SMOOTH",
"897 464 LINE",
"933 464 LINE",
"933 1002 LINE",
"897 1002 LINE",
"897 934 LINE SMOOTH",
"897 870 OFFCURVE",
"857 802 OFFCURVE",
"803 776 CURVE",
"757 756 OFFCURVE",
"667 744 OFFCURVE",
"567 744 CURVE SMOOTH",
"483 744 LINE",
"483 1394 LINE",
"727 1394 LINE SMOOTH",
"925 1394 OFFCURVE",
"1041 1376 OFFCURVE",
"1111 1336 CURVE SMOOTH",
"1191 1290 OFFCURVE",
"1215 1246 OFFCURVE",
"1243 1080 CURVE",
"1275 1080 LINE",
"1243 1430 LINE",
"65 1430 LINE",
"65 1394 LINE",
"273 1394 LINE",
"273 36 LINE",
"65 36 LINE",
"65 0 LINE",
"1351 0 LINE",
"1351 420 LINE",
"1315 420 LINE",
"1315 338 LINE SMOOTH",
"1315 220 OFFCURVE",
"1261 142 OFFCURVE",
"1143 88 CURVE",
"1067 50 OFFCURVE",
"957 36 OFFCURVE",
"751 36 CURVE SMOOTH"
);
}
);
};
layerId = "B4536172-55B8-4884-A498-BDE07D5884DA";
paths = (
{
closed = 1;
nodes = (
"1079 0 LINE",
"1079 18 LINE",
"243 18 LINE",
"345 11 LINE",
"345 744 LINE",
"250 719 LINE",
"1079 719 LINE",
"1079 737 LINE",
"243 737 LINE",
"345 720 LINE",
"345 1427 LINE",
"236 1420 LINE",
"1079 1420 LINE",
"1079 1438 LINE",
"172 1438 LINE",
"172 0 LINE"
);
}
);
width = 1147;
},
{
anchors = (
{
name = bottom;
position = "{532, 0}";
},
{
name = ogonek;
position = "{914, 0}";
},
{
name = top;
position = "{632, 1430}";
},
{
name = topleft;
position = "{-13, 1430}";
}
);
layerId = "09CD4194-2486-478D-AB32-B0AA8D4EDA22";
paths = (
{
closed = 1;
nodes = (
"1024 0 LINE",
"1024 10 LINE",
"237 10 LINE",
"260 8 LINE",
"260 735 LINE",
"223 723 LINE",
"1024 723 LINE",
"1024 733 LINE",
"237 733 LINE",
"260 731 LINE",
"260 1422 LINE",
"235 1420 LINE",
"1024 1420 LINE",
"1024 1430 LINE",
"174 1430 LINE",
"174 0 LINE"
);
}
);
width = 1092;
},
{
anchors = (
{
name = bottom;
position = "{624, 50}";
},
{
name = ogonek;
position = "{1118, 0}";
},
{
name = top;
position = "{674, 1430}";
},
{
name = topleft;
position = "{26, 1430}";
}
);
background = {
anchors = (
{
name = bottom;
position = "{629, 0}";
},
{
name = ogonek;
position = "{1119, 10}";
},
{
name = top;
position = "{629, 1430}";
},
{
name = topleft;
position = "{35, 1430}";
}
);
paths = (
{
closed = 1;
nodes = (
"1187 0 LINE",
"1187 193 LINE",
"315 193 LINE",
"311 63 LINE",
"525 7 LINE",
"525 814 LINE",
"-50 625 LINE",
"1187 625 LINE",
"1187 818 LINE",
"315 818 LINE",
"311 688 LINE",
"525 632 LINE",
"525 1426 LINE",
"190 1375 LINE",
"192 1244 LINE",
"1187 1244 LINE",
"1187 1437 LINE",
"138 1437 LINE",
"138 0 LINE"
);
}
);
};
layerId = "338DAB22-2F62-42B0-AF6A-AC80FC784DAE";
paths = (
{
closed = 1;
nodes = (
"1187 0 LINE",
"1187 193 LINE",
"315 193 LINE",
"525 7 LINE",
"525 824 LINE",
"240 635 LINE",
"1187 635 LINE",
"1187 828 LINE",
"315 828 LINE",
"525 642 LINE",
"525 1426 LINE",
"192 1244 LINE",
"1187 1244 LINE",
"1187 1437 LINE",
"138 1437 LINE",
"138 0 LINE"
);
}
);
width = 1304;
},
{
anchors = (
{
name = bottom;
position = "{534, -20}";
},
{
name = ogonek;
position = "{781, 0}";
},
{
name = top;
position = "{574, 1430}";
},
{
name = topleft;
position = "{-5, 1430}";
}
);
background = {
anchors = (
{
name = bottom;
position = "{534, 0}";
},
{
name = ogonek;
position = "{981, 10}";
},
{
name = top;
position = "{534, 1430}";
},
{
name = topleft;
position = "{-5, 1430}";
}
);
paths = (
{
closed = 1;
nodes = (
"955 0 LINE",
"955 77 LINE",
"160 77 LINE",
"226 16 LINE",
"226 757 LINE",
"189 689 LINE",
"955 689 LINE",
"955 766 LINE",
"160 766 LINE",
"226 705 LINE",
"226 1419 LINE",
"179 1353 LINE",
"955 1353 LINE",
"955 1430 LINE",
"143 1430 LINE",
"143 0 LINE"
);
}
);
};
layerId = "B71E0DD6-B640-4F5E-B48D-BF5E04BC2E71";
paths = (
{
closed = 1;
nodes = (
"955 0 LINE",
"955 77 LINE",
"160 77 LINE",
"226 16 LINE",
"226 757 LINE",
"189 689 LINE",
"955 689 LINE",
"955 766 LINE",
"160 766 LINE",
"226 705 LINE",
"226 1419 LINE",
"179 1353 LINE",
"955 1353 LINE",
"955 1430 LINE",
"143 1430 LINE",
"143 0 LINE"
);
}
);
width = 1068;
},
{
anchors = (
{
name = bottom;
position = "{572, 10}";
},
{
name = ogonek;
position = "{926, 0}";
},
{
name = top;
position = "{617, 1430}";
},
{
name = topleft;
position = "{8, 1430}";
}
);
layerId = "50B3BD20-6B7E-4A37-88B3-070541B8FD4C";
paths = (
{
closed = 1;
nodes = (
"1054 0 LINE",
"1054 127 LINE",
"226 127 LINE",
"354 12 LINE",
"354 786 LINE",
"211 666 LINE",
"1054 666 LINE",
"1054 793 LINE",
"226 793 LINE",
"354 678 LINE",
"354 1422 LINE",
"184 1306 LINE",
"1054 1306 LINE",
"1054 1433 LINE",
"141 1433 LINE",
"141 0 LINE"
);
}
);
width = 1168;
}
);
leftKerningGroup = H;
leftMetricsKey = H;
note = E;
rightKerningGroup = E;
unicode = 0045;
},
{
color = 8;
glyphname = Eacute;
lastChange = "2019-12-28 20:36:23 +0000";
layers = (
{
background = {
paths = (
{
closed = 1;
nodes = (
"424 34 LINE",
"424 664 LINE",
"500 664 LINE SMOOTH",
"602 664 OFFCURVE",
"670 658 OFFCURVE",
"708 648 CURVE",
"774 628 OFFCURVE",
"810 576 OFFCURVE",
"810 502 CURVE SMOOTH",
"810 432 LINE",
"844 432 LINE",
"844 934 LINE",
"810 934 LINE",
"810 872 LINE SMOOTH",
"810 812 OFFCURVE",
"772 748 OFFCURVE",
"722 724 CURVE",
"680 706 OFFCURVE",
"596 694 OFFCURVE",
"502 694 CURVE SMOOTH",
"424 694 LINE",
"424 1300 LINE",
"652 1300 LINE SMOOTH",
"836 1300 OFFCURVE",
"944 1284 OFFCURVE",
"1010 1246 CURVE SMOOTH",
"1084 1204 OFFCURVE",
"1106 1162 OFFCURVE",
"1132 1008 CURVE",
"1162 1008 LINE",
"1132 1334 LINE",
"34 1334 LINE",
"34 1300 LINE",
"228 1300 LINE",
"228 34 LINE",
"34 34 LINE",
"34 0 LINE",
"1234 0 LINE",
"1234 392 LINE",
"1200 392 LINE",
"1200 316 LINE SMOOTH",
"1200 206 OFFCURVE",
"1150 132 OFFCURVE",
"1040 82 CURVE",
"968 46 OFFCURVE",
"866 34 OFFCURVE",
"674 34 CURVE SMOOTH"
);
},
{
closed = 1;
nodes = (
"406 1446 LINE",
"636 1596 LINE SMOOTH",
"692 1632 OFFCURVE",
"718 1664 OFFCURVE",
"718 1694 CURVE SMOOTH",
"718 1732 OFFCURVE",
"686 1758 OFFCURVE",
"642 1758 CURVE SMOOTH",
"594 1758 OFFCURVE",
"572 1740 OFFCURVE",
"516 1658 CURVE SMOOTH",
"368 1446 LINE"
);
}
);
};
components = (
{
name = E;
},
{
name = acutecomb.case;
transform = "{1, 0, 0, 1, 366, 550}";
}
);
layerId = "EA94BB3F-1054-4F03-AAB6-69C3B81B3CC3";
width = 1120;
},
{
components = (
{
name = E;
},
{
name = acutecomb.case;
transform = "{1, 0, 0, 1, 366, 500}";
}
);
layerId = "1A84AFAC-8532-492C-A52A-D2ACD869B7F8";
width = 1011;
},
{
components = (
{
name = E;
},
{
name = acutecomb.case;
transform = "{1, 0, 0, 1, 386, 615}";
}
);
layerId = "16E03120-9D89-4B3A-B1E3-633A6E865927";
width = 1241;
},
{
components = (
{
name = E;
},
{
name = acutecomb.case;
transform = "{1, 0, 0, 1, 360, 615}";
}
);
layerId = "5EAC5215-9D4A-4BA0-8B26-A551FA1A966A";
width = 1201;
},
{
background = {
paths = (
{
closed = 1;
nodes = (
"424 34 LINE",
"424 664 LINE",
"500 664 LINE SMOOTH",
"602 664 OFFCURVE",
"670 658 OFFCURVE",
"708 648 CURVE",
"774 628 OFFCURVE",
"810 576 OFFCURVE",
"810 502 CURVE SMOOTH",
"810 432 LINE",
"844 432 LINE",
"844 934 LINE",
"810 934 LINE",
"810 872 LINE SMOOTH",
"810 812 OFFCURVE",
"772 748 OFFCURVE",
"722 724 CURVE",
"680 706 OFFCURVE",
"596 694 OFFCURVE",
"502 694 CURVE SMOOTH",
"424 694 LINE",
"424 1300 LINE",
"652 1300 LINE SMOOTH",
"836 1300 OFFCURVE",
"944 1284 OFFCURVE",
"1010 1246 CURVE SMOOTH",
"1084 1204 OFFCURVE",
"1106 1162 OFFCURVE",
"1132 1008 CURVE",
"1162 1008 LINE",
"1132 1334 LINE",
"34 1334 LINE",
"34 1300 LINE",
"228 1300 LINE",
"228 34 LINE",
"34 34 LINE",
"34 0 LINE",
"1234 0 LINE",
"1234 392 LINE",
"1200 392 LINE",
"1200 316 LINE SMOOTH",
"1200 206 OFFCURVE",
"1150 132 OFFCURVE",
"1040 82 CURVE",
"968 46 OFFCURVE",
"866 34 OFFCURVE",
"674 34 CURVE SMOOTH"
);
},
{
closed = 1;
nodes = (
"406 1446 LINE",
"636 1596 LINE SMOOTH",
"692 1632 OFFCURVE",
"718 1664 OFFCURVE",
"718 1694 CURVE SMOOTH",
"718 1732 OFFCURVE",
"686 1758 OFFCURVE",
"642 1758 CURVE SMOOTH",
"594 1758 OFFCURVE",
"572 1740 OFFCURVE",
"516 1658 CURVE SMOOTH",
"368 1446 LINE"
);
}
);
};
components = (
{
name = E;
},
{
name = acutecomb.case;
transform = "{1, 0, 0, 1, 452, 509}";
}
);
layerId = "B4536172-55B8-4884-A498-BDE07D5884DA";
width = 1147;
},
{
components = (
{
name = E;
},
{
name = acutecomb.case;
transform = "{1, 0, 0, 1, 462, 500}";
}
);
layerId = "09CD4194-2486-478D-AB32-B0AA8D4EDA22";
width = 1092;
},
{
background = {
components = (
{
name = E;
},
{
name = acutecomb;
transform = "{1, 0, 0, 1, 588, 453}";
}
);
};
components = (
{
name = E;
},
{
name = acutecomb.case;
transform = "{1, 0, 0, 1, 390, 520}";
}
);
layerId = "338DAB22-2F62-42B0-AF6A-AC80FC784DAE";
width = 1304;
},
{
background = {
components = (
{
name = E;
},
{
name = acutecomb;
transform = "{1, 0, 0, 1, 324, 441}";
}
);
};
components = (
{
name = E;
},
{
name = acutecomb.case;
transform = "{1, 0, 0, 1, 339, 540}";
}
);
layerId = "B71E0DD6-B640-4F5E-B48D-BF5E04BC2E71";
width = 1068;
},
{
components = (
{
name = E;
},
{
name = acutecomb.case;
transform = "{1, 0, 0, 1, 361, 531}";
}
);
layerId = "50B3BD20-6B7E-4A37-88B3-070541B8FD4C";
width = 1168;
}
);
leftKerningGroup = H;
note = Eacute;
rightKerningGroup = E;
unicode = 00C9;
},
{
color = 1;
glyphname = F;
lastChange = "2019-12-28 20:34:26 +0000";
layers = (
{
anchors = (
{
name = bottom;
position = "{557, 0}";
},
{
name = top;
position = "{557, 1430}";
}
);
background = {
paths = (
{
closed = 1;
nodes = (
"1279 1054 LINE",
"1241 1430 LINE",
"75 1430 LINE",
"75 1394 LINE",
"283 1394 LINE",
"283 36 LINE",
"75 36 LINE",
"75 0 LINE",
"715 0 LINE",
"715 36 LINE",
"491 36 LINE",
"491 712 LINE",
"579 712 LINE SMOOTH",
"783 712 OFFCURVE",
"869 692 OFFCURVE",
"907 632 CURVE SMOOTH",
"925 606 OFFCURVE",
"939 536 OFFCURVE",
"939 472 CURVE SMOOTH",
"939 456 LINE",
"975 456 LINE",
"975 1016 LINE",
"939 1016 LINE",
"939 1004 LINE SMOOTH",
"939 948 OFFCURVE",
"927 876 OFFCURVE",
"911 846 CURVE SMOOTH",
"873 774 OFFCURVE",
"787 748 OFFCURVE",
"581 748 CURVE SMOOTH",
"491 748 LINE",
"491 1394 LINE",
"737 1394 LINE SMOOTH",
"929 1394 OFFCURVE",
"929 1394 OFFCURVE",
"975 1384 CURVE SMOOTH",
"1095 1366 OFFCURVE",
"1159 1328 OFFCURVE",
"1195 1250 CURVE SMOOTH",
"1225 1188 OFFCURVE",
"1239 1132 OFFCURVE",
"1239 1090 CURVE SMOOTH",
"1239 1054 LINE"
);
}
);
};
layerId = "EA94BB3F-1054-4F03-AAB6-69C3B81B3CC3";
paths = (
{
closed = 1;
nodes = (
"381 0 LINE",
"381 735 LINE",
"288 712 LINE",
"965 712 LINE",
"965 746 LINE",
"288 746 LINE",
"381 723 LINE",
"381 1417 LINE",
"288 1394 LINE",
"965 1394 LINE",
"965 1430 LINE",
"175 1430 LINE",
"175 0 LINE"
);
}
);
width = 1046;
},
{
anchors = (
{
name = bottom;
position = "{537, 0}";
},
{
name = top;
position = "{537, 1430}";
}
);
background = {
paths = (
{
closed = 1;
nodes = (
"235 0 LINE",
"235 733 LINE",
"211 717 LINE",
"819 717 LINE",
"819 741 LINE",
"211 741 LINE",
"235 725 LINE",
"235 1420 LINE",
"211 1404 LINE",
"819 1404 LINE",
"819 1430 LINE",
"175 1430 LINE",
"175 0 LINE"
);
}
);
};
layerId = "1A84AFAC-8532-492C-A52A-D2ACD869B7F8";
paths = (
{
closed = 1;
nodes = (
"235 0 LINE",
"235 738 LINE",
"203 715 LINE",
"919 715 LINE",
"919 741 LINE",
"210 741 LINE",
"235 727 LINE",
"235 1420 LINE",
"191 1404 LINE",
"919 1404 LINE",
"919 1430 LINE",
"175 1430 LINE",
"175 0 LINE"
);
}
);
width = 999;
},
{
anchors = (
{
name = bottom;
position = "{591, 0}";
},
{
name = top;
position = "{591, 1430}";
}
);
layerId = "16E03120-9D89-4B3A-B1E3-633A6E865927";
paths = (
{
closed = 1;
nodes = (
"504 0 LINE",
"504 749 LINE",
"211 697 LINE",
"1088 697 LINE",
"1088 761 LINE",
"211 761 LINE",
"504 702 LINE",
"504 1421 LINE",
"211 1379 LINE",
"1088 1379 LINE",
"1088 1445 LINE",
"168 1445 LINE",
"168 0 LINE"
);
}
);
width = 1164;
},
{
anchors = (
{
name = bottom;
position = "{560, 0}";
},
{
name = top;
position = "{560, 1440}";
}
);
background = {
paths = (
{
closed = 1;
nodes = (
"473 -15 LINE",
"473 749 LINE",
"180 697 LINE",
"1057 697 LINE",
"1057 761 LINE",
"180 761 LINE",
"473 702 LINE",
"473 1421 LINE",
"180 1379 LINE",
"1057 1379 LINE",
"1057 1445 LINE",
"137 1445 LINE",
"137 -15 LINE"
);
}
);
};
layerId = "5EAC5215-9D4A-4BA0-8B26-A551FA1A966A";
paths = (
{
closed = 1;
nodes = (
"430 0 LINE",
"430 702 LINE",
"277 665 LINE",
"1134 665 LINE",
"1134 691 LINE",
"249 691 LINE",
"430 658 LINE",
"430 1431 LINE",
"207 1419 LINE",
"1134 1419 LINE",
"1134 1445 LINE",
"170 1445 LINE",
"170 0 LINE"
);
}
);
width = 1180;
},
{
anchors = (
{
name = bottom;
position = "{548, 0}";
},
{
name = top;
position = "{548, 1435}";
}
);
background = {
paths = (
{
closed = 1;
nodes = (
"1229 1054 LINE",
"1191 1430 LINE",
"25 1430 LINE",
"25 1394 LINE",
"233 1394 LINE",
"233 36 LINE",
"25 36 LINE",
"25 0 LINE",
"665 0 LINE",
"665 36 LINE",
"441 36 LINE",
"441 712 LINE",
"529 712 LINE SMOOTH",
"733 712 OFFCURVE",
"819 692 OFFCURVE",
"857 632 CURVE SMOOTH",
"875 606 OFFCURVE",
"889 536 OFFCURVE",
"889 472 CURVE SMOOTH",
"889 456 LINE",
"925 456 LINE",
"925 1016 LINE",
"889 1016 LINE",
"889 1004 LINE SMOOTH",
"889 948 OFFCURVE",
"877 876 OFFCURVE",
"861 846 CURVE SMOOTH",
"823 774 OFFCURVE",
"737 748 OFFCURVE",
"531 748 CURVE SMOOTH",
"441 748 LINE",
"441 1394 LINE",
"687 1394 LINE SMOOTH",
"879 1394 OFFCURVE",
"879 1394 OFFCURVE",
"925 1384 CURVE SMOOTH",
"1045 1366 OFFCURVE",
"1109 1328 OFFCURVE",
"1145 1250 CURVE SMOOTH",
"1175 1188 OFFCURVE",
"1189 1132 OFFCURVE",
"1189 1090 CURVE SMOOTH",
"1189 1054 LINE"
);
}
);
};
layerId = "B4536172-55B8-4884-A498-BDE07D5884DA";
paths = (
{
closed = 1;
nodes = (
"345 0 LINE",
"345 694 LINE",
"250 669 LINE",
"1079 669 LINE",
"1079 687 LINE",
"243 687 LINE",
"345 670 LINE",
"345 1427 LINE",
"221 1420 LINE",
"1079 1420 LINE",
"1079 1438 LINE",
"172 1438 LINE",
"172 0 LINE"
);
}
);
width = 1126;
},
{
anchors = (
{
name = bottom;
position = "{536, 0}";
},
{
name = top;
position = "{536, 1430}";
}
);
background = {
paths = (
{
closed = 1;
nodes = (
"234 0 LINE",
"234 733 LINE",
"210 717 LINE",
"818 717 LINE",
"818 741 LINE",
"210 741 LINE",
"234 725 LINE",
"234 1420 LINE",
"210 1404 LINE",
"818 1404 LINE",
"818 1430 LINE",
"174 1430 LINE",
"174 0 LINE"
);
}
);
};
layerId = "09CD4194-2486-478D-AB32-B0AA8D4EDA22";
paths = (
{
closed = 1;
nodes = (
"260 0 LINE",
"260 685 LINE",
"223 673 LINE",
"1024 673 LINE",
"1024 683 LINE",
"237 683 LINE",
"260 681 LINE",
"260 1422 LINE",
"235 1420 LINE",
"1024 1420 LINE",
"1024 1430 LINE",
"174 1430 LINE",
"174 0 LINE"
);
}
);
width = 1072;
},
{
anchors = (
{
name = bottom;
position = "{585, 50}";
},
{
name = top;
position = "{585, 1430}";
}
);
background = {
anchors = (
{
name = bottom;
position = "{589, 0}";
},
{
name = top;
position = "{589, 1430}";
}
);
paths = (
{
closed = 1;
nodes = (
"525 0 LINE",
"525 809 LINE",
"190 758 LINE",
"192 627 LINE",
"1125 627 LINE",
"1125 818 LINE",
"192 818 LINE",
"189 687 LINE",
"525 627 LINE",
"525 1412 LINE",
"190 1376 LINE",
"192 1244 LINE",
"1125 1244 LINE",
"1125 1437 LINE",
"138 1437 LINE",
"138 0 LINE"
);
}
);
};
layerId = "338DAB22-2F62-42B0-AF6A-AC80FC784DAE";
paths = (
{
closed = 1;
nodes = (
"525 0 LINE",
"525 799 LINE",
"192 617 LINE",
"1125 617 LINE",
"1125 808 LINE",
"192 808 LINE",
"525 617 LINE",
"525 1412 LINE",
"192 1244 LINE",
"1125 1244 LINE",
"1125 1437 LINE",
"138 1437 LINE",
"138 0 LINE"
);
}
);
width = 1236;
},
{
anchors = (
{
name = bottom;
position = "{523, -20}";
},
{
name = top;
position = "{523, 1430}";
}
);
background = {
anchors = (
{
name = bottom;
position = "{523, 0}";
},
{
name = top;
position = "{523, 1430}";
}
);
paths = (
{
closed = 1;
nodes = (
"226 0 LINE",
"226 759 LINE",
"193 689 LINE",
"936 689 LINE",
"936 766 LINE",
"169 766 LINE",
"226 703 LINE",
"226 1419 LINE",
"179 1353 LINE",
"936 1353 LINE",
"936 1430 LINE",
"143 1430 LINE",
"143 0 LINE"
);
}
);
};
layerId = "B71E0DD6-B640-4F5E-B48D-BF5E04BC2E71";
paths = (
{
closed = 1;
nodes = (
"226 0 LINE",
"226 759 LINE",
"193 689 LINE",
"936 689 LINE",
"936 766 LINE",
"169 766 LINE",
"226 703 LINE",
"226 1419 LINE",
"179 1353 LINE",
"936 1353 LINE",
"936 1430 LINE",
"143 1430 LINE",
"143 0 LINE"
);
}
);
width = 1046;
},
{
anchors = (
{
name = bottom;
position = "{549, 10}";
},
{
name = top;
position = "{549, 1430}";
}
);
layerId = "50B3BD20-6B7E-4A37-88B3-070541B8FD4C";
paths = (
{
closed = 1;
nodes = (
"354 0 LINE",
"354 776 LINE",
"192 658 LINE",
"1017 658 LINE",
"1017 784 LINE",
"179 784 LINE",
"354 666 LINE",
"354 1416 LINE",
"184 1306 LINE",
"1017 1306 LINE",
"1017 1433 LINE",
"141 1433 LINE",
"141 0 LINE"
);
}
);
width = 1127;
}
);
leftKerningGroup = H;
leftMetricsKey = H;
note = F;
rightKerningGroup = F;
unicode = 0046;
},
{
color = 1;
glyphname = G;
lastChange = "2019-12-28 20:28:15 +0000";
layers = (
{
anchors = (
{
name = bottom;
position = "{782, 0}";
},
{
name = top;
position = "{790, 1430}";
}
);
background = {
paths = (
{
closed = 1;
nodes = (
"966 -26 OFFCURVE",
"1142 39 OFFCURVE",
"1276 182 CURVE SMOOTH",
"1386 299 OFFCURVE",
"1456 457 OFFCURVE",
"1474 630 CURVE",
"1262 630 LINE",
"1240 253 OFFCURVE",
"1057 4 OFFCURVE",
"789 4 CURVE SMOOTH",
"504 4 OFFCURVE",
"314 287 OFFCURVE",
"314 714 CURVE SMOOTH",
"314 1141 OFFCURVE",
"504 1430 OFFCURVE",
"790 1430 CURVE SMOOTH",
"970 1430 OFFCURVE",
"1114 1314 OFFCURVE",
"1192 1118 CURVE",
"1370 1118 LINE",
"1343 1165 OFFCURVE",
"1317 1202 OFFCURVE",
"1276 1244 CURVE SMOOTH",
"1145 1378 OFFCURVE",
"962 1460 OFFCURVE",
"789 1460 CURVE SMOOTH",
"617 1460 OFFCURVE",
"438 1379 OFFCURVE",
"306 1243 CURVE SMOOTH",
"181 1114 OFFCURVE",
"102 937 OFFCURVE",
"102 718 CURVE SMOOTH",
"102 513 OFFCURVE",
"171 320 OFFCURVE",
"303 181 CURVE SMOOTH",
"434 44 OFFCURVE",
"611 -26 OFFCURVE",
"792 -26 CURVE SMOOTH"
);
},
{
closed = 1;
nodes = (
"1308 594 LINE",
"1308 630 LINE",
"844 630 LINE",
"844 594 LINE"
);
}
);
};
layerId = "EA94BB3F-1054-4F03-AAB6-69C3B81B3CC3";
paths = (
{
closed = 1;
nodes = (
"1160 -26 OFFCURVE",
"1435 257 OFFCURVE",
"1474 630 CURVE",
"1262 630 LINE",
"1240 253 OFFCURVE",
"1057 4 OFFCURVE",
"789 4 CURVE SMOOTH",
"504 4 OFFCURVE",
"314 287 OFFCURVE",
"314 714 CURVE SMOOTH",
"314 1141 OFFCURVE",
"504 1430 OFFCURVE",
"790 1430 CURVE SMOOTH",
"970 1430 OFFCURVE",
"1114 1314 OFFCURVE",
"1192 1118 CURVE",
"1370 1118 LINE",
"1253 1321 OFFCURVE",
"1017 1460 OFFCURVE",
"789 1460 CURVE SMOOTH",
"407 1460 OFFCURVE",
"102 1118 OFFCURVE",
"102 718 CURVE SMOOTH",
"102 302 OFFCURVE",
"387 -26 OFFCURVE",
"792 -26 CURVE SMOOTH"
);
},
{
closed = 1;
nodes = (
"1308 594 LINE",
"1308 630 LINE",
"844 630 LINE",
"844 594 LINE"
);
}
);
width = 1553;
},
{
anchors = (
{
name = bottom;
position = "{711, 0}";
},
{
name = top;
position = "{711, 1430}";
}
);
background = {
paths = (
{
closed = 1;
nodes = (
"1054 -26 OFFCURVE",
"1284 238 OFFCURVE",
"1326 624 CURVE",
"1354 624 LINE",
"1329 230 OFFCURVE",
"1108 -6 OFFCURVE",
"761 -6 CURVE SMOOTH",
"388 -6 OFFCURVE",
"230 264 OFFCURVE",
"230 714 CURVE SMOOTH",
"230 1167 OFFCURVE",
"389 1440 OFFCURVE",
"762 1440 CURVE SMOOTH",
"995 1440 OFFCURVE",
"1197 1316 OFFCURVE",
"1274 1126 CURVE",
"1234 1126 LINE",
"1105 1348 OFFCURVE",
"946 1460 OFFCURVE",
"761 1460 CURVE SMOOTH",
"456 1460 OFFCURVE",
"164 1120 OFFCURVE",
"164 718 CURVE SMOOTH",
"164 295 OFFCURVE",
"440 -26 OFFCURVE",
"764 -26 CURVE SMOOTH"
);
},
{
closed = 1;
nodes = (
"1160 598 LINE",
"1160 624 LINE",
"936 624 LINE",
"936 598 LINE"
);
}
);
};
layerId = "1A84AFAC-8532-492C-A52A-D2ACD869B7F8";
paths = (
{
closed = 1;
nodes = (
"1121 -6 OFFCURVE",
"1337 256 OFFCURVE",
"1369 624 CURVE",
"1312 624 LINE",
"1273 276 OFFCURVE",
"1056 35 OFFCURVE",
"746 24 CURVE",
"409 36 OFFCURVE",
"182 320 OFFCURVE",
"182 718 CURVE SMOOTH",
"182 1122 OFFCURVE",
"416 1402 OFFCURVE",
"746 1410 CURVE",
"947 1405 OFFCURVE",
"1112 1300 OFFCURVE",
"1211 1127 CURVE",
"1290 1127 LINE",
"1185 1319 OFFCURVE",
"998 1440 OFFCURVE",
"746 1440 CURVE SMOOTH",
"343 1440 OFFCURVE",
"106 1131 OFFCURVE",
"106 715 CURVE SMOOTH",
"106 301 OFFCURVE",
"340 -6 OFFCURVE",
"746 -6 CURVE SMOOTH"
);
},
{
closed = 1;
nodes = (
"1330 598 LINE",
"1330 624 LINE",
"886 624 LINE",
"886 598 LINE"
);
}
);
width = 1451;
},
{
anchors = (
{
name = bottom;
position = "{837, 0}";
},
{
name = top;
position = "{845, 1430}";
}
);
layerId = "16E03120-9D89-4B3A-B1E3-633A6E865927";
paths = (
{
closed = 1;
nodes = (
"1247 -41 OFFCURVE",
"1562 248 OFFCURVE",
"1595 645 CURVE",
"1253 645 LINE",
"1235 271 OFFCURVE",
"1068 19 OFFCURVE",
"844 19 CURVE SMOOTH",
"605 19 OFFCURVE",
"434 306 OFFCURVE",
"434 714 CURVE SMOOTH",
"434 1124 OFFCURVE",
"607 1415 OFFCURVE",
"845 1415 CURVE SMOOTH",
"993 1415 OFFCURVE",
"1110 1310 OFFCURVE",
"1190 1103 CURVE",
"1494 1103 LINE",
"1386 1314 OFFCURVE",
"1104 1475 OFFCURVE",
"844 1475 CURVE SMOOTH",
"430 1475 OFFCURVE",
"92 1134 OFFCURVE",
"92 718 CURVE SMOOTH",
"92 282 OFFCURVE",
"414 -41 OFFCURVE",
"847 -41 CURVE SMOOTH"
);
},
{
closed = 1;
nodes = (
"1428 579 LINE",
"1428 645 LINE",
"834 645 LINE",
"834 579 LINE"
);
}
);
width = 1665;
},
{
anchors = (
{
name = bottom;
position = "{814, 0}";
},
{
name = top;
position = "{814, 1440}";
}
);
background = {
paths = (
{
closed = 1;
nodes = (
"1196 -41 OFFCURVE",
"1511 248 OFFCURVE",
"1544 645 CURVE",
"1202 645 LINE",
"1184 271 OFFCURVE",
"1017 19 OFFCURVE",
"793 19 CURVE SMOOTH",
"554 19 OFFCURVE",
"383 306 OFFCURVE",
"383 714 CURVE SMOOTH",
"383 1124 OFFCURVE",
"556 1415 OFFCURVE",
"794 1415 CURVE SMOOTH",
"942 1415 OFFCURVE",
"1059 1310 OFFCURVE",
"1139 1103 CURVE",
"1443 1103 LINE",
"1335 1314 OFFCURVE",
"1053 1475 OFFCURVE",
"793 1475 CURVE SMOOTH",
"379 1475 OFFCURVE",
"41 1134 OFFCURVE",
"41 718 CURVE SMOOTH",
"41 282 OFFCURVE",
"363 -41 OFFCURVE",
"796 -41 CURVE SMOOTH"
);
},
{
closed = 1;
nodes = (
"1377 579 LINE",
"1377 645 LINE",
"783 645 LINE",
"783 579 LINE"
);
}
);
};
layerId = "5EAC5215-9D4A-4BA0-8B26-A551FA1A966A";
paths = (
{
closed = 1;
nodes = (
"1243 -27 OFFCURVE",
"1548 275 OFFCURVE",
"1576 665 CURVE",
"1277 665 LINE",
"1264 287 OFFCURVE",
"1065 -3 OFFCURVE",
"839 -11 CURVE SMOOTH",
"602 -19 OFFCURVE",
"381 286 OFFCURVE",
"374 696 CURVE SMOOTH",
"367 1107 OFFCURVE",
"580 1436 OFFCURVE",
"824 1444 CURVE SMOOTH",
"970 1449 OFFCURVE",
"1191 1341 OFFCURVE",
"1247 1101 CURVE",
"1440 1211 LINE",
"1333 1409 OFFCURVE",
"1041 1482 OFFCURVE",
"824 1474 CURVE SMOOTH",
"388 1459 OFFCURVE",
"66 1112 OFFCURVE",
"74 685 CURVE SMOOTH",
"82 260 OFFCURVE",
"411 -56 OFFCURVE",
"840 -41 CURVE SMOOTH"
);
},
{
closed = 1;
nodes = (
"1377 645 LINE",
"1377 665 LINE",
"783 665 LINE",
"783 645 LINE"
);
}
);
width = 1620;
},
{
anchors = (
{
name = bottom;
position = "{788, 0}";
},
{
name = top;
position = "{788, 1435}";
}
);
background = {
paths = (
{
closed = 1;
nodes = (
"942 -26 OFFCURVE",
"1118 39 OFFCURVE",
"1252 182 CURVE SMOOTH",
"1362 299 OFFCURVE",
"1432 457 OFFCURVE",
"1450 630 CURVE",
"1238 630 LINE",
"1216 253 OFFCURVE",
"1033 4 OFFCURVE",
"765 4 CURVE SMOOTH",
"480 4 OFFCURVE",
"290 287 OFFCURVE",
"290 714 CURVE SMOOTH",
"290 1141 OFFCURVE",
"480 1430 OFFCURVE",
"766 1430 CURVE SMOOTH",
"946 1430 OFFCURVE",
"1090 1314 OFFCURVE",
"1168 1118 CURVE",
"1346 1118 LINE",
"1319 1165 OFFCURVE",
"1293 1202 OFFCURVE",
"1252 1244 CURVE SMOOTH",
"1121 1378 OFFCURVE",
"938 1460 OFFCURVE",
"765 1460 CURVE SMOOTH",
"593 1460 OFFCURVE",
"414 1379 OFFCURVE",
"282 1243 CURVE SMOOTH",
"157 1114 OFFCURVE",
"78 937 OFFCURVE",
"78 718 CURVE SMOOTH",
"78 513 OFFCURVE",
"147 320 OFFCURVE",
"279 181 CURVE SMOOTH",
"410 44 OFFCURVE",
"587 -26 OFFCURVE",
"768 -26 CURVE SMOOTH"
);
},
{
closed = 1;
nodes = (
"1284 594 LINE",
"1284 630 LINE",
"820 630 LINE",
"820 594 LINE"
);
}
);
};
layerId = "B4536172-55B8-4884-A498-BDE07D5884DA";
paths = (
{
closed = 1;
nodes = (
"1204 -27 OFFCURVE",
"1496 267 OFFCURVE",
"1530 645 CURVE",
"1334 645 LINE",
"1308 276 OFFCURVE",
"1079 -8 OFFCURVE",
"812 -12 CURVE SMOOTH",
"527 -16 OFFCURVE",
"278 300 OFFCURVE",
"274 707 CURVE SMOOTH",
"271 1117 OFFCURVE",
"520 1441 OFFCURVE",
"805 1445 CURVE SMOOTH",
"980 1448 OFFCURVE",
"1185 1331 OFFCURVE",
"1269 1114 CURVE",
"1408 1169 LINE",
"1294 1368 OFFCURVE",
"1042 1471 OFFCURVE",
"805 1467 CURVE SMOOTH",
"383 1460 OFFCURVE",
"74 1119 OFFCURVE",
"78 700 CURVE SMOOTH",
"82 284 OFFCURVE",
"393 -41 OFFCURVE",
"813 -34 CURVE SMOOTH"
);
},
{
closed = 1;
nodes = (
"1404 630 LINE",
"1404 645 LINE",
"820 645 LINE",
"820 630 LINE"
);
}
);
width = 1577;
},
{
anchors = (
{
name = bottom;
position = "{761, 0}";
},
{
name = top;
position = "{761, 1430}";
}
);
background = {
components = (
{
name = O;
transform = "{1, 0, 0, 1, 28, 0}";
}
);
};
layerId = "09CD4194-2486-478D-AB32-B0AA8D4EDA22";
paths = (
{
closed = 1;
nodes = (
"1163 -26 OFFCURVE",
"1442 259 OFFCURVE",
"1482 624 CURVE",
"1390 624 LINE",
"1351 265 OFFCURVE",
"1091 -12 OFFCURVE",
"784 -12 CURVE SMOOTH",
"451 -12 OFFCURVE",
"173 314 OFFCURVE",
"173 718 CURVE SMOOTH",
"173 1127 OFFCURVE",
"459 1446 OFFCURVE",
"784 1446 CURVE SMOOTH",
"988 1446 OFFCURVE",
"1177 1320 OFFCURVE",
"1289 1126 CURVE",
"1375 1126 LINE",
"1254 1327 OFFCURVE",
"1042 1460 OFFCURVE",
"784 1460 CURVE SMOOTH",
"376 1460 OFFCURVE",
"81 1125 OFFCURVE",
"81 715 CURVE SMOOTH",
"81 307 OFFCURVE",
"374 -26 OFFCURVE",
"784 -26 CURVE SMOOTH"
);
},
{
closed = 1;
nodes = (
"1430 614 LINE",
"1430 624 LINE",
"856 624 LINE",
"856 614 LINE"
);
}
);
width = 1532;
},
{
anchors = (
{
name = bottom;
position = "{880, 50}";
},
{
name = top;
position = "{880, 1430}";
}
);
background = {
anchors = (
{
name = bottom;
position = "{880, 0}";
},
{
name = top;
position = "{880, 1430}";
}
);
paths = (
{
closed = 1;
nodes = (
"1344 -45 OFFCURVE",
"1688 275 OFFCURVE",
"1689 713 CURVE",
"1294 713 LINE",
"1297 365 OFFCURVE",
"1136 142 OFFCURVE",
"893 142 CURVE SMOOTH",
"650 142 OFFCURVE",
"490 366 OFFCURVE",
"490 708 CURVE SMOOTH",
"490 1051 OFFCURVE",
"651 1280 OFFCURVE",
"894 1280 CURVE SMOOTH",
"1059 1280 OFFCURVE",
"1180 1181 OFFCURVE",
"1246 994 CURVE",
"1626 994 LINE",
"1530 1270 OFFCURVE",
"1210 1467 OFFCURVE",
"893 1467 CURVE SMOOTH",
"455 1467 OFFCURVE",
"98 1129 OFFCURVE",
"98 713 CURVE SMOOTH",
"98 277 OFFCURVE",
"437 -45 OFFCURVE",
"896 -45 CURVE SMOOTH"
);
},
{
closed = 1;
nodes = (
"1514 520 LINE",
"1514 713 LINE",
"862 713 LINE",
"862 520 LINE"
);
}
);
};
layerId = "338DAB22-2F62-42B0-AF6A-AC80FC784DAE";
paths = (
{
closed = 1;
nodes = (
"1326 -45 OFFCURVE",
"1650 249 OFFCURVE",
"1677 660 CURVE",
"1293 660 LINE",
"1280 342 OFFCURVE",
"1123 142 OFFCURVE",
"893 142 CURVE SMOOTH",
"650 142 OFFCURVE",
"490 366 OFFCURVE",
"490 708 CURVE SMOOTH",
"490 1051 OFFCURVE",
"651 1280 OFFCURVE",
"894 1280 CURVE SMOOTH",
"1059 1280 OFFCURVE",
"1180 1181 OFFCURVE",
"1246 994 CURVE",
"1626 994 LINE",
"1530 1270 OFFCURVE",
"1210 1467 OFFCURVE",
"893 1467 CURVE SMOOTH",
"455 1467 OFFCURVE",
"108 1129 OFFCURVE",
"108 713 CURVE SMOOTH",
"108 277 OFFCURVE",
"437 -45 OFFCURVE",
"896 -45 CURVE SMOOTH"
);
},
{
closed = 1;
nodes = (
"1514 467 LINE",
"1514 660 LINE",
"962 660 LINE",
"962 467 LINE"
);
}
);
width = 1779;
},
{
anchors = (
{
name = bottom;
position = "{776, -20}";
},
{
name = top;
position = "{776, 1430}";
}
);
background = {
anchors = (
{
name = bottom;
position = "{776, 0}";
},
{
name = top;
position = "{776, 1430}";
}
);
paths = (
{
closed = 1;
nodes = (
"1159 -10 OFFCURVE",
"1420 256 OFFCURVE",
"1444 654 CURVE",
"1346 654 LINE",
"1322 309 OFFCURVE",
"1102 78 OFFCURVE",
"780 69 CURVE",
"439 79 OFFCURVE",
"212 338 OFFCURVE",
"212 717 CURVE SMOOTH",
"212 1096 OFFCURVE",
"442 1358 OFFCURVE",
"780 1364 CURVE",
"991 1360 OFFCURVE",
"1160 1257 OFFCURVE",
"1257 1087 CURVE",
"1365 1087 LINE",
"1257 1308 OFFCURVE",
"1047 1443 OFFCURVE",
"780 1443 CURVE SMOOTH",
"385 1443 OFFCURVE",
"114 1145 OFFCURVE",
"114 714 CURVE SMOOTH",
"114 283 OFFCURVE",
"382 -10 OFFCURVE",
"780 -10 CURVE SMOOTH"
);
},
{
closed = 1;
nodes = (
"1417 576 LINE",
"1417 653 LINE",
"958 653 LINE",
"958 576 LINE"
);
}
);
};
layerId = "B71E0DD6-B640-4F5E-B48D-BF5E04BC2E71";
paths = (
{
closed = 1;
nodes = (
"1159 -10 OFFCURVE",
"1420 256 OFFCURVE",
"1444 654 CURVE",
"1346 654 LINE",
"1322 309 OFFCURVE",
"1102 78 OFFCURVE",
"780 69 CURVE",
"439 79 OFFCURVE",
"212 338 OFFCURVE",
"212 717 CURVE SMOOTH",
"212 1096 OFFCURVE",
"442 1358 OFFCURVE",
"780 1364 CURVE",
"991 1360 OFFCURVE",
"1160 1257 OFFCURVE",
"1257 1087 CURVE",
"1365 1087 LINE",
"1257 1308 OFFCURVE",
"1047 1443 OFFCURVE",
"780 1443 CURVE SMOOTH",
"385 1443 OFFCURVE",
"114 1145 OFFCURVE",
"114 714 CURVE SMOOTH",
"114 283 OFFCURVE",
"382 -10 OFFCURVE",
"780 -10 CURVE SMOOTH"
);
},
{
closed = 1;
nodes = (
"1417 576 LINE",
"1417 653 LINE",
"958 653 LINE",
"958 576 LINE"
);
}
);
width = 1552;
},
{
anchors = (
{
name = bottom;
position = "{820, 10}";
},
{
name = top;
position = "{820, 1430}";
}
);
layerId = "50B3BD20-6B7E-4A37-88B3-070541B8FD4C";
paths = (
{
closed = 1;
nodes = (
"1230 -25 OFFCURVE",
"1519 253 OFFCURVE",
"1544 657 CURVE",
"1323 657 LINE",
"1304 323 OFFCURVE",
"1111 106 OFFCURVE",
"828 100 CURVE SMOOTH",
"529 106 OFFCURVE",
"331 350 OFFCURVE",
"331 713 CURVE SMOOTH",
"331 1077 OFFCURVE",
"531 1324 OFFCURVE",
"829 1328 CURVE SMOOTH",
"1020 1326 OFFCURVE",
"1168 1224 OFFCURVE",
"1252 1047 CURVE",
"1477 1047 LINE",
"1374 1292 OFFCURVE",
"1117 1453 OFFCURVE",
"828 1453 CURVE SMOOTH",
"415 1453 OFFCURVE",
"111 1138 OFFCURVE",
"111 714 CURVE SMOOTH",
"111 280 OFFCURVE",
"405 -25 OFFCURVE",
"830 -25 CURVE SMOOTH"
);
},
{
closed = 1;
nodes = (
"1458 529 LINE",
"1458 656 LINE",
"959 656 LINE",
"959 529 LINE"
);
}
);
width = 1649;
}
);
leftKerningGroup = O;
note = G;
rightKerningGroup = G;
unicode = 0047;
},
{
color = 1;
glyphname = H;
lastChange = "2019-12-28 20:28:16 +0000";
layers = (
{
anchors = (
{
name = bottom;
position = "{761, 0}";
},
{
name = center;
position = "{761, 715}";
},
{
name = top;
position = "{761, 1430}";
},
{
name = topleft;
position = "{71, 1430}";
}
);
background = {
paths = (
{
closed = 1;
nodes = (
"491 714 LINE",
"1279 714 LINE",
"1279 36 LINE",
"1069 36 LINE",
"1069 0 LINE",
"1695 0 LINE",
"1695 36 LINE",
"1487 36 LINE",
"1487 1394 LINE",
"1695 1394 LINE",
"1695 1430 LINE",
"1069 1430 LINE",
"1069 1394 LINE",
"1279 1394 LINE",
"1279 750 LINE",
"491 750 LINE",
"491 1394 LINE",
"699 1394 LINE",
"699 1430 LINE",
"75 1430 LINE",
"75 1394 LINE",
"283 1394 LINE",
"283 36 LINE",
"75 36 LINE",
"75 0 LINE",
"699 0 LINE",
"699 36 LINE",
"491 36 LINE"
);
}
);
};
layerId = "EA94BB3F-1054-4F03-AAB6-69C3B81B3CC3";
paths = (
{
closed = 1;
nodes = (
"381 0 LINE",
"381 737 LINE",
"288 714 LINE",
"1234 714 LINE",
"1141 737 LINE",
"1141 0 LINE",
"1347 0 LINE",
"1347 1430 LINE",
"1141 1430 LINE",
"1141 727 LINE",
"1234 750 LINE",
"288 750 LINE",
"381 727 LINE",
"381 1430 LINE",
"175 1430 LINE",
"175 0 LINE"
);
}
);
width = 1522;
},
{
anchors = (
{
name = bottom;
position = "{750, 0}";
},
{
name = center;
position = "{750, 715}";
},
{
name = top;
position = "{750, 1430}";
},
{
name = topleft;
position = "{65, 1430}";
}
);
layerId = "1A84AFAC-8532-492C-A52A-D2ACD869B7F8";
paths = (
{
closed = 1;
nodes = (
"241 0 LINE",
"241 725 LINE",
"234 719 LINE",
"1266 719 LINE",
"1259 725 LINE",
"1259 0 LINE",
"1325 0 LINE",
"1325 1430 LINE",
"1259 1430 LINE",
"1259 739 LINE",
"1266 745 LINE",
"234 745 LINE",
"241 739 LINE",
"241 1430 LINE",
"175 1430 LINE",
"175 0 LINE"
);
}
);
width = 1500;
},
{
anchors = (
{
name = bottom;
position = "{809, 0}";
},
{
name = center;
position = "{809, 715}";
},
{
name = top;
position = "{809, 1430}";
},
{
name = topleft;
position = "{40, 1430}";
}
);
layerId = "16E03120-9D89-4B3A-B1E3-633A6E865927";
paths = (
{
closed = 1;
nodes = (
"494 0 LINE",
"494 781 LINE",
"201 709 LINE",
"1417 709 LINE",
"1124 781 LINE",
"1124 0 LINE",
"1450 0 LINE",
"1450 1445 LINE",
"1124 1445 LINE",
"1124 703 LINE",
"1417 775 LINE",
"201 775 LINE",
"494 703 LINE",
"494 1445 LINE",
"168 1445 LINE",
"168 0 LINE"
);
}
);
width = 1618;
},
{
anchors = (
{
name = bottom;
position = "{835, 0}";
},
{
name = center;
position = "{835, 715}";
},
{
name = top;
position = "{835, 1440}";
},
{
name = topleft;
position = "{42, 1440}";
}
);
layerId = "5EAC5215-9D4A-4BA0-8B26-A551FA1A966A";
paths = (
{
closed = 1;
nodes = (
"450 -15 LINE",
"450 751 LINE",
"253 699 LINE",
"1417 699 LINE",
"1220 751 LINE",
"1220 -15 LINE",
"1500 -15 LINE",
"1500 1445 LINE",
"1220 1445 LINE",
"1220 673 LINE",
"1417 725 LINE",
"253 725 LINE",
"450 673 LINE",
"450 1445 LINE",
"170 1445 LINE",
"170 -15 LINE"
);
}
);
width = 1670;
},
{
anchors = (
{
name = bottom;
position = "{797, 0}";
},
{
name = center;
position = "{797, 715}";
},
{
name = top;
position = "{797, 1435}";
},
{
name = topleft;
position = "{58, 1435}";
}
);
background = {
paths = (
{
closed = 1;
nodes = (
"458 714 LINE",
"1246 714 LINE",
"1246 36 LINE",
"1036 36 LINE",
"1036 0 LINE",
"1662 0 LINE",
"1662 36 LINE",
"1454 36 LINE",
"1454 1394 LINE",
"1662 1394 LINE",
"1662 1430 LINE",
"1036 1430 LINE",
"1036 1394 LINE",
"1246 1394 LINE",
"1246 750 LINE",
"458 750 LINE",
"458 1394 LINE",
"666 1394 LINE",
"666 1430 LINE",
"42 1430 LINE",
"42 1394 LINE",
"250 1394 LINE",
"250 36 LINE",
"42 36 LINE",
"42 0 LINE",
"666 0 LINE",
"666 36 LINE",
"458 36 LINE"
);
}
);
};
layerId = "B4536172-55B8-4884-A498-BDE07D5884DA";
paths = (
{
closed = 1;
nodes = (
"355 0 LINE",
"355 742 LINE",
"253 713 LINE",
"1346 713 LINE",
"1244 742 LINE",
"1244 0 LINE",
"1427 0 LINE",
"1427 1438 LINE",
"1244 1438 LINE",
"1244 702 LINE",
"1346 731 LINE",
"253 731 LINE",
"355 702 LINE",
"355 1438 LINE",
"172 1438 LINE",
"172 0 LINE"
);
}
);
width = 1599;
},
{
anchors = (
{
name = bottom;
position = "{759, 0}";
},
{
name = center;
position = "{759, 715}";
},
{
name = top;
position = "{759, 1430}";
},
{
name = topleft;
position = "{74, 1430}";
}
);
layerId = "09CD4194-2486-478D-AB32-B0AA8D4EDA22";
paths = (
{
closed = 1;
nodes = (
"260 0 LINE",
"260 733 LINE",
"253 727 LINE",
"1275 727 LINE",
"1268 733 LINE",
"1268 0 LINE",
"1354 0 LINE",
"1354 1430 LINE",
"1268 1430 LINE",
"1268 731 LINE",
"1275 737 LINE",
"253 737 LINE",
"260 731 LINE",
"260 1430 LINE",
"174 1430 LINE",
"174 0 LINE"
);
}
);
width = 1528;
},
{
anchors = (
{
name = bottom;
position = "{815, 50}";
},
{
name = center;
position = "{815, 715}";
},
{
name = top;
position = "{815, 1430}";
},
{
name = topleft;
position = "{26, 1430}";
}
);
background = {
anchors = (
{
name = bottom;
position = "{815, 0}";
},
{
name = center;
position = "{815, 715}";
},
{
name = top;
position = "{815, 1430}";
},
{
name = topleft;
position = "{26, 1430}";
}
);
paths = (
{
closed = 1;
nodes = (
"514 0 LINE",
"514 850 LINE",
"188 639 LINE",
"1443 639 LINE",
"1116 850 LINE",
"1116 0 LINE",
"1492 0 LINE",
"1492 1437 LINE",
"1116 1437 LINE",
"1116 624 LINE",
"1443 835 LINE",
"188 835 LINE",
"514 624 LINE",
"514 1437 LINE",
"138 1437 LINE",
"138 0 LINE"
);
}
);
};
layerId = "338DAB22-2F62-42B0-AF6A-AC80FC784DAE";
paths = (
{
closed = 1;
nodes = (
"514 0 LINE",
"514 850 LINE",
"188 639 LINE",
"1443 639 LINE",
"1116 850 LINE",
"1116 0 LINE",
"1492 0 LINE",
"1492 1437 LINE",
"1116 1437 LINE",
"1116 624 LINE",
"1443 835 LINE",
"188 835 LINE",
"514 624 LINE",
"514 1437 LINE",
"138 1437 LINE",
"138 0 LINE"
);
}
);
width = 1630;
},
{
anchors = (
{
name = bottom;
position = "{737, -20}";
},
{
name = center;
position = "{737, 715}";
},
{
name = top;
position = "{737, 1430}";
},
{
name = topleft;
position = "{-5, 1430}";
}
);
background = {
anchors = (
{
name = bottom;
position = "{737, 0}";
},
{
name = center;
position = "{737, 715}";
},
{
name = top;
position = "{737, 1430}";
},
{
name = topleft;
position = "{-5, 1430}";
}
);
paths = (
{
closed = 1;
nodes = (
"232 0 LINE",
"232 750 LINE",
"166 693 LINE",
"1291 693 LINE",
"1242 750 LINE",
"1242 0 LINE",
"1330 0 LINE",
"1330 1430 LINE",
"1242 1430 LINE",
"1242 713 LINE",
"1291 770 LINE",
"166 770 LINE",
"232 713 LINE",
"232 1430 LINE",
"143 1430 LINE",
"143 0 LINE"
);
}
);
};
layerId = "B71E0DD6-B640-4F5E-B48D-BF5E04BC2E71";
paths = (
{
closed = 1;
nodes = (
"232 0 LINE",
"232 750 LINE",
"166 693 LINE",
"1291 693 LINE",
"1242 750 LINE",
"1242 0 LINE",
"1330 0 LINE",
"1330 1430 LINE",
"1242 1430 LINE",
"1242 713 LINE",
"1291 770 LINE",
"166 770 LINE",
"232 713 LINE",
"232 1430 LINE",
"143 1430 LINE",
"143 0 LINE"
);
}
);
width = 1473;
},
{
anchors = (
{
name = bottom;
position = "{770, 10}";
},
{
name = center;
position = "{770, 715}";
},
{
name = top;
position = "{770, 1430}";
},
{
name = topleft;
position = "{8, 1430}";
}
);
layerId = "50B3BD20-6B7E-4A37-88B3-070541B8FD4C";
paths = (
{
closed = 1;
nodes = (
"353 0 LINE",
"353 793 LINE",
"175 670 LINE",
"1356 670 LINE",
"1187 793 LINE",
"1187 0 LINE",
"1399 0 LINE",
"1399 1433 LINE",
"1187 1433 LINE",
"1187 675 LINE",
"1356 798 LINE",
"175 798 LINE",
"353 675 LINE",
"353 1433 LINE",
"141 1433 LINE",
"141 0 LINE"
);
}
);
width = 1540;
}
);
leftKerningGroup = H;
note = H;
rightKerningGroup = H;
unicode = 0048;
},
{
color = 8;
glyphname = Hbar;
lastChange = "2019-12-28 20:28:17 +0000";
layers = (
{
anchors = (
{
name = bottom;
position = "{742, 0}";
},
{
name = top;
position = "{742, 1430}";
}
);
background = {
paths = (
{
closed = 1;
nodes = (
"362 0 LINE",
"362 714 LINE",
"1122 714 LINE",
"1122 0 LINE",
"1328 0 LINE",
"1328 1430 LINE",
"1122 1430 LINE",
"1122 750 LINE",
"362 750 LINE",
"362 1430 LINE",
"156 1430 LINE",
"156 0 LINE"
);
}
);
};
components = (
{
name = H;
},
{
name = strokelongcomb.case;
transform = "{1, 0, 0, 1, 19, -441}";
}
);
layerId = "EA94BB3F-1054-4F03-AAB6-69C3B81B3CC3";
width = 1522;
},
{
anchors = (
{
name = bottom;
position = "{742, -5}";
},
{
name = top;
position = "{742, 1435}";
}
);
components = (
{
name = H;
},
{
name = strokelongcomb.case;
transform = "{1, 0, 0, 1, 8, -441}";
}
);
layerId = "1A84AFAC-8532-492C-A52A-D2ACD869B7F8";
width = 1500;
},
{
anchors = (
{
name = bottom;
position = "{742, 0}";
},
{
name = top;
position = "{742, 1430}";
}
);
components = (
{
name = H;
},
{
name = strokelongcomb.case;
transform = "{1, 0, 0, 1, 67, -441}";
}
);
layerId = "16E03120-9D89-4B3A-B1E3-633A6E865927";
width = 1618;
},
{
anchors = (
{
name = bottom;
position = "{742, 0}";
},
{
name = top;
position = "{742, 1430}";
}
);
components = (
{
name = H;
},
{
name = strokelongcomb.case;
transform = "{1, 0, 0, 1, 34, -441}";
}
);
layerId = "5EAC5215-9D4A-4BA0-8B26-A551FA1A966A";
width = 1670;
},
{
anchors = (
{
name = bottom;
position = "{742, -3}";
},
{
name = top;
position = "{742, 1433}";
}
);
background = {
paths = (
{
closed = 1;
nodes = (
"362 0 LINE",
"362 714 LINE",
"1122 714 LINE",
"1122 0 LINE",
"1328 0 LINE",
"1328 1430 LINE",
"1122 1430 LINE",
"1122 750 LINE",
"362 750 LINE",
"362 1430 LINE",
"156 1430 LINE",
"156 0 LINE"
);
}
);
};
components = (
{
name = H;
},
{
name = strokelongcomb.case;
transform = "{1, 0, 0, 1, 55, -442}";
}
);
layerId = "B4536172-55B8-4884-A498-BDE07D5884DA";
width = 1599;
},
{
anchors = (
{
name = bottom;
position = "{742, -5}";
},
{
name = top;
position = "{742, 1435}";
}
);
components = (
{
name = H;
},
{
name = strokelongcomb.case;
transform = "{1, 0, 0, 1, 17, -441}";
}
);
layerId = "09CD4194-2486-478D-AB32-B0AA8D4EDA22";
width = 1528;
},
{
anchors = (
{
name = bottom;
position = "{764, 112}";
},
{
name = top;
position = "{764, 1357}";
}
);
background = {
anchors = (
{
name = bottom;
position = "{764, 62}";
},
{
name = top;
position = "{764, 1357}";
}
);
components = (
{
name = H;
},
{
name = strokelongcomb.case;
transform = "{1, 0, 0, 1, 68, -1}";
}
);
};
components = (
{
name = H;
},
{
name = strokelongcomb.case;
transform = "{1, 0, 0, 1, 74, -442}";
}
);
layerId = "338DAB22-2F62-42B0-AF6A-AC80FC784DAE";
width = 1630;
},
{
anchors = (
{
name = bottom;
position = "{764, 1}";
},
{
name = top;
position = "{764, 1409}";
}
);
background = {
anchors = (
{
name = bottom;
position = "{764, 21}";
},
{
name = top;
position = "{764, 1409}";
}
);
components = (
{
name = H;
},
{
name = strokelongcomb.case;
transform = "{1, 0, 0, 1, -2, -426}";
}
);
};
components = (
{
name = H;
},
{
name = strokelongcomb.case;
transform = "{1, 0, 0, 1, -27, -426}";
}
);
layerId = "B71E0DD6-B640-4F5E-B48D-BF5E04BC2E71";
width = 1473;
},
{
anchors = (
{
name = bottom;
position = "{764, 49}";
},
{
name = top;
position = "{764, 1387}";
}
);
components = (
{
name = H;
},
{
name = strokelongcomb.case;
transform = "{1, 0, 0, 1, 16, -432}";
}
);
layerId = "50B3BD20-6B7E-4A37-88B3-070541B8FD4C";
width = 1540;
}
);
leftKerningGroup = H;
rightKerningGroup = H;
unicode = 0126;
},
{
color = 1;
glyphname = I;
lastChange = "2019-12-28 20:28:14 +0000";
layers = (
{
anchors = (
{
name = bottom;
position = "{278, 0}";
},
{
name = ogonek;
position = "{287, 0}";
},
{
name = top;
position = "{278, 1430}";
},
{
name = topleft;
position = "{24, 1430}";
}
);
background = {
paths = (
{
closed = 1;
nodes = (
"59 1334 LINE",
"59 1300 LINE",
"253 1300 LINE",
"253 34 LINE",
"59 34 LINE",
"59 0 LINE",
"647 0 LINE",
"647 34 LINE",
"453 34 LINE",
"453 1300 LINE",
"647 1300 LINE",
"647 1334 LINE"
);
}
);
};
layerId = "EA94BB3F-1054-4F03-AAB6-69C3B81B3CC3";
paths = (
{
closed = 1;
nodes = (
"381 0 LINE",
"381 1430 LINE",
"175 1430 LINE",
"175 0 LINE"
);
}
);
width = 556;
},
{
anchors = (
{
name = bottom;
position = "{205, 0}";
},
{
name = ogonek;
position = "{206, 0}";
},
{
name = top;
position = "{205, 1430}";
},
{
name = topleft;
position = "{24, 1430}";
}
);
layerId = "1A84AFAC-8532-492C-A52A-D2ACD869B7F8";
paths = (
{
closed = 1;
nodes = (
"235 0 LINE",
"235 1430 LINE",
"175 1430 LINE",
"175 0 LINE"
);
}
);
width = 410;
},
{
anchors = (
{
name = bottom;
position = "{336, 0}";
},
{
name = ogonek;
position = "{337, 0}";
},
{
name = top;
position = "{336, 1430}";
},
{
name = topleft;
position = "{17, 1430}";
}
);
layerId = "16E03120-9D89-4B3A-B1E3-633A6E865927";
paths = (
{
closed = 1;
nodes = (
"504 0 LINE",
"504 1445 LINE",
"168 1445 LINE",
"168 0 LINE"
);
}
);
width = 672;
},
{
anchors = (
{
name = bottom;
position = "{309, 0}";
},
{
name = ogonek;
position = "{358, 0}";
},
{
name = top;
position = "{309, 1440}";
},
{
name = topleft;
position = "{18, 1440}";
}
);
layerId = "5EAC5215-9D4A-4BA0-8B26-A551FA1A966A";
paths = (
{
closed = 1;
nodes = (
"449 0 LINE",
"449 1445 LINE",
"169 1445 LINE",
"169 0 LINE"
);
}
);
width = 618;
},
{
anchors = (
{
name = bottom;
position = "{257, 0}";
},
{
name = ogonek;
position = "{262, 0}";
},
{
name = top;
position = "{257, 1435}";
},
{
name = topleft;
position = "{21, 1435}";
}
);
background = {
paths = (
{
closed = 1;
nodes = (
"36 1334 LINE",
"36 1300 LINE",
"230 1300 LINE",
"230 34 LINE",
"36 34 LINE",
"36 0 LINE",
"624 0 LINE",
"624 34 LINE",
"430 34 LINE",
"430 1300 LINE",
"624 1300 LINE",
"624 1334 LINE"
);
}
);
};
layerId = "B4536172-55B8-4884-A498-BDE07D5884DA";
paths = (
{
closed = 1;
nodes = (
"342 0 LINE",
"342 1438 LINE",
"172 1438 LINE",
"172 0 LINE"
);
}
);
width = 514;
},
{
anchors = (
{
name = bottom;
position = "{204, 0}";
},
{
name = ogonek;
position = "{205, 0}";
},
{
name = top;
position = "{204, 1430}";
},
{
name = topleft;
position = "{23, 1430}";
}
);
layerId = "09CD4194-2486-478D-AB32-B0AA8D4EDA22";
paths = (
{
closed = 1;
nodes = (
"234 0 LINE",
"234 1430 LINE",
"174 1430 LINE",
"174 0 LINE"
);
}
);
width = 408;
},
{
anchors = (
{
name = bottom;
position = "{332, 50}";
},
{
name = ogonek;
position = "{394, 0}";
},
{
name = top;
position = "{332, 1430}";
},
{
name = topleft;
position = "{24, 1430}";
}
);
background = {
anchors = (
{
name = bottom;
position = "{332, 0}";
},
{
name = ogonek;
position = "{594, 10}";
},
{
name = top;
position = "{332, 1430}";
},
{
name = topleft;
position = "{24, 1430}";
}
);
paths = (
{
closed = 1;
nodes = (
"525 0 LINE",
"525 1437 LINE",
"138 1437 LINE",
"138 0 LINE"
);
}
);
};
layerId = "338DAB22-2F62-42B0-AF6A-AC80FC784DAE";
paths = (
{
closed = 1;
nodes = (
"525 0 LINE",
"525 1437 LINE",
"138 1437 LINE",
"138 0 LINE"
);
}
);
width = 663;
},
{
anchors = (
{
name = bottom;
position = "{185, -20}";
},
{
name = ogonek;
position = "{182, 0}";
},
{
name = top;
position = "{185, 1430}";
},
{
name = topleft;
position = "{-5, 1430}";
}
);
background = {
anchors = (
{
name = bottom;
position = "{185, 0}";
},
{
name = ogonek;
position = "{352, 10}";
},
{
name = top;
position = "{185, 1430}";
},
{
name = topleft;
position = "{-5, 1430}";
}
);
paths = (
{
closed = 1;
nodes = (
"226 0 LINE",
"226 1430 LINE",
"143 1430 LINE",
"143 0 LINE"
);
}
);
};
layerId = "B71E0DD6-B640-4F5E-B48D-BF5E04BC2E71";
paths = (
{
closed = 1;
nodes = (
"226 0 LINE",
"226 1430 LINE",
"143 1430 LINE",
"143 0 LINE"
);
}
);
width = 369;
},
{
anchors = (
{
name = bottom;
position = "{249, 10}";
},
{
name = ogonek;
position = "{257, 0}";
},
{
name = top;
position = "{249, 1430}";
},
{
name = topleft;
position = "{8, 1430}";
}
);
layerId = "50B3BD20-6B7E-4A37-88B3-070541B8FD4C";
paths = (
{
closed = 1;
nodes = (
"355 0 LINE",
"355 1433 LINE",
"141 1433 LINE",
"141 0 LINE"
);
}
);
width = 496;
}
);
leftKerningGroup = H;
note = I;
rightKerningGroup = H;
unicode = 0049;
},
{
color = 1;
glyphname = J;
lastChange = "2019-12-28 20:28:15 +0000";
layers = (
{
anchors = (
{
name = bottom;
position = "{462, 0}";
},
{
name = top;
position = "{462, 1430}";
}
);
background = {
paths = (
{
closed = 1;
nodes = (
"829 1394 LINE",
"829 1430 LINE",
"203 1430 LINE",
"203 1394 LINE",
"411 1394 LINE",
"411 264 LINE SMOOTH",
"411 198 OFFCURVE",
"413 186 OFFCURVE",
"443 116 CURVE",
"461 76 LINE",
"469 58 OFFCURVE",
"473 40 OFFCURVE",
"473 22 CURVE SMOOTH",
"473 -56 OFFCURVE",
"415 -118 OFFCURVE",
"343 -118 CURVE SMOOTH",
"297 -118 OFFCURVE",
"247 -88 OFFCURVE",
"247 -60 CURVE SMOOTH",
"247 -54 OFFCURVE",
"251 -48 OFFCURVE",
"259 -46 CURVE SMOOTH",
"299 -32 OFFCURVE",
"299 -32 OFFCURVE",
"309 -24 CURVE",
"327 -6 OFFCURVE",
"339 22 OFFCURVE",
"339 48 CURVE SMOOTH",
"339 102 OFFCURVE",
"297 146 OFFCURVE",
"243 146 CURVE SMOOTH",
"179 146 OFFCURVE",
"133 94 OFFCURVE",
"133 24 CURVE SMOOTH",
"133 -80 OFFCURVE",
"223 -152 OFFCURVE",
"353 -152 CURVE SMOOTH",
"439 -152 OFFCURVE",
"509 -120 OFFCURVE",
"555 -60 CURVE SMOOTH",
"603 6 OFFCURVE",
"621 86 OFFCURVE",
"621 234 CURVE SMOOTH",
"621 1394 LINE"
);
}
);
};
layerId = "EA94BB3F-1054-4F03-AAB6-69C3B81B3CC3";
paths = (
{
closed = 1;
nodes = (
"142 -112 OFFCURVE",
"276 -152 OFFCURVE",
"372 -152 CURVE SMOOTH",
"581 -152 OFFCURVE",
"707 42 OFFCURVE",
"707 374 CURVE SMOOTH",
"707 1430 LINE",
"501 1430 LINE",
"501 336 LINE SMOOTH",
"501 -46 OFFCURVE",
"488 -98 OFFCURVE",
"393 -98 CURVE SMOOTH",
"265 -98 OFFCURVE",
"158 -5 OFFCURVE",
"77 134 CURVE",
"77 -24 LINE"
);
}
);
width = 873;
},
{
associatedMasterId = "EA94BB3F-1054-4F03-AAB6-69C3B81B3CC3";
background = {
paths = (
{
closed = 1;
nodes = (
"738 1394 LINE",
"738 1430 LINE",
"112 1430 LINE",
"112 1394 LINE",
"320 1394 LINE",
"320 264 LINE SMOOTH",
"320 198 OFFCURVE",
"322 186 OFFCURVE",
"352 116 CURVE",
"370 76 LINE",
"378 58 OFFCURVE",
"382 40 OFFCURVE",
"382 22 CURVE SMOOTH",
"382 -56 OFFCURVE",
"324 -118 OFFCURVE",
"252 -118 CURVE SMOOTH",
"206 -118 OFFCURVE",
"156 -88 OFFCURVE",
"156 -60 CURVE SMOOTH",
"156 -54 OFFCURVE",
"160 -48 OFFCURVE",
"168 -46 CURVE SMOOTH",
"208 -32 OFFCURVE",
"208 -32 OFFCURVE",
"218 -24 CURVE",
"236 -6 OFFCURVE",
"248 22 OFFCURVE",
"248 48 CURVE SMOOTH",
"248 102 OFFCURVE",
"206 146 OFFCURVE",
"152 146 CURVE SMOOTH",
"88 146 OFFCURVE",
"42 94 OFFCURVE",
"42 24 CURVE SMOOTH",
"42 -80 OFFCURVE",
"132 -152 OFFCURVE",
"262 -152 CURVE SMOOTH",
"348 -152 OFFCURVE",
"418 -120 OFFCURVE",
"464 -60 CURVE SMOOTH",
"512 6 OFFCURVE",
"530 86 OFFCURVE",
"530 234 CURVE SMOOTH",
"530 1394 LINE"
);
}
);
};
layerId = "5F3C60D3-57DE-4E92-8BCD-2FCE42A3C567";
name = guide;
paths = (
{
closed = 1;
nodes = (
"474 -152 OFFCURVE",
"616 -6 OFFCURVE",
"616 172 CURVE SMOOTH",
"616 346 OFFCURVE",
"474 492 OFFCURVE",
"296 492 CURVE SMOOTH",
"118 492 OFFCURVE",
"-24 346 OFFCURVE",
"-24 172 CURVE SMOOTH",
"-24 -6 OFFCURVE",
"118 -152 OFFCURVE",
"296 -152 CURVE SMOOTH"
);
}
);
width = 774;
},
{
anchors = (
{
name = bottom;
position = "{335, -4}";
},
{
name = top;
position = "{335, 1436}";
}
);
layerId = "1A84AFAC-8532-492C-A52A-D2ACD869B7F8";
paths = (
{
closed = 1;
nodes = (
"123 -130 OFFCURVE",
"196 -153 OFFCURVE",
"245 -153 CURVE SMOOTH",
"398 -153 OFFCURVE",
"460 -20 OFFCURVE",
"460 252 CURVE SMOOTH",
"460 1431 LINE",
"400 1431 LINE",
"400 164 LINE SMOOTH",
"400 -106 OFFCURVE",
"278 -118 OFFCURVE",
"246 -118 CURVE SMOOTH",
"180 -118 OFFCURVE",
"116 -67 OFFCURVE",
"70 7 CURVE",
"70 -57 LINE"
);
}
);
width = 634;
},
{
anchors = (
{
name = bottom;
position = "{526, 0}";
},
{
name = top;
position = "{526, 1430}";
}
);
layerId = "16E03120-9D89-4B3A-B1E3-633A6E865927";
paths = (
{
closed = 1;
nodes = (
"107 -90 OFFCURVE",
"280 -167 OFFCURVE",
"436 -167 CURVE SMOOTH",
"684 -167 OFFCURVE",
"836 27 OFFCURVE",
"836 374 CURVE SMOOTH",
"836 1445 LINE",
"500 1445 LINE",
"500 336 LINE SMOOTH",
"500 -15 OFFCURVE",
"461 -83 OFFCURVE",
"397 -83 CURVE SMOOTH",
"347 -83 OFFCURVE",
"207 -42 OFFCURVE",
"76 249 CURVE",
"76 -10 LINE"
);
}
);
width = 994;
},
{
anchors = (
{
name = bottom;
position = "{458, 0}";
},
{
name = top;
position = "{458, 1440}";
}
);
layerId = "5EAC5215-9D4A-4BA0-8B26-A551FA1A966A";
paths = (
{
closed = 1;
nodes = (
"62 -90 OFFCURVE",
"175 -167 OFFCURVE",
"391 -167 CURVE SMOOTH",
"639 -167 OFFCURVE",
"791 27 OFFCURVE",
"791 374 CURVE SMOOTH",
"791 1445 LINE",
"511 1445 LINE",
"511 336 LINE SMOOTH",
"511 -15 OFFCURVE",
"486 -133 OFFCURVE",
"352 -133 CURVE SMOOTH",
"232 -133 OFFCURVE",
"162 -42 OFFCURVE",
"91 139 CURVE",
"31 -10 LINE"
);
}
);
width = 948;
},
{
anchors = (
{
name = bottom;
position = "{391, 0}";
},
{
name = top;
position = "{451, 1435}";
}
);
background = {
paths = (
{
closed = 1;
nodes = (
"728 1394 LINE",
"728 1430 LINE",
"102 1430 LINE",
"102 1394 LINE",
"310 1394 LINE",
"310 264 LINE SMOOTH",
"310 198 OFFCURVE",
"312 186 OFFCURVE",
"342 116 CURVE",
"360 76 LINE",
"368 58 OFFCURVE",
"372 40 OFFCURVE",
"372 22 CURVE SMOOTH",
"372 -56 OFFCURVE",
"314 -118 OFFCURVE",
"242 -118 CURVE SMOOTH",
"196 -118 OFFCURVE",
"146 -88 OFFCURVE",
"146 -60 CURVE SMOOTH",
"146 -54 OFFCURVE",
"150 -48 OFFCURVE",
"158 -46 CURVE SMOOTH",
"198 -32 OFFCURVE",
"198 -32 OFFCURVE",
"208 -24 CURVE",
"226 -6 OFFCURVE",
"238 22 OFFCURVE",
"238 48 CURVE SMOOTH",
"238 102 OFFCURVE",
"196 146 OFFCURVE",
"142 146 CURVE SMOOTH",
"78 146 OFFCURVE",
"32 94 OFFCURVE",
"32 24 CURVE SMOOTH",
"32 -80 OFFCURVE",
"122 -152 OFFCURVE",
"252 -152 CURVE SMOOTH",
"338 -152 OFFCURVE",
"408 -120 OFFCURVE",
"454 -60 CURVE SMOOTH",
"502 6 OFFCURVE",
"520 86 OFFCURVE",
"520 234 CURVE SMOOTH",
"520 1394 LINE"
);
}
);
};
layerId = "B4536172-55B8-4884-A498-BDE07D5884DA";
paths = (
{
closed = 1;
nodes = (
"87 -110 OFFCURVE",
"164 -160 OFFCURVE",
"303 -160 CURVE SMOOTH",
"502 -160 OFFCURVE",
"633 4 OFFCURVE",
"633 313 CURVE SMOOTH",
"633 1438 LINE",
"450 1438 LINE",
"450 250 LINE SMOOTH",
"450 -61 OFFCURVE",
"372 -138 OFFCURVE",
"279 -138 CURVE SMOOTH",
"191 -138 OFFCURVE",
"123 -71 OFFCURVE",
"60 48 CURVE",
"30 -44 LINE"
);
}
);
width = 797;
},
{
associatedMasterId = "B4536172-55B8-4884-A498-BDE07D5884DA";
background = {
paths = (
{
closed = 1;
nodes = (
"738 1394 LINE",
"738 1430 LINE",
"112 1430 LINE",
"112 1394 LINE",
"320 1394 LINE",
"320 264 LINE SMOOTH",
"320 198 OFFCURVE",
"322 186 OFFCURVE",
"352 116 CURVE",
"370 76 LINE",
"378 58 OFFCURVE",
"382 40 OFFCURVE",
"382 22 CURVE SMOOTH",
"382 -56 OFFCURVE",
"324 -118 OFFCURVE",
"252 -118 CURVE SMOOTH",
"206 -118 OFFCURVE",
"156 -88 OFFCURVE",
"156 -60 CURVE SMOOTH",
"156 -54 OFFCURVE",
"160 -48 OFFCURVE",
"168 -46 CURVE SMOOTH",
"208 -32 OFFCURVE",
"208 -32 OFFCURVE",
"218 -24 CURVE",
"236 -6 OFFCURVE",
"248 22 OFFCURVE",
"248 48 CURVE SMOOTH",
"248 102 OFFCURVE",
"206 146 OFFCURVE",
"152 146 CURVE SMOOTH",
"88 146 OFFCURVE",
"42 94 OFFCURVE",
"42 24 CURVE SMOOTH",
"42 -80 OFFCURVE",
"132 -152 OFFCURVE",
"262 -152 CURVE SMOOTH",
"348 -152 OFFCURVE",
"418 -120 OFFCURVE",
"464 -60 CURVE SMOOTH",
"512 6 OFFCURVE",
"530 86 OFFCURVE",
"530 234 CURVE SMOOTH",
"530 1394 LINE"
);
}
);
};
layerId = "28EC0C5F-4258-45EF-A3A1-0990989DA5EC";
name = guide;
paths = (
{
closed = 1;
nodes = (
"474 -152 OFFCURVE",
"616 -6 OFFCURVE",
"616 172 CURVE SMOOTH",
"616 346 OFFCURVE",
"474 492 OFFCURVE",
"296 492 CURVE SMOOTH",
"118 492 OFFCURVE",
"-24 346 OFFCURVE",
"-24 172 CURVE SMOOTH",
"-24 -6 OFFCURVE",
"118 -152 OFFCURVE",
"296 -152 CURVE SMOOTH"
);
}
);
width = 774;
},
{
anchors = (
{
name = bottom;
position = "{325, 0}";
},
{
name = top;
position = "{445, 1430}";
}
);
layerId = "09CD4194-2486-478D-AB32-B0AA8D4EDA22";
paths = (
{
closed = 1;
nodes = (
"113 -130 OFFCURVE",
"153 -153 OFFCURVE",
"215 -153 CURVE SMOOTH",
"365 -153 OFFCURVE",
"476 -20 OFFCURVE",
"476 252 CURVE SMOOTH",
"476 1431 LINE",
"390 1431 LINE",
"390 164 LINE SMOOTH",
"390 -106 OFFCURVE",
"258 -143 OFFCURVE",
"206 -143 CURVE SMOOTH",
"150 -143 OFFCURVE",
"85 -100 OFFCURVE",
"30 -43 CURVE",
"30 -77 LINE"
);
}
);
width = 645;
},
{
anchors = (
{
name = bottom;
position = "{587, 50}";
},
{
name = top;
position = "{587, 1430}";
}
);
background = {
anchors = (
{
name = bottom;
position = "{587, 0}";
},
{
name = top;
position = "{587, 1430}";
}
);
paths = (
{
closed = 1;
nodes = (
"183 -80 OFFCURVE",
"349 -155 OFFCURVE",
"527 -155 CURVE SMOOTH",
"795 -155 OFFCURVE",
"959 75 OFFCURVE",
"959 442 CURVE SMOOTH",
"959 1437 LINE",
"573 1437 LINE",
"573 390 LINE SMOOTH",
"573 106 OFFCURVE",
"562 56 OFFCURVE",
"481 56 CURVE SMOOTH",
"348 56 OFFCURVE",
"219 207 OFFCURVE",
"135 444 CURVE",
"135 49 LINE"
);
}
);
};
layerId = "338DAB22-2F62-42B0-AF6A-AC80FC784DAE";
paths = (
{
closed = 1;
nodes = (
"183 -80 OFFCURVE",
"365 -155 OFFCURVE",
"527 -155 CURVE SMOOTH",
"811 -155 OFFCURVE",
"959 75 OFFCURVE",
"959 442 CURVE SMOOTH",
"959 1437 LINE",
"573 1437 LINE",
"573 390 LINE SMOOTH",
"573 106 OFFCURVE",
"589 56 OFFCURVE",
"481 56 CURVE SMOOTH",
"335 56 OFFCURVE",
"199 147 OFFCURVE",
"105 224 CURVE",
"105 -1 LINE"
);
}
);
width = 1091;
},
{
anchors = (
{
name = bottom;
position = "{344, -20}";
},
{
name = top;
position = "{344, 1430}";
}
);
background = {
anchors = (
{
name = bottom;
position = "{344, 0}";
},
{
name = top;
position = "{344, 1430}";
}
);
paths = (
{
closed = 1;
nodes = (
"161 -112 OFFCURVE",
"221 -147 OFFCURVE",
"305 -147 CURVE SMOOTH",
"451 -147 OFFCURVE",
"545 -41 OFFCURVE",
"545 151 CURVE SMOOTH",
"545 1431 LINE",
"461 1431 LINE",
"461 216 LINE SMOOTH",
"461 4 OFFCURVE",
"412 -66 OFFCURVE",
"310 -66 CURVE SMOOTH",
"222 -66 OFFCURVE",
"151 -14 OFFCURVE",
"107 14 CURVE",
"107 -79 LINE"
);
}
);
};
layerId = "B71E0DD6-B640-4F5E-B48D-BF5E04BC2E71";
paths = (
{
closed = 1;
nodes = (
"161 -112 OFFCURVE",
"221 -147 OFFCURVE",
"305 -147 CURVE SMOOTH",
"451 -147 OFFCURVE",
"545 -41 OFFCURVE",
"545 151 CURVE SMOOTH",
"545 1431 LINE",
"461 1431 LINE",
"461 216 LINE SMOOTH",
"461 4 OFFCURVE",
"412 -66 OFFCURVE",
"310 -66 CURVE SMOOTH",
"222 -66 OFFCURVE",
"151 -14 OFFCURVE",
"107 14 CURVE",
"107 -79 LINE"
);
}
);
width = 687;
},
{
anchors = (
{
name = bottom;
position = "{448, 10}";
},
{
name = top;
position = "{448, 1430}";
}
);
layerId = "50B3BD20-6B7E-4A37-88B3-070541B8FD4C";
paths = (
{
closed = 1;
nodes = (
"170 -98 OFFCURVE",
"282 -150 OFFCURVE",
"400 -150 CURVE SMOOTH",
"605 -150 OFFCURVE",
"723 9 OFFCURVE",
"723 276 CURVE SMOOTH",
"723 1434 LINE",
"509 1434 LINE",
"509 291 LINE SMOOTH",
"509 48 OFFCURVE",
"488 -14 OFFCURVE",
"383 -14 CURVE SMOOTH",
"270 -14 OFFCURVE",
"171 55 OFFCURVE",
"106 104 CURVE",
"106 -45 LINE"
);
}
);
width = 860;
}
);
leftKerningGroup = J;
note = J;
rightKerningGroup = J;
unicode = 004A;
},
{
color = 1;
glyphname = K;
lastChange = "2019-12-28 20:28:14 +0000";
layers = (
{
anchors = (
{
name = bottom;
position = "{690, 0}";
},
{
name = top;
position = "{690, 1430}";
}
);
background = {
paths = (
{
closed = 1;
nodes = (
"637 852 LINE",
"949 1132 LINE SMOOTH",
"1053 1228 OFFCURVE",
"1173 1320 OFFCURVE",
"1251 1364 CURVE SMOOTH",
"1289 1384 OFFCURVE",
"1325 1394 OFFCURVE",
"1383 1394 CURVE SMOOTH",
"1497 1394 LINE",
"1497 1430 LINE",
"887 1430 LINE",
"887 1394 LINE",
"995 1394 LINE SMOOTH",
"1073 1394 OFFCURVE",
"1097 1384 OFFCURVE",
"1097 1354 CURVE SMOOTH",
"1097 1328 OFFCURVE",
"1057 1278 OFFCURVE",
"989 1216 CURVE SMOOTH",
"455 736 LINE",
"455 1394 LINE",
"669 1394 LINE",
"669 1430 LINE",
"39 1430 LINE",
"39 1394 LINE",
"247 1394 LINE",
"247 36 LINE",
"39 36 LINE",
"39 0 LINE",
"681 0 LINE",
"681 36 LINE",
"455 36 LINE",
"455 688 LINE",
"481 712 LINE",
"1039 36 LINE",
"837 36 LINE",
"837 0 LINE",
"1533 0 LINE",
"1533 36 LINE",
"1327 36 LINE"
);
}
);
};
layerId = "EA94BB3F-1054-4F03-AAB6-69C3B81B3CC3";
paths = (
{
closed = 1;
nodes = (
"381 0 LINE",
"381 1430 LINE",
"175 1430 LINE",
"175 0 LINE"
);
},
{
closed = 1;
nodes = (
"1117 1430 LINE",
"1069 1430 LINE",
"321 539 LINE",
"322 481 LINE"
);
},
{
closed = 1;
nodes = (
"1349 0 LINE",
"625 863 LINE",
"489 703 LINE",
"1077 0 LINE"
);
}
);
width = 1416;
},
{
anchors = (
{
name = bottom;
position = "{617, 0}";
},
{
name = top;
position = "{617, 1430}";
}
);
layerId = "1A84AFAC-8532-492C-A52A-D2ACD869B7F8";
paths = (
{
closed = 1;
nodes = (
"235 0 LINE",
"235 1430 LINE",
"175 1430 LINE",
"175 0 LINE"
);
},
{
closed = 1;
nodes = (
"1101 1430 LINE",
"1070 1430 LINE",
"216 410 LINE",
"204 361 LINE"
);
},
{
closed = 1;
nodes = (
"1170 0 LINE",
"528 766 LINE",
"494 727 LINE",
"1097 0 LINE"
);
}
);
width = 1239;
},
{
anchors = (
{
name = bottom;
position = "{739, 0}";
},
{
name = top;
position = "{739, 1430}";
}
);
guideLines = (
{
angle = 50.0776;
position = "{963, 1108}";
}
);
layerId = "16E03120-9D89-4B3A-B1E3-633A6E865927";
paths = (
{
closed = 1;
nodes = (
"504 0 LINE",
"504 1445 LINE",
"168 1445 LINE",
"168 0 LINE"
);
},
{
closed = 1;
nodes = (
"1285 1445 LINE",
"1135 1445 LINE",
"329 549 LINE",
"418 483 LINE"
);
},
{
closed = 1;
nodes = (
"1417 0 LINE",
"683 932 LINE",
"490 702 LINE",
"1040 0 LINE"
);
}
);
width = 1474;
},
{
anchors = (
{
name = bottom;
position = "{734, 0}";
},
{
name = top;
position = "{734, 1440}";
}
);
guideLines = (
{
angle = 50.0776;
position = "{964, 1108}";
}
);
layerId = "5EAC5215-9D4A-4BA0-8B26-A551FA1A966A";
paths = (
{
closed = 1;
nodes = (
"449 0 LINE",
"449 1445 LINE",
"169 1445 LINE",
"169 0 LINE"
);
},
{
closed = 1;
nodes = (
"1206 1445 LINE",
"1103 1445 LINE",
"350 492 LINE",
"390 412 LINE"
);
},
{
closed = 1;
nodes = (
"1395 0 LINE",
"669 835 LINE",
"515 624 LINE",
"1058 0 LINE"
);
}
);
width = 1418;
},
{
anchors = (
{
name = bottom;
position = "{684, 0}";
},
{
name = top;
position = "{684, 1435}";
}
);
background = {
paths = (
{
closed = 1;
nodes = (
"604 852 LINE",
"916 1132 LINE SMOOTH",
"1020 1228 OFFCURVE",
"1140 1320 OFFCURVE",
"1218 1364 CURVE SMOOTH",
"1256 1384 OFFCURVE",
"1292 1394 OFFCURVE",
"1350 1394 CURVE SMOOTH",
"1464 1394 LINE",
"1464 1430 LINE",
"854 1430 LINE",
"854 1394 LINE",
"962 1394 LINE SMOOTH",
"1040 1394 OFFCURVE",
"1064 1384 OFFCURVE",
"1064 1354 CURVE SMOOTH",
"1064 1328 OFFCURVE",
"1024 1278 OFFCURVE",
"956 1216 CURVE SMOOTH",
"422 736 LINE",
"422 1394 LINE",
"636 1394 LINE",
"636 1430 LINE",
"6 1430 LINE",
"6 1394 LINE",
"214 1394 LINE",
"214 36 LINE",
"6 36 LINE",
"6 0 LINE",
"648 0 LINE",
"648 36 LINE",
"422 36 LINE",
"422 688 LINE",
"448 712 LINE",
"1006 36 LINE",
"804 36 LINE",
"804 0 LINE",
"1500 0 LINE",
"1500 36 LINE",
"1294 36 LINE"
);
}
);
};
layerId = "B4536172-55B8-4884-A498-BDE07D5884DA";
paths = (
{
closed = 1;
nodes = (
"355 0 LINE",
"355 1438 LINE",
"172 1438 LINE",
"172 0 LINE"
);
},
{
closed = 1;
nodes = (
"1212 1438 LINE",
"1150 1438 LINE",
"296 451 LINE",
"305 387 LINE"
);
},
{
closed = 1;
nodes = (
"1346 0 LINE",
"641 815 LINE",
"541 685 LINE",
"1131 0 LINE"
);
}
);
width = 1374;
},
{
anchors = (
{
name = bottom;
position = "{632, 0}";
},
{
name = top;
position = "{632, 1430}";
}
);
layerId = "09CD4194-2486-478D-AB32-B0AA8D4EDA22";
paths = (
{
closed = 1;
nodes = (
"260 0 LINE",
"260 1430 LINE",
"174 1430 LINE",
"174 0 LINE"
);
},
{
closed = 1;
nodes = (
"1216 1430 LINE",
"1195 1430 LINE",
"241 410 LINE",
"219 361 LINE"
);
},
{
closed = 1;
nodes = (
"1295 0 LINE",
"611 794 LINE",
"565 745 LINE",
"1202 0 LINE"
);
}
);
width = 1331;
},
{
anchors = (
{
name = bottom;
position = "{744, 50}";
},
{
name = top;
position = "{744, 1430}";
}
);
background = {
anchors = (
{
name = bottom;
position = "{744, 0}";
},
{
name = top;
position = "{744, 1430}";
}
);
paths = (
{
closed = 1;
nodes = (
"525 0 LINE",
"525 1437 LINE",
"138 1437 LINE",
"138 0 LINE"
);
},
{
closed = 1;
nodes = (
"1443 1437 LINE",
"1163 1437 LINE",
"242 536 LINE",
"416 440 LINE"
);
},
{
closed = 1;
nodes = (
"1552 0 LINE",
"689 987 LINE",
"436 688 LINE",
"1058 0 LINE"
);
}
);
};
guideLines = (
{
angle = 50.0776;
position = "{896, 1108}";
}
);
layerId = "338DAB22-2F62-42B0-AF6A-AC80FC784DAE";
paths = (
{
closed = 1;
nodes = (
"525 0 LINE",
"525 1437 LINE",
"138 1437 LINE",
"138 0 LINE"
);
},
{
closed = 1;
nodes = (
"1443 1437 LINE",
"1123 1437 LINE",
"302 536 LINE",
"516 440 LINE"
);
},
{
closed = 1;
nodes = (
"1552 0 LINE",
"867 909 LINE",
"596 698 LINE",
"1118 0 LINE"
);
}
);
width = 1651;
},
{
anchors = (
{
name = bottom;
position = "{658, -20}";
},
{
name = top;
position = "{658, 1430}";
}
);
background = {
anchors = (
{
name = bottom;
position = "{658, 0}";
},
{
name = top;
position = "{658, 1430}";
}
);
paths = (
{
closed = 1;
nodes = (
"226 0 LINE",
"226 1430 LINE",
"143 1430 LINE",
"143 0 LINE"
);
},
{
closed = 1;
nodes = (
"1146 1430 LINE",
"1054 1430 LINE",
"204 585 LINE",
"203 492 LINE"
);
},
{
closed = 1;
nodes = (
"1211 0 LINE",
"496 823 LINE",
"431 745 LINE",
"1078 0 LINE"
);
}
);
};
layerId = "B71E0DD6-B640-4F5E-B48D-BF5E04BC2E71";
paths = (
{
closed = 1;
nodes = (
"226 0 LINE",
"226 1430 LINE",
"143 1430 LINE",
"143 0 LINE"
);
},
{
closed = 1;
nodes = (
"1146 1430 LINE",
"1054 1430 LINE",
"204 585 LINE",
"203 492 LINE"
);
},
{
closed = 1;
nodes = (
"1211 0 LINE",
"496 823 LINE",
"431 745 LINE",
"1078 0 LINE"
);
}
);
width = 1315;
},
{
anchors = (
{
name = bottom;
position = "{695, 10}";
},
{
name = top;
position = "{695, 1430}";
}
);
layerId = "50B3BD20-6B7E-4A37-88B3-070541B8FD4C";
paths = (
{
closed = 1;
nodes = (
"355 0 LINE",
"355 1433 LINE",
"141 1433 LINE",
"141 0 LINE"
);
},
{
closed = 1;
nodes = (
"1274 1433 LINE",
"1084 1433 LINE",
"246 564 LINE",
"338 470 LINE"
);
},
{
closed = 1;
nodes = (
"1358 0 LINE",
"655 860 LINE",
"502 725 LINE",
"1095 0 LINE"
);
}
);
width = 1460;
}
);
leftKerningGroup = H;
note = K;
rightKerningGroup = K;
unicode = 004B;
},
{
color = 1;
glyphname = L;
lastChange = "2019-12-28 20:28:15 +0000";
layers = (
{
anchors = (
{
name = bottom;
position = "{559, 0}";
},
{
name = center;
position = "{289, 716}";
},
{
name = dot;
position = "{733, 734}";
},
{
name = ogonek;
position = "{926, 10}";
},
{
name = top;
position = "{379, 1430}";
},
{
name = topleft;
position = "{12, 1430}";
},
{
name = topright;
position = "{827, 1430}";
}
);
background = {
paths = (
{
closed = 1;
nodes = (
"1319 440 LINE",
"1285 440 LINE",
"1285 354 LINE SMOOTH",
"1285 210 OFFCURVE",
"1243 126 OFFCURVE",
"1149 82 CURVE SMOOTH",
"1077 48 OFFCURVE",
"953 34 OFFCURVE",
"725 34 CURVE SMOOTH",
"525 34 LINE",
"525 1300 LINE",
"747 1300 LINE",
"747 1334 LINE",
"137 1334 LINE",
"137 1300 LINE",
"331 1300 LINE",
"331 34 LINE",
"137 34 LINE",
"137 0 LINE",
"1319 0 LINE"
);
}
);
};
layerId = "EA94BB3F-1054-4F03-AAB6-69C3B81B3CC3";
paths = (
{
closed = 1;
nodes = (
"965 0 LINE",
"965 36 LINE",
"288 36 LINE",
"381 13 LINE",
"381 1430 LINE",
"175 1430 LINE",
"175 0 LINE"
);
}
);
width = 1033;
},
{
anchors = (
{
name = bottom;
position = "{433, 0}";
},
{
name = center;
position = "{203, 715}";
},
{
name = dot;
position = "{545, 695}";
},
{
name = ogonek;
position = "{771, 10}";
},
{
name = top;
position = "{283, 1430}";
},
{
name = topleft;
position = "{17, 1430}";
},
{
name = topright;
position = "{731, 1430}";
}
);
layerId = "1A84AFAC-8532-492C-A52A-D2ACD869B7F8";
paths = (
{
closed = 1;
nodes = (
"799 0 LINE",
"799 26 LINE",
"207 26 LINE",
"235 14 LINE",
"235 1430 LINE",
"175 1430 LINE",
"175 0 LINE"
);
}
);
width = 866;
},
{
anchors = (
{
name = bottom;
position = "{591, 0}";
},
{
name = center;
position = "{341, 715}";
},
{
name = dot;
position = "{895, 744}";
},
{
name = ogonek;
position = "{1064, 10}";
},
{
name = top;
position = "{411, 1430}";
},
{
name = topleft;
position = "{6, 1430}";
},
{
name = topright;
position = "{840, 1430}";
}
);
layerId = "16E03120-9D89-4B3A-B1E3-633A6E865927";
paths = (
{
closed = 1;
nodes = (
"1118 0 LINE",
"1118 51 LINE",
"211 51 LINE",
"504 24 LINE",
"504 1445 LINE",
"168 1445 LINE",
"168 0 LINE"
);
}
);
width = 1177;
},
{
anchors = (
{
name = bottom;
position = "{535, 0}";
},
{
name = center;
position = "{295, 716}";
},
{
name = dot;
position = "{804, 724}";
},
{
name = ogonek;
position = "{1076, 10}";
},
{
name = top;
position = "{355, 1455}";
},
{
name = topleft;
position = "{8, 1455}";
},
{
name = topright;
position = "{913, 1455}";
}
);
background = {
paths = (
{
closed = 1;
nodes = (
"1006 -15 LINE",
"1006 51 LINE",
"129 51 LINE",
"422 9 LINE",
"422 1445 LINE",
"86 1445 LINE",
"86 -15 LINE"
);
}
);
};
layerId = "5EAC5215-9D4A-4BA0-8B26-A551FA1A966A";
paths = (
{
closed = 1;
nodes = (
"1133 0 LINE",
"1133 26 LINE",
"248 26 LINE",
"429 13 LINE",
"429 1445 LINE",
"169 1445 LINE",
"169 0 LINE"
);
}
);
width = 1158;
},
{
anchors = (
{
name = bottom;
position = "{520, 0}";
},
{
name = center;
position = "{255, 716}";
},
{
name = dot;
position = "{711, 719}";
},
{
name = ogonek;
position = "{991, 10}";
},
{
name = top;
position = "{331, 1443}";
},
{
name = topleft;
position = "{9, 1443}";
},
{
name = topright;
position = "{883, 1443}";
}
);
background = {
paths = (
{
closed = 1;
nodes = (
"1286 440 LINE",
"1252 440 LINE",
"1252 354 LINE SMOOTH",
"1252 210 OFFCURVE",
"1210 126 OFFCURVE",
"1116 82 CURVE SMOOTH",
"1044 48 OFFCURVE",
"920 34 OFFCURVE",
"692 34 CURVE SMOOTH",
"492 34 LINE",
"492 1300 LINE",
"714 1300 LINE",
"714 1334 LINE",
"104 1334 LINE",
"104 1300 LINE",
"298 1300 LINE",
"298 34 LINE",
"104 34 LINE",
"104 0 LINE",
"1286 0 LINE"
);
}
);
};
layerId = "B4536172-55B8-4884-A498-BDE07D5884DA";
paths = (
{
closed = 1;
nodes = (
"1039 0 LINE",
"1039 18 LINE",
"240 18 LINE",
"345 9 LINE",
"345 1438 LINE",
"172 1438 LINE",
"172 0 LINE"
);
}
);
width = 1066;
},
{
anchors = (
{
name = bottom;
position = "{505, 0}";
},
{
name = center;
position = "{214, 715}";
},
{
name = dot;
position = "{618, 714}";
},
{
name = ogonek;
position = "{905, 10}";
},
{
name = top;
position = "{306, 1430}";
},
{
name = topleft;
position = "{11, 1430}";
},
{
name = topright;
position = "{853, 1430}";
}
);
layerId = "09CD4194-2486-478D-AB32-B0AA8D4EDA22";
paths = (
{
closed = 1;
nodes = (
"944 0 LINE",
"944 10 LINE",
"232 10 LINE",
"260 4 LINE",
"260 1430 LINE",
"174 1430 LINE",
"174 0 LINE"
);
}
);
width = 973;
},
{
anchors = (
{
name = bottom;
position = "{665, 50}";
},
{
name = center;
position = "{315, 715}";
},
{
name = dot;
position = "{944, 813}";
},
{
name = ogonek;
position = "{1248, 10}";
},
{
name = top;
position = "{485, 1430}";
},
{
name = topleft;
position = "{-52, 1430}";
},
{
name = topright;
position = "{937, 1430}";
}
);
background = {
anchors = (
{
name = bottom;
position = "{591, 0}";
},
{
name = center;
position = "{591, 715}";
},
{
name = dot;
position = "{591, 0}";
},
{
name = ogonek;
position = "{1083, 10}";
},
{
name = top;
position = "{591, 1430}";
},
{
name = topleft;
position = "{-15, 1430}";
},
{
name = topright;
position = "{1155, 1430}";
}
);
paths = (
{
closed = 1;
nodes = (
"1157 0 LINE",
"1157 171 LINE",
"198 171 LINE",
"528 23 LINE",
"528 1436 LINE",
"138 1436 LINE",
"138 0 LINE"
);
}
);
};
layerId = "338DAB22-2F62-42B0-AF6A-AC80FC784DAE";
paths = (
{
closed = 1;
nodes = (
"1227 0 LINE",
"1227 171 LINE",
"198 171 LINE",
"528 23 LINE",
"528 1436 LINE",
"138 1436 LINE",
"138 0 LINE"
);
}
);
width = 1330;
},
{
anchors = (
{
name = bottom;
position = "{508, -20}";
},
{
name = center;
position = "{178, 715}";
},
{
name = dot;
position = "{637, 775}";
},
{
name = ogonek;
position = "{957, 10}";
},
{
name = top;
position = "{308, 1430}";
},
{
name = topleft;
position = "{-44, 1430}";
},
{
name = topright;
position = "{721, 1430}";
}
);
background = {
anchors = (
{
name = bottom;
position = "{508, 0}";
},
{
name = center;
position = "{508, 715}";
},
{
name = dot;
position = "{508, 0}";
},
{
name = ogonek;
position = "{957, 10}";
},
{
name = top;
position = "{508, 1430}";
},
{
name = topleft;
position = "{-44, 1430}";
},
{
name = topright;
position = "{1021, 1430}";
}
);
paths = (
{
closed = 1;
nodes = (
"910 0 LINE",
"910 77 LINE",
"181 77 LINE",
"231 15 LINE",
"231 1430 LINE",
"143 1430 LINE",
"143 0 LINE"
);
}
);
};
layerId = "B71E0DD6-B640-4F5E-B48D-BF5E04BC2E71";
paths = (
{
closed = 1;
nodes = (
"910 0 LINE",
"910 77 LINE",
"181 77 LINE",
"231 15 LINE",
"231 1430 LINE",
"143 1430 LINE",
"143 0 LINE"
);
}
);
width = 1016;
},
{
anchors = (
{
name = bottom;
position = "{575, 10}";
},
{
name = center;
position = "{237, 715}";
},
{
name = dot;
position = "{769, 791}";
},
{
name = ogonek;
position = "{1082, 10}";
},
{
name = top;
position = "{384, 1430}";
},
{
name = topleft;
position = "{-47, 1430}";
},
{
name = topright;
position = "{814, 1430}";
}
);
layerId = "50B3BD20-6B7E-4A37-88B3-070541B8FD4C";
paths = (
{
closed = 1;
nodes = (
"1046 0 LINE",
"1046 117 LINE",
"188 117 LINE",
"359 18 LINE",
"359 1433 LINE",
"141 1433 LINE",
"141 0 LINE"
);
}
);
width = 1151;
}
);
leftKerningGroup = H;
note = L;
rightKerningGroup = L;
unicode = 004C;
},
{
color = 8;
glyphname = Lslash;
lastChange = "2019-12-28 20:28:17 +0000";
layers = (
{
background = {
paths = (
{
closed = 1;
nodes = (
"276 626 LINE",
"90 482 LINE",
"90 430 LINE",
"276 572 LINE",
"276 34 LINE",
"82 34 LINE",
"82 0 LINE",
"1264 0 LINE",
"1264 440 LINE",
"1230 440 LINE",
"1230 354 LINE SMOOTH",
"1230 210 OFFCURVE",
"1188 126 OFFCURVE",
"1094 82 CURVE SMOOTH",
"1022 48 OFFCURVE",
"900 34 OFFCURVE",
"670 34 CURVE SMOOTH",
"470 34 LINE",
"470 702 LINE",
"774 936 LINE",
"774 992 LINE",
"470 758 LINE",
"470 1300 LINE",
"692 1300 LINE",
"692 1334 LINE",
"82 1334 LINE",
"82 1300 LINE",
"276 1300 LINE"
);
}
);
};
components = (
{
name = L;
},
{
name = slashshortcomb.case;
transform = "{1, 0, 0, 1, -59, 6}";
}
);
layerId = "EA94BB3F-1054-4F03-AAB6-69C3B81B3CC3";
width = 1033;
},
{
components = (
{
name = L;
},
{
name = slashshortcomb.case;
transform = "{1, 0, 0, 1, -65, 5}";
}
);
layerId = "1A84AFAC-8532-492C-A52A-D2ACD869B7F8";
width = 866;
},
{
components = (
{
name = L;
},
{
name = slashshortcomb.case;
transform = "{1, 0, 0, 1, -65, 5}";
}
);
layerId = "16E03120-9D89-4B3A-B1E3-633A6E865927";
width = 1177;
},
{
components = (
{
name = L;
},
{
name = slashshortcomb.case;
transform = "{1, 0, 0, 1, -94, -20}";
}
);
layerId = "5EAC5215-9D4A-4BA0-8B26-A551FA1A966A";
width = 1158;
},
{
background = {
paths = (
{
closed = 1;
nodes = (
"276 626 LINE",
"90 482 LINE",
"90 430 LINE",
"276 572 LINE",
"276 34 LINE",
"82 34 LINE",
"82 0 LINE",
"1264 0 LINE",
"1264 440 LINE",
"1230 440 LINE",
"1230 354 LINE SMOOTH",
"1230 210 OFFCURVE",
"1188 126 OFFCURVE",
"1094 82 CURVE SMOOTH",
"1022 48 OFFCURVE",
"900 34 OFFCURVE",
"670 34 CURVE SMOOTH",
"470 34 LINE",
"470 702 LINE",
"774 936 LINE",
"774 992 LINE",
"470 758 LINE",
"470 1300 LINE",
"692 1300 LINE",
"692 1334 LINE",
"82 1334 LINE",
"82 1300 LINE",
"276 1300 LINE"
);
}
);
};
components = (
{
name = L;
},
{
name = slashshortcomb.case;
transform = "{1, 0, 0, 1, -74, -5}";
}
);
layerId = "B4536172-55B8-4884-A498-BDE07D5884DA";
width = 1066;
},
{
components = (
{
name = L;
},
{
name = slashshortcomb.case;
transform = "{1, 0, 0, 1, -49, -4}";
}
);
layerId = "09CD4194-2486-478D-AB32-B0AA8D4EDA22";
width = 973;
},
{
background = {
components = (
{
name = L;
},
{
name = slashshortcomb;
transform = "{1, 0, 0, 1, 169, 5}";
}
);
};
components = (
{
name = L;
},
{
name = slashshortcomb.case;
transform = "{1, 0, 0, 1, -102, 6}";
}
);
layerId = "338DAB22-2F62-42B0-AF6A-AC80FC784DAE";
width = 1330;
},
{
background = {
components = (
{
name = L;
},
{
name = slashshortcomb;
transform = "{1, 0, 0, 1, 246, 5}";
}
);
};
components = (
{
name = L;
},
{
name = slashshortcomb.case;
transform = "{1, 0, 0, 1, -109, -21}";
}
);
layerId = "B71E0DD6-B640-4F5E-B48D-BF5E04BC2E71";
width = 1016;
},
{
components = (
{
name = L;
},
{
name = slashshortcomb.case;
transform = "{1, 0, 0, 1, -106, -9}";
}
);
layerId = "50B3BD20-6B7E-4A37-88B3-070541B8FD4C";
width = 1151;
}
);
leftKerningGroup = H;
note = Lslash;
rightKerningGroup = L;
unicode = 0141;
},
{
color = 1;
glyphname = M;
lastChange = "2019-12-28 20:28:15 +0000";
layers = (
{
anchors = (
{
name = bottom;
position = "{832, 0}";
},
{
name = top;
position = "{832, 1430}";
}
);
background = {
paths = (
{
closed = 1;
nodes = (
"211 0 LINE",
"211 1304 LINE",
"741 58 LINE",
"1283 1340 LINE",
"1283 0 LINE",
"1489 0 LINE",
"1489 1430 LINE",
"1283 1430 LINE",
"831 368 LINE",
"381 1430 LINE",
"175 1430 LINE",
"175 0 LINE"
);
}
);
};
layerId = "EA94BB3F-1054-4F03-AAB6-69C3B81B3CC3";
paths = (
{
closed = 1;
nodes = (
"211 0 LINE",
"211 1357 LINE",
"190 1353 LINE",
"741 58 LINE",
"1304 1390 LINE",
"1283 1393 LINE",
"1283 0 LINE",
"1489 0 LINE",
"1489 1430 LINE",
"1283 1430 LINE",
"819 340 LINE",
"846 333 LINE",
"381 1430 LINE",
"175 1430 LINE",
"175 0 LINE"
);
}
);
width = 1664;
},
{
anchors = (
{
name = bottom;
position = "{777, 0}";
},
{
name = top;
position = "{777, 1430}";
}
);
guideLines = (
{
angle = 112.9199;
position = "{398, 856}";
},
{
angle = 247.1086;
position = "{996, 711}";
},
{
angle = 111.5953;
position = "{542, 730}";
},
{
angle = 248.2128;
position = "{1095, 730}";
},
{
angle = 68.3561;
position = "{1055, 689}";
},
{
angle = -67.1343;
position = "{478, 712}";
}
);
layerId = "1A84AFAC-8532-492C-A52A-D2ACD869B7F8";
paths = (
{
closed = 1;
nodes = (
"201 0 LINE",
"201 1417 LINE",
"183 1413 LINE",
"780 76 LINE",
"1336 1404 LINE",
"1319 1407 LINE",
"1319 0 LINE",
"1379 0 LINE",
"1379 1430 LINE",
"1319 1430 LINE",
"787 168 LINE",
"814 186 LINE",
"259 1430 LINE",
"175 1430 LINE",
"175 0 LINE"
);
}
);
width = 1554;
},
{
anchors = (
{
name = bottom;
position = "{926, 0}";
},
{
name = top;
position = "{926, 1430}";
}
);
layerId = "16E03120-9D89-4B3A-B1E3-633A6E865927";
paths = (
{
closed = 1;
nodes = (
"252 0 LINE",
"252 1386 LINE",
"212 1204 LINE",
"841 1 LINE",
"1479 1298 LINE",
"1358 1146 LINE",
"1358 0 LINE",
"1684 0 LINE",
"1684 1445 LINE",
"1461 1445 LINE",
"894 289 LINE",
"964 369 LINE",
"401 1445 LINE",
"168 1445 LINE",
"168 0 LINE"
);
}
);
width = 1852;
},
{
anchors = (
{
name = bottom;
position = "{891, 0}";
},
{
name = top;
position = "{891, 1440}";
}
);
layerId = "5EAC5215-9D4A-4BA0-8B26-A551FA1A966A";
paths = (
{
closed = 1;
nodes = (
"231 0 LINE",
"231 1386 LINE",
"211 1346 LINE",
"810 31 LINE",
"1418 1398 LINE",
"1277 1418 LINE",
"1277 0 LINE",
"1613 0 LINE",
"1613 1445 LINE",
"1286 1445 LINE",
"815 338 LINE",
"936 408 LINE",
"496 1445 LINE",
"169 1445 LINE",
"169 0 LINE"
);
}
);
width = 1782;
},
{
anchors = (
{
name = bottom;
position = "{885, 0}";
},
{
name = top;
position = "{885, 1435}";
}
);
background = {
paths = (
{
closed = 1;
nodes = (
"177 0 LINE",
"177 1304 LINE",
"707 58 LINE",
"1249 1340 LINE",
"1249 0 LINE",
"1455 0 LINE",
"1455 1430 LINE",
"1249 1430 LINE",
"797 368 LINE",
"347 1430 LINE",
"141 1430 LINE",
"141 0 LINE"
);
}
);
};
layerId = "B4536172-55B8-4884-A498-BDE07D5884DA";
paths = (
{
closed = 1;
nodes = (
"208 0 LINE",
"208 1402 LINE",
"197 1380 LINE",
"840 14 LINE",
"1463 1401 LINE",
"1384 1403 LINE",
"1384 0 LINE",
"1598 0 LINE",
"1598 1438 LINE",
"1391 1438 LINE",
"861 235 LINE",
"928 278 LINE",
"397 1438 LINE",
"172 1438 LINE",
"172 0 LINE"
);
}
);
width = 1770;
},
{
anchors = (
{
name = bottom;
position = "{877, 0}";
},
{
name = top;
position = "{877, 1430}";
}
);
guideLines = (
{
angle = 112.9199;
position = "{534, 856}";
},
{
angle = 247.1086;
position = "{1132, 711}";
},
{
angle = 111.5953;
position = "{678, 730}";
},
{
angle = 248.2128;
position = "{1231, 730}";
},
{
angle = 68.3561;
position = "{1191, 689}";
},
{
angle = -67.1343;
position = "{614, 712}";
}
);
layerId = "09CD4194-2486-478D-AB32-B0AA8D4EDA22";
paths = (
{
closed = 1;
nodes = (
"183 0 LINE",
"183 1417 LINE",
"181 1413 LINE",
"868 -3 LINE",
"1506 1404 LINE",
"1488 1387 LINE",
"1488 0 LINE",
"1581 0 LINE",
"1581 1430 LINE",
"1494 1430 LINE",
"905 132 LINE",
"917 148 LINE",
"295 1430 LINE",
"173 1430 LINE",
"173 0 LINE"
);
}
);
width = 1754;
},
{
anchors = (
{
name = bottom;
position = "{942, 50}";
},
{
name = top;
position = "{942, 1430}";
}
);
background = {
anchors = (
{
name = bottom;
position = "{982, 0}";
},
{
name = top;
position = "{982, 1430}";
}
);
paths = (
{
closed = 1;
nodes = (
"298 0 LINE",
"298 1473 LINE",
"218 1079 LINE",
"894 -9 LINE",
"1570 1173 LINE",
"1545 1245 LINE",
"1409 1060 LINE",
"1409 0 LINE",
"1785 0 LINE",
"1785 1437 LINE",
"1544 1437 LINE",
"726 2 LINE",
"1062 422 LINE",
"428 1437 LINE",
"178 1437 LINE",
"178 0 LINE"
);
}
);
};
layerId = "338DAB22-2F62-42B0-AF6A-AC80FC784DAE";
paths = (
{
closed = 1;
nodes = (
"438 0 LINE",
"438 1133 LINE",
"248 1079 LINE",
"904 -9 LINE",
"1530 1173 LINE",
"1369 1060 LINE",
"1369 0 LINE",
"1745 0 LINE",
"1745 1437 LINE",
"1334 1437 LINE",
"765 373 LINE",
"1062 422 LINE",
"458 1437 LINE",
"138 1437 LINE",
"138 0 LINE"
);
}
);
width = 1883;
},
{
anchors = (
{
name = bottom;
position = "{828, -20}";
},
{
name = top;
position = "{828, 1430}";
}
);
background = {
anchors = (
{
name = bottom;
position = "{828, 0}";
},
{
name = top;
position = "{828, 1430}";
}
);
paths = (
{
closed = 1;
nodes = (
"226 0 LINE",
"226 1405 LINE",
"186 1398 LINE",
"828 85 LINE",
"1470 1399 LINE",
"1430 1405 LINE",
"1430 0 LINE",
"1513 0 LINE",
"1513 1430 LINE",
"1380 1430 LINE",
"786 215 LINE",
"870 215 LINE",
"276 1430 LINE",
"143 1430 LINE",
"143 0 LINE"
);
}
);
};
guideLines = (
{
angle = 112.9199;
position = "{411, 856}";
},
{
angle = 247.1086;
position = "{1009, 711}";
},
{
angle = 111.5953;
position = "{555, 730}";
},
{
angle = 248.2128;
position = "{1108, 730}";
},
{
angle = 68.3561;
position = "{1068, 689}";
},
{
angle = 292.8657;
position = "{491, 712}";
}
);
layerId = "B71E0DD6-B640-4F5E-B48D-BF5E04BC2E71";
paths = (
{
closed = 1;
nodes = (
"226 0 LINE",
"226 1405 LINE",
"186 1398 LINE",
"828 85 LINE",
"1470 1399 LINE",
"1430 1405 LINE",
"1430 0 LINE",
"1513 0 LINE",
"1513 1430 LINE",
"1380 1430 LINE",
"786 215 LINE",
"870 215 LINE",
"276 1430 LINE",
"143 1430 LINE",
"143 0 LINE"
);
}
);
width = 1656;
},
{
anchors = (
{
name = bottom;
position = "{877, 10}";
},
{
name = top;
position = "{877, 1430}";
}
);
layerId = "50B3BD20-6B7E-4A37-88B3-070541B8FD4C";
paths = (
{
closed = 1;
nodes = (
"317 0 LINE",
"317 1288 LINE",
"213 1261 LINE",
"861 45 LINE",
"1496 1302 LINE",
"1404 1257 LINE",
"1404 0 LINE",
"1613 0 LINE",
"1613 1433 LINE",
"1360 1433 LINE",
"777 283 LINE",
"952 304 LINE",
"354 1433 LINE",
"141 1433 LINE",
"141 0 LINE"
);
}
);
width = 1754;
}
);
leftKerningGroup = M;
note = M;
rightKerningGroup = M;
unicode = 004D;
},
{
glyphname = N;
lastChange = "2019-12-28 20:34:31 +0000";
layers = (
{
anchors = (
{
name = bottom;
position = "{702, 0}";
},
{
name = top;
position = "{702, 1430}";
}
);
background = {
paths = (
{
closed = 1;
nodes = (
"73 36 LINE",
"73 0 LINE",
"537 0 LINE",
"537 36 LINE",
"477 36 LINE SMOOTH",
"323 36 OFFCURVE",
"315 50 OFFCURVE",
"315 264 CURVE SMOOTH",
"315 1330 LINE",
"1369 -10 LINE",
"1383 -10 LINE",
"1383 1216 LINE SMOOTH",
"1383 1394 OFFCURVE",
"1383 1394 OFFCURVE",
"1531 1394 CURVE SMOOTH",
"1591 1394 LINE",
"1591 1430 LINE",
"1131 1430 LINE",
"1131 1394 LINE",
"1191 1394 LINE SMOOTH",
"1345 1394 OFFCURVE",
"1349 1392 OFFCURVE",
"1349 1216 CURVE SMOOTH",
"1349 376 LINE",
"515 1430 LINE",
"73 1430 LINE",
"73 1394 LINE",
"243 1394 LINE",
"281 1368 LINE",
"281 264 LINE SMOOTH",
"281 108 OFFCURVE",
"281 102 OFFCURVE",
"261 70 CURVE",
"243 46 OFFCURVE",
"219 36 OFFCURVE",
"143 36 CURVE SMOOTH"
);
}
);
};
layerId = "EA94BB3F-1054-4F03-AAB6-69C3B81B3CC3";
paths = (
{
closed = 1;
nodes = (
"207 0 LINE",
"207 1255 LINE",
"188 1185 LINE",
"1134 0 LINE",
"1229 0 LINE",
"1229 1430 LINE",
"1197 1430 LINE",
"1197 179 LINE",
"1219 245 LINE",
"274 1430 LINE",
"175 1430 LINE",
"175 0 LINE"
);
}
);
width = 1404;
},
{
anchors = (
{
name = bottom;
position = "{726, 0}";
},
{
name = top;
position = "{726, 1430}";
}
);
layerId = "1A84AFAC-8532-492C-A52A-D2ACD869B7F8";
paths = (
{
closed = 1;
nodes = (
"201 5 LINE",
"201 1413 LINE",
"180 1417 LINE",
"1204 0 LINE",
"1277 0 LINE",
"1277 1430 LINE",
"1251 1430 LINE",
"1251 5 LINE",
"1269 24 LINE",
"259 1430 LINE",
"175 1430 LINE",
"175 5 LINE"
);
}
);
width = 1452;
},
{
anchors = (
{
name = bottom;
position = "{775, 0}";
},
{
name = top;
position = "{775, 1430}";
}
);
layerId = "16E03120-9D89-4B3A-B1E3-633A6E865927";
paths = (
{
closed = 1;
nodes = (
"260 0 LINE",
"260 1310 LINE",
"194 1091 LINE",
"1366 0 LINE",
"1382 0 LINE",
"1382 1445 LINE",
"1300 1445 LINE",
"1300 109 LINE",
"1369 346 LINE",
"188 1445 LINE",
"168 1445 LINE",
"178 0 LINE"
);
}
);
width = 1550;
},
{
anchors = (
{
name = bottom;
position = "{772, 0}";
},
{
name = top;
position = "{772, 1440}";
}
);
layerId = "5EAC5215-9D4A-4BA0-8B26-A551FA1A966A";
paths = (
{
closed = 1;
nodes = (
"232 -15 LINE",
"232 1310 LINE",
"186 1110 LINE",
"1338 -15 LINE",
"1374 -15 LINE",
"1374 1445 LINE",
"1312 1445 LINE",
"1312 94 LINE",
"1358 314 LINE",
"200 1445 LINE",
"170 1445 LINE",
"170 -15 LINE"
);
}
);
width = 1544;
},
{
anchors = (
{
name = bottom;
position = "{756, 0}";
},
{
name = top;
position = "{756, 1435}";
}
);
background = {
paths = (
{
closed = 1;
nodes = (
"23 36 LINE",
"23 0 LINE",
"487 0 LINE",
"487 36 LINE",
"427 36 LINE SMOOTH",
"273 36 OFFCURVE",
"265 50 OFFCURVE",
"265 264 CURVE SMOOTH",
"265 1330 LINE",
"1319 -10 LINE",
"1333 -10 LINE",
"1333 1216 LINE SMOOTH",
"1333 1394 OFFCURVE",
"1333 1394 OFFCURVE",
"1481 1394 CURVE SMOOTH",
"1541 1394 LINE",
"1541 1430 LINE",
"1081 1430 LINE",
"1081 1394 LINE",
"1141 1394 LINE SMOOTH",
"1295 1394 OFFCURVE",
"1299 1392 OFFCURVE",
"1299 1216 CURVE SMOOTH",
"1299 376 LINE",
"465 1430 LINE",
"23 1430 LINE",
"23 1394 LINE",
"193 1394 LINE",
"231 1368 LINE",
"231 264 LINE SMOOTH",
"231 108 OFFCURVE",
"231 102 OFFCURVE",
"211 70 CURVE",
"193 46 OFFCURVE",
"169 36 OFFCURVE",
"93 36 CURVE SMOOTH"
);
}
);
};
layerId = "B4536172-55B8-4884-A498-BDE07D5884DA";
paths = (
{
closed = 1;
nodes = (
"208 -8 LINE",
"208 1358 LINE",
"182 1220 LINE",
"1320 -20 LINE",
"1340 -20 LINE",
"1340 1438 LINE",
"1304 1438 LINE",
"1304 100 LINE",
"1328 212 LINE",
"188 1453 LINE",
"172 1453 LINE",
"172 -8 LINE"
);
}
);
width = 1512;
},
{
anchors = (
{
name = bottom;
position = "{740, 0}";
},
{
name = top;
position = "{740, 1430}";
}
);
layerId = "09CD4194-2486-478D-AB32-B0AA8D4EDA22";
paths = (
{
closed = 1;
nodes = (
"184 0 LINE",
"184 1405 LINE",
"178 1329 LINE",
"1302 -24 LINE",
"1305 -24 LINE",
"1305 1430 LINE",
"1295 1430 LINE",
"1295 105 LINE",
"1298 110 LINE",
"176 1460 LINE",
"174 1460 LINE",
"174 0 LINE"
);
}
);
width = 1479;
},
{
anchors = (
{
name = bottom;
position = "{805, 50}";
},
{
name = top;
position = "{805, 1430}";
}
);
background = {
anchors = (
{
name = bottom;
position = "{905, 0}";
},
{
name = top;
position = "{905, 1430}";
}
);
paths = (
{
closed = 1;
nodes = (
"387 0 LINE",
"387 1360 LINE",
"271 954 LINE",
"1535 0 LINE",
"1551 0 LINE",
"1551 1437 LINE",
"1432 1437 LINE",
"1432 45 LINE",
"1552 470 LINE",
"279 1437 LINE",
"258 1437 LINE",
"271 0 LINE"
);
}
);
};
layerId = "338DAB22-2F62-42B0-AF6A-AC80FC784DAE";
paths = (
{
closed = 1;
nodes = (
"447 0 LINE",
"447 960 LINE",
"241 1054 LINE",
"1165 0 LINE",
"1471 0 LINE",
"1471 1437 LINE",
"1172 1437 LINE",
"1172 345 LINE",
"1352 370 LINE",
"439 1437 LINE",
"138 1437 LINE",
"151 0 LINE"
);
}
);
width = 1609;
},
{
anchors = (
{
name = bottom;
position = "{763, -20}";
},
{
name = top;
position = "{763, 1430}";
}
);
background = {
anchors = (
{
name = bottom;
position = "{763, 0}";
},
{
name = top;
position = "{763, 1430}";
}
);
paths = (
{
closed = 1;
nodes = (
"226 4 LINE",
"226 1381 LINE",
"194 1359 LINE",
"1266 0 LINE",
"1382 0 LINE",
"1382 1430 LINE",
"1299 1430 LINE",
"1299 49 LINE",
"1319 91 LINE",
"269 1430 LINE",
"143 1430 LINE",
"143 4 LINE"
);
}
);
};
layerId = "B71E0DD6-B640-4F5E-B48D-BF5E04BC2E71";
paths = (
{
closed = 1;
nodes = (
"226 0 LINE",
"226 1381 LINE",
"194 1359 LINE",
"1266 0 LINE",
"1382 0 LINE",
"1382 1430 LINE",
"1299 1430 LINE",
"1299 49 LINE",
"1319 91 LINE",
"269 1430 LINE",
"143 1430 LINE",
"143 0 LINE"
);
}
);
width = 1525;
},
{
anchors = (
{
name = bottom;
position = "{781, 10}";
},
{
name = top;
position = "{781, 1430}";
}
);
layerId = "50B3BD20-6B7E-4A37-88B3-070541B8FD4C";
paths = (
{
closed = 1;
nodes = (
"321 0 LINE",
"321 1200 LINE",
"214 1228 LINE",
"1222 0 LINE",
"1420 0 LINE",
"1420 1433 LINE",
"1244 1433 LINE",
"1244 176 LINE",
"1333 211 LINE",
"342 1433 LINE",
"141 1433 LINE",
"146 0 LINE"
);
}
);
width = 1561;
}
);
leftKerningGroup = H;
leftMetricsKey = H;
note = N;
rightKerningGroup = H;
rightMetricsKey = H;
unicode = 004E;
},
{
color = 1;
glyphname = Eng;
lastChange = "2019-12-28 20:28:16 +0000";
layers = (
{
background = {
paths = (
{
closed = 1;
nodes = (
"206 0 LINE",
"206 1162 LINE",
"1059 92 LINE SMOOTH",
"1124 10 OFFCURVE",
"1155 -28 OFFCURVE",
"1155 -142 CURVE SMOOTH",
"1155 -244 OFFCURVE",
"1131 -366 OFFCURVE",
"1038 -366 CURVE SMOOTH",
"1028 -366 LINE",
"1016 -366 LINE SMOOTH",
"927 -366 OFFCURVE",
"856 -310 OFFCURVE",
"791 -199 CURVE",
"791 -308 LINE",
"821 -348 OFFCURVE",
"883 -396 OFFCURVE",
"1029 -396 CURVE SMOOTH",
"1171 -396 OFFCURVE",
"1228 -254 OFFCURVE",
"1228 -112 CURVE SMOOTH",
"1228 1430 LINE",
"1196 1430 LINE",
"1196 272 LINE",
"273 1430 LINE",
"174 1430 LINE",
"174 0 LINE"
);
}
);
};
layerId = "EA94BB3F-1054-4F03-AAB6-69C3B81B3CC3";
paths = (
{
closed = 1;
nodes = (
"1184 -396 OFFCURVE",
"1228 -254 OFFCURVE",
"1228 -112 CURVE SMOOTH",
"1228 1430 LINE",
"1196 1430 LINE",
"1196 179 LINE",
"1214 250 LINE",
"273 1430 LINE",
"174 1430 LINE",
"174 0 LINE",
"206 0 LINE",
"206 1255 LINE",
"199 1170 LINE",
"1059 92 LINE SMOOTH",
"1128 5 OFFCURVE",
"1155 -12 OFFCURVE",
"1155 -146 CURVE SMOOTH",
"1155 -308 OFFCURVE",
"1110 -366 OFFCURVE",
"1017 -366 CURVE SMOOTH",
"924 -366 OFFCURVE",
"854 -308 OFFCURVE",
"791 -199 CURVE",
"791 -308 LINE",
"819 -351 OFFCURVE",
"906 -396 OFFCURVE",
"1006 -396 CURVE SMOOTH"
);
}
);
width = 1411;
},
{
layerId = "1A84AFAC-8532-492C-A52A-D2ACD869B7F8";
paths = (
{
closed = 1;
nodes = (
"1190 -353 OFFCURVE",
"1276 -245 OFFCURVE",
"1276 -100 CURVE SMOOTH",
"1276 1430 LINE",
"1250 1430 LINE",
"1250 23 LINE",
"1266 28 LINE",
"258 1430 LINE",
"174 1430 LINE",
"174 0 LINE",
"200 0 LINE",
"200 1413 LINE",
"184 1410 LINE",
"1203 0 LINE SMOOTH",
"1230 -38 OFFCURVE",
"1240 -52 OFFCURVE",
"1240 -106 CURVE SMOOTH",
"1240 -285 OFFCURVE",
"1110 -318 OFFCURVE",
"1062 -318 CURVE SMOOTH",
"1003 -318 OFFCURVE",
"932 -267 OFFCURVE",
"886 -193 CURVE",
"886 -257 LINE",
"939 -330 OFFCURVE",
"1001 -353 OFFCURVE",
"1061 -353 CURVE SMOOTH"
);
}
);
width = 1459;
},
{
layerId = "16E03120-9D89-4B3A-B1E3-633A6E865927";
paths = (
{
closed = 1;
nodes = (
"1233 -411 OFFCURVE",
"1353 -311 OFFCURVE",
"1353 -112 CURVE SMOOTH",
"1353 1445 LINE",
"1191 1445 LINE",
"1191 276 LINE",
"1285 309 LINE",
"379 1445 LINE",
"169 1445 LINE",
"169 -15 LINE",
"331 -15 LINE",
"331 1052 LINE",
"303 1042 LINE",
"1068 83 LINE SMOOTH",
"1123 14 OFFCURVE",
"1150 -30 OFFCURVE",
"1150 -146 CURVE SMOOTH",
"1150 -298 OFFCURVE",
"1103 -351 OFFCURVE",
"1047 -351 CURVE SMOOTH",
"1001 -351 OFFCURVE",
"904 -316 OFFCURVE",
"786 -92 CURVE",
"786 -300 LINE",
"817 -348 OFFCURVE",
"916 -411 OFFCURVE",
"1056 -411 CURVE SMOOTH"
);
}
);
width = 1530;
},
{
layerId = "5EAC5215-9D4A-4BA0-8B26-A551FA1A966A";
paths = (
{
closed = 1;
nodes = (
"1232 -411 OFFCURVE",
"1352 -311 OFFCURVE",
"1352 -112 CURVE SMOOTH",
"1352 1445 LINE",
"1190 1445 LINE",
"1190 276 LINE",
"1284 309 LINE",
"378 1445 LINE",
"168 1445 LINE",
"168 0 LINE",
"330 0 LINE",
"330 1052 LINE",
"302 1042 LINE",
"1067 83 LINE SMOOTH",
"1122 14 OFFCURVE",
"1149 -30 OFFCURVE",
"1149 -146 CURVE SMOOTH",
"1149 -298 OFFCURVE",
"1102 -351 OFFCURVE",
"1046 -351 CURVE SMOOTH",
"1000 -351 OFFCURVE",
"903 -316 OFFCURVE",
"785 -92 CURVE",
"785 -300 LINE",
"816 -348 OFFCURVE",
"915 -411 OFFCURVE",
"1055 -411 CURVE SMOOTH"
);
}
);
width = 1531;
},
{
background = {
paths = (
{
closed = 1;
nodes = (
"174 0 LINE",
"174 1162 LINE",
"1027 92 LINE SMOOTH",
"1092 10 OFFCURVE",
"1123 -28 OFFCURVE",
"1123 -142 CURVE SMOOTH",
"1123 -244 OFFCURVE",
"1099 -366 OFFCURVE",
"1006 -366 CURVE SMOOTH",
"996 -366 LINE",
"984 -366 LINE SMOOTH",
"895 -366 OFFCURVE",
"824 -310 OFFCURVE",
"759 -199 CURVE",
"759 -308 LINE",
"789 -348 OFFCURVE",
"851 -396 OFFCURVE",
"997 -396 CURVE SMOOTH",
"1139 -396 OFFCURVE",
"1196 -254 OFFCURVE",
"1196 -112 CURVE SMOOTH",
"1196 1430 LINE",
"1164 1430 LINE",
"1164 272 LINE",
"241 1430 LINE",
"142 1430 LINE",
"142 0 LINE"
);
}
);
};
layerId = "B4536172-55B8-4884-A498-BDE07D5884DA";
paths = (
{
closed = 1;
nodes = (
"1227 -382 OFFCURVE",
"1330 -278 OFFCURVE",
"1330 -106 CURVE SMOOTH",
"1330 1438 LINE",
"1244 1438 LINE",
"1244 182 LINE",
"1294 208 LINE",
"279 1453 LINE",
"173 1453 LINE",
"173 0 LINE",
"259 0 LINE",
"259 1201 LINE",
"242 1186 LINE",
"1157 66 LINE SMOOTH",
"1196 17 OFFCURVE",
"1224 -20 OFFCURVE",
"1224 -126 CURVE SMOOTH",
"1224 -292 OFFCURVE",
"1137 -347 OFFCURVE",
"1070 -347 CURVE SMOOTH",
"1018 -347 OFFCURVE",
"924 -307 OFFCURVE",
"847 -158 CURVE",
"847 -279 LINE",
"891 -339 OFFCURVE",
"974 -382 OFFCURVE",
"1074 -382 CURVE SMOOTH"
);
}
);
width = 1511;
},
{
layerId = "09CD4194-2486-478D-AB32-B0AA8D4EDA22";
paths = (
{
closed = 1;
nodes = (
"1221 -353 OFFCURVE",
"1307 -245 OFFCURVE",
"1307 -100 CURVE SMOOTH",
"1307 1430 LINE",
"1297 1430 LINE",
"1297 87 LINE",
"1303 106 LINE",
"178 1460 LINE",
"176 1460 LINE",
"176 0 LINE",
"186 0 LINE",
"186 1349 LINE",
"180 1330 LINE",
"1245 48 LINE SMOOTH",
"1268 20 OFFCURVE",
"1297 -10 OFFCURVE",
"1297 -106 CURVE SMOOTH",
"1297 -285 OFFCURVE",
"1171 -343 OFFCURVE",
"1093 -343 CURVE SMOOTH",
"1034 -343 OFFCURVE",
"943 -297 OFFCURVE",
"907 -223 CURVE",
"907 -257 LINE",
"964 -330 OFFCURVE",
"1032 -353 OFFCURVE",
"1092 -353 CURVE SMOOTH"
);
}
);
width = 1489;
},
{
background = {
paths = (
{
closed = 1;
nodes = (
"1276 -383 OFFCURVE",
"1394 -259 OFFCURVE",
"1394 -46 CURVE SMOOTH",
"1394 1437 LINE",
"1187 1437 LINE",
"1187 288 LINE",
"1394 350 LINE",
"366 1437 LINE",
"135 1437 LINE",
"135 -18 LINE",
"341 -18 LINE",
"341 1007 LINE",
"183 996 LINE",
"1063 98 LINE SMOOTH",
"1141 17 OFFCURVE",
"1145 11 OFFCURVE",
"1145 -79 CURVE SMOOTH",
"1145 -175 OFFCURVE",
"1129 -197 OFFCURVE",
"1056 -197 CURVE SMOOTH",
"951 -197 OFFCURVE",
"856 -93 OFFCURVE",
"770 100 CURVE",
"770 -242 LINE",
"836 -339 OFFCURVE",
"934 -383 OFFCURVE",
"1068 -383 CURVE SMOOTH"
);
}
);
};
layerId = "338DAB22-2F62-42B0-AF6A-AC80FC784DAE";
paths = (
{
closed = 1;
nodes = (
"1296 -523 OFFCURVE",
"1466 -399 OFFCURVE",
"1466 -146 CURVE SMOOTH",
"1466 1437 LINE",
"1167 1437 LINE",
"1167 411 LINE",
"1277 451 LINE",
"434 1437 LINE",
"133 1437 LINE",
"146 0 LINE",
"442 0 LINE",
"442 988 LINE",
"330 946 LINE",
"1160 0 LINE SMOOTH",
"1202 -48 OFFCURVE",
"1210 -119 OFFCURVE",
"1210 -179 CURVE SMOOTH",
"1210 -315 OFFCURVE",
"1149 -337 OFFCURVE",
"1076 -337 CURVE SMOOTH",
"971 -337 OFFCURVE",
"876 -283 OFFCURVE",
"790 -190 CURVE",
"790 -442 LINE",
"856 -499 OFFCURVE",
"954 -523 OFFCURVE",
"1088 -523 CURVE SMOOTH"
);
}
);
width = 1609;
},
{
background = {
paths = (
{
closed = 1;
nodes = (
"1288 -344 OFFCURVE",
"1382 -238 OFFCURVE",
"1382 -46 CURVE SMOOTH",
"1382 1430 LINE",
"1299 1430 LINE",
"1299 90 LINE",
"1316 96 LINE",
"269 1430 LINE",
"143 1430 LINE",
"143 4 LINE",
"226 4 LINE",
"226 1345 LINE",
"209 1339 LINE",
"1234 41 LINE SMOOTH",
"1264 3 OFFCURVE",
"1296 -25 OFFCURVE",
"1296 -67 CURVE SMOOTH",
"1296 -208 OFFCURVE",
"1238 -263 OFFCURVE",
"1147 -263 CURVE SMOOTH",
"1059 -263 OFFCURVE",
"988 -211 OFFCURVE",
"944 -183 CURVE",
"944 -276 LINE",
"998 -309 OFFCURVE",
"1058 -344 OFFCURVE",
"1142 -344 CURVE SMOOTH"
);
}
);
};
layerId = "B71E0DD6-B640-4F5E-B48D-BF5E04BC2E71";
paths = (
{
closed = 1;
nodes = (
"1288 -344 OFFCURVE",
"1382 -238 OFFCURVE",
"1382 -46 CURVE SMOOTH",
"1382 1430 LINE",
"1299 1430 LINE",
"1299 90 LINE",
"1316 96 LINE",
"269 1430 LINE",
"143 1430 LINE",
"143 0 LINE",
"226 0 LINE",
"226 1345 LINE",
"209 1339 LINE",
"1234 41 LINE SMOOTH",
"1264 3 OFFCURVE",
"1296 -25 OFFCURVE",
"1296 -67 CURVE SMOOTH",
"1296 -208 OFFCURVE",
"1238 -263 OFFCURVE",
"1147 -263 CURVE SMOOTH",
"1059 -263 OFFCURVE",
"988 -211 OFFCURVE",
"944 -183 CURVE",
"944 -276 LINE",
"998 -309 OFFCURVE",
"1058 -344 OFFCURVE",
"1142 -344 CURVE SMOOTH"
);
}
);
width = 1529;
},
{
layerId = "50B3BD20-6B7E-4A37-88B3-070541B8FD4C";
paths = (
{
closed = 1;
nodes = (
"1291 -421 OFFCURVE",
"1418 -307 OFFCURVE",
"1418 -89 CURVE SMOOTH",
"1418 1433 LINE",
"1242 1433 LINE",
"1242 228 LINE",
"1299 249 LINE",
"340 1433 LINE",
"139 1433 LINE",
"144 0 LINE",
"319 0 LINE",
"319 1191 LINE",
"261 1170 LINE",
"1202 23 LINE SMOOTH",
"1237 -19 OFFCURVE",
"1259 -65 OFFCURVE",
"1259 -115 CURVE SMOOTH",
"1259 -254 OFFCURVE",
"1200 -295 OFFCURVE",
"1116 -295 CURVE SMOOTH",
"1021 -295 OFFCURVE",
"940 -242 OFFCURVE",
"878 -186 CURVE",
"878 -347 LINE",
"937 -391 OFFCURVE",
"1013 -421 OFFCURVE",
"1119 -421 CURVE SMOOTH"
);
}
);
width = 1563;
}
);
leftKerningGroup = Eng;
rightKerningGroup = Eng;
unicode = 014A;
},
{
color = 8;
glyphname = Ntilde;
lastChange = "2019-12-28 20:36:23 +0000";
layers = (
{
background = {
paths = (
{
closed = 1;
nodes = (
"20 34 LINE",
"20 0 LINE",
"454 0 LINE",
"454 34 LINE",
"398 34 LINE SMOOTH",
"254 34 OFFCURVE",
"246 46 OFFCURVE",
"246 246 CURVE SMOOTH",
"246 1240 LINE",
"1230 -10 LINE",
"1242 -10 LINE",
"1242 1134 LINE SMOOTH",
"1242 1300 OFFCURVE",
"1242 1300 OFFCURVE",
"1380 1300 CURVE SMOOTH",
"1436 1300 LINE",
"1436 1334 LINE",
"1008 1334 LINE",
"1008 1300 LINE",
"1064 1300 LINE SMOOTH",
"1208 1300 OFFCURVE",
"1210 1298 OFFCURVE",
"1210 1134 CURVE SMOOTH",
"1210 350 LINE",
"432 1334 LINE",
"20 1334 LINE",
"20 1300 LINE",
"180 1300 LINE",
"214 1276 LINE",
"214 246 LINE SMOOTH",
"214 100 OFFCURVE",
"214 96 OFFCURVE",
"196 66 CURVE",
"180 42 OFFCURVE",
"156 34 OFFCURVE",
"86 34 CURVE SMOOTH"
);
},
{
closed = 1;
nodes = (
"1008 1716 LINE",
"972 1638 OFFCURVE",
"950 1616 OFFCURVE",
"906 1616 CURVE SMOOTH",
"872 1616 OFFCURVE",
"838 1626 OFFCURVE",
"756 1664 CURVE",
"678 1696 OFFCURVE",
"640 1708 OFFCURVE",
"600 1708 CURVE SMOOTH",
"508 1708 OFFCURVE",
"440 1630 OFFCURVE",
"410 1494 CURVE",
"444 1494 LINE",
"464 1564 OFFCURVE",
"494 1592 OFFCURVE",
"542 1592 CURVE SMOOTH",
"564 1592 OFFCURVE",
"600 1582 OFFCURVE",
"636 1566 CURVE SMOOTH",
"770 1508 OFFCURVE",
"798 1498 OFFCURVE",
"838 1498 CURVE SMOOTH",
"932 1498 OFFCURVE",
"1002 1572 OFFCURVE",
"1042 1716 CURVE"
);
}
);
};
components = (
{
name = N;
},
{
name = tildecomb.case;
transform = "{1, 0, 0, 1, 325, 550}";
}
);
layerId = "EA94BB3F-1054-4F03-AAB6-69C3B81B3CC3";
width = 1404;
},
{
components = (
{
name = N;
},
{
name = tildecomb.case;
transform = "{1, 0, 0, 1, 371, 500}";
}
);
layerId = "1A84AFAC-8532-492C-A52A-D2ACD869B7F8";
width = 1452;
},
{
components = (
{
name = N;
},
{
name = tildecomb.case;
transform = "{1, 0, 0, 1, 376, 600}";
}
);
layerId = "16E03120-9D89-4B3A-B1E3-633A6E865927";
width = 1550;
},
{
components = (
{
name = N;
},
{
name = tildecomb.case;
transform = "{1, 0, 0, 1, 407, 610}";
}
);
layerId = "5EAC5215-9D4A-4BA0-8B26-A551FA1A966A";
width = 1544;
},
{
background = {
paths = (
{
closed = 1;
nodes = (
"20 34 LINE",
"20 0 LINE",
"454 0 LINE",
"454 34 LINE",
"398 34 LINE SMOOTH",
"254 34 OFFCURVE",
"246 46 OFFCURVE",
"246 246 CURVE SMOOTH",
"246 1240 LINE",
"1230 -10 LINE",
"1242 -10 LINE",
"1242 1134 LINE SMOOTH",
"1242 1300 OFFCURVE",
"1242 1300 OFFCURVE",
"1380 1300 CURVE SMOOTH",
"1436 1300 LINE",
"1436 1334 LINE",
"1008 1334 LINE",
"1008 1300 LINE",
"1064 1300 LINE SMOOTH",
"1208 1300 OFFCURVE",
"1210 1298 OFFCURVE",
"1210 1134 CURVE SMOOTH",
"1210 350 LINE",
"432 1334 LINE",
"20 1334 LINE",
"20 1300 LINE",
"180 1300 LINE",
"214 1276 LINE",
"214 246 LINE SMOOTH",
"214 100 OFFCURVE",
"214 96 OFFCURVE",
"196 66 CURVE",
"180 42 OFFCURVE",
"156 34 OFFCURVE",
"86 34 CURVE SMOOTH"
);
},
{
closed = 1;
nodes = (
"1008 1716 LINE",
"972 1638 OFFCURVE",
"950 1616 OFFCURVE",
"906 1616 CURVE SMOOTH",
"872 1616 OFFCURVE",
"838 1626 OFFCURVE",
"756 1664 CURVE",
"678 1696 OFFCURVE",
"640 1708 OFFCURVE",
"600 1708 CURVE SMOOTH",
"508 1708 OFFCURVE",
"440 1630 OFFCURVE",
"410 1494 CURVE",
"444 1494 LINE",
"464 1564 OFFCURVE",
"494 1592 OFFCURVE",
"542 1592 CURVE SMOOTH",
"564 1592 OFFCURVE",
"600 1582 OFFCURVE",
"636 1566 CURVE SMOOTH",
"770 1508 OFFCURVE",
"798 1498 OFFCURVE",
"838 1498 CURVE SMOOTH",
"932 1498 OFFCURVE",
"1002 1572 OFFCURVE",
"1042 1716 CURVE"
);
}
);
};
components = (
{
name = N;
},
{
name = tildecomb.case;
transform = "{1, 0, 0, 1, 378, 505}";
}
);
layerId = "B4536172-55B8-4884-A498-BDE07D5884DA";
width = 1512;
},
{
components = (
{
name = N;
},
{
name = tildecomb.case;
transform = "{1, 0, 0, 1, 384, 500}";
}
);
layerId = "09CD4194-2486-478D-AB32-B0AA8D4EDA22";
width = 1479;
},
{
background = {
components = (
{
name = N;
},
{
name = tildecomb;
transform = "{1, 0, 0, 1, 388, 510}";
}
);
};
components = (
{
name = N;
},
{
name = tildecomb.case;
transform = "{1, 0, 0, 1, 403, 520}";
}
);
layerId = "338DAB22-2F62-42B0-AF6A-AC80FC784DAE";
width = 1609;
},
{
background = {
components = (
{
name = N;
},
{
name = tildecomb;
transform = "{1, 0, 0, 1, 418, 441}";
}
);
};
components = (
{
name = N;
},
{
name = tildecomb.case;
transform = "{1, 0, 0, 1, 393, 540}";
}
);
layerId = "B71E0DD6-B640-4F5E-B48D-BF5E04BC2E71";
width = 1525;
},
{
components = (
{
name = N;
},
{
name = tildecomb.case;
transform = "{1, 0, 0, 1, 397, 531}";
}
);
layerId = "50B3BD20-6B7E-4A37-88B3-070541B8FD4C";
width = 1561;
}
);
leftKerningGroup = H;
note = Ntilde;
rightKerningGroup = H;
unicode = 00D1;
},
{
color = 1;
glyphname = O;
lastChange = "2019-12-28 20:28:15 +0000";
layers = (
{
anchors = (
{
name = bottom;
position = "{789, 0}";
},
{
name = center;
position = "{789, 715}";
},
{
name = ogonek;
position = "{932, 0}";
},
{
name = top;
position = "{789, 1430}";
},
{
name = topleft;
position = "{51, 1430}";
},
{
name = topright;
position = "{1527, 1430}";
}
);
background = {
paths = (
{
closed = 1;
nodes = (
"1184 -26 OFFCURVE",
"1476 296 OFFCURVE",
"1476 712 CURVE SMOOTH",
"1476 1120 OFFCURVE",
"1180 1460 OFFCURVE",
"790 1460 CURVE SMOOTH",
"406 1460 OFFCURVE",
"102 1122 OFFCURVE",
"102 712 CURVE SMOOTH",
"102 302 OFFCURVE",
"392 -26 OFFCURVE",
"790 -26 CURVE SMOOTH"
);
},
{
closed = 1;
nodes = (
"504 4 OFFCURVE",
"314 288 OFFCURVE",
"314 712 CURVE SMOOTH",
"314 1142 OFFCURVE",
"504 1430 OFFCURVE",
"790 1430 CURVE SMOOTH",
"1074 1430 OFFCURVE",
"1264 1142 OFFCURVE",
"1264 712 CURVE SMOOTH",
"1264 288 OFFCURVE",
"1074 4 OFFCURVE",
"790 4 CURVE SMOOTH"
);
}
);
};
layerId = "EA94BB3F-1054-4F03-AAB6-69C3B81B3CC3";
paths = (
{
closed = 1;
nodes = (
"1185 -26 OFFCURVE",
"1476 296 OFFCURVE",
"1476 712 CURVE SMOOTH",
"1476 1119 OFFCURVE",
"1180 1460 OFFCURVE",
"790 1460 CURVE SMOOTH",
"406 1460 OFFCURVE",
"102 1123 OFFCURVE",
"102 712 CURVE SMOOTH",
"102 302 OFFCURVE",
"393 -26 OFFCURVE",
"790 -26 CURVE SMOOTH"
);
},
{
closed = 1;
nodes = (
"504 4 OFFCURVE",
"314 288 OFFCURVE",
"314 712 CURVE SMOOTH",
"314 1142 OFFCURVE",
"504 1430 OFFCURVE",
"790 1430 CURVE SMOOTH",
"1074 1430 OFFCURVE",
"1264 1142 OFFCURVE",
"1264 712 CURVE SMOOTH",
"1264 288 OFFCURVE",
"1074 4 OFFCURVE",
"790 4 CURVE SMOOTH"
);
}
);
width = 1578;
},
{
anchors = (
{
name = bottom;
position = "{844, 0}";
},
{
name = center;
position = "{844, 715}";
},
{
name = ogonek;
position = "{990, 0}";
},
{
name = top;
position = "{844, 1430}";
},
{
name = topleft;
position = "{42, 1430}";
},
{
name = topright;
position = "{1646, 1430}";
}
);
layerId = "16E03120-9D89-4B3A-B1E3-633A6E865927";
paths = (
{
closed = 1;
nodes = (
"1273 -41 OFFCURVE",
"1596 287 OFFCURVE",
"1596 712 CURVE SMOOTH",
"1596 1143 OFFCURVE",
"1262 1475 OFFCURVE",
"845 1475 CURVE SMOOTH",
"423 1475 OFFCURVE",
"92 1139 OFFCURVE",
"92 712 CURVE SMOOTH",
"92 288 OFFCURVE",
"416 -41 OFFCURVE",
"845 -41 CURVE SMOOTH"
);
},
{
closed = 1;
nodes = (
"608 19 OFFCURVE",
"434 302 OFFCURVE",
"434 712 CURVE SMOOTH",
"434 1121 OFFCURVE",
"607 1415 OFFCURVE",
"845 1415 CURVE SMOOTH",
"1082 1415 OFFCURVE",
"1254 1121 OFFCURVE",
"1254 712 CURVE SMOOTH",
"1254 303 OFFCURVE",
"1083 19 OFFCURVE",
"845 19 CURVE SMOOTH"
);
}
);
width = 1688;
},
{
anchors = (
{
name = bottom;
position = "{746, 0}";
},
{
name = center;
position = "{746, 715}";
},
{
name = ogonek;
position = "{819, 0}";
},
{
name = top;
position = "{746, 1430}";
},
{
name = topleft;
position = "{51, 1430}";
},
{
name = topright;
position = "{1365, 1430}";
}
);
background = {
anchors = (
{
name = bottom;
position = "{707, 0}";
},
{
name = center;
position = "{707, 715}";
},
{
name = ogonek;
position = "{1290, 10}";
},
{
name = top;
position = "{707, 1430}";
},
{
name = topleft;
position = "{-2, 1430}";
},
{
name = topright;
position = "{1416, 1430}";
}
);
paths = (
{
closed = 1;
nodes = (
"1068 -26 OFFCURVE",
"1334 264 OFFCURVE",
"1334 712 CURVE SMOOTH",
"1334 1166 OFFCURVE",
"1068 1460 OFFCURVE",
"707 1460 CURVE SMOOTH",
"346 1460 OFFCURVE",
"80 1166 OFFCURVE",
"80 712 CURVE SMOOTH",
"80 264 OFFCURVE",
"346 -26 OFFCURVE",
"707 -26 CURVE SMOOTH"
);
},
{
closed = 1;
nodes = (
"355 4 OFFCURVE",
"146 264 OFFCURVE",
"146 712 CURVE SMOOTH",
"146 1167 OFFCURVE",
"355 1430 OFFCURVE",
"707 1430 CURVE SMOOTH",
"1058 1430 OFFCURVE",
"1268 1167 OFFCURVE",
"1268 712 CURVE SMOOTH",
"1268 264 OFFCURVE",
"1057 4 OFFCURVE",
"707 4 CURVE SMOOTH"
);
}
);
};
layerId = "1A84AFAC-8532-492C-A52A-D2ACD869B7F8";
paths = (
{
closed = 1;
nodes = (
"1151 -6 OFFCURVE",
"1386 300 OFFCURVE",
"1386 715 CURVE SMOOTH",
"1386 1130 OFFCURVE",
"1150 1440 OFFCURVE",
"746 1440 CURVE SMOOTH",
"343 1440 OFFCURVE",
"106 1131 OFFCURVE",
"106 715 CURVE SMOOTH",
"106 301 OFFCURVE",
"340 -6 OFFCURVE",
"746 -6 CURVE SMOOTH"
);
},
{
closed = 1;
nodes = (
"409 36 OFFCURVE",
"182 320 OFFCURVE",
"182 718 CURVE SMOOTH",
"182 1122 OFFCURVE",
"416 1402 OFFCURVE",
"746 1410 CURVE",
"1076 1402 OFFCURVE",
"1310 1122 OFFCURVE",
"1310 718 CURVE SMOOTH",
"1310 320 OFFCURVE",
"1083 36 OFFCURVE",
"746 24 CURVE"
);
}
);
width = 1492;
},
{
anchors = (
{
name = bottom;
position = "{826, 0}";
},
{
name = center;
position = "{826, 715}";
},
{
name = ogonek;
position = "{1014, 0}";
},
{
name = top;
position = "{826, 1430}";
},
{
name = topleft;
position = "{25, 1430}";
},
{
name = topright;
position = "{1627, 1430}";
}
);
background = {
paths = (
{
closed = 1;
nodes = (
"1329 -41 OFFCURVE",
"1629 285 OFFCURVE",
"1629 747 CURVE SMOOTH",
"1629 1165 OFFCURVE",
"1339 1475 OFFCURVE",
"896 1475 CURVE SMOOTH",
"444 1475 OFFCURVE",
"125 1126 OFFCURVE",
"125 687 CURVE SMOOTH",
"125 260 OFFCURVE",
"415 -41 OFFCURVE",
"856 -41 CURVE SMOOTH"
);
},
{
closed = 1;
nodes = (
"599 -11 OFFCURVE",
"425 278 OFFCURVE",
"425 687 CURVE SMOOTH",
"425 1109 OFFCURVE",
"611 1445 OFFCURVE",
"896 1445 CURVE SMOOTH",
"1154 1445 OFFCURVE",
"1329 1146 OFFCURVE",
"1329 747 CURVE SMOOTH",
"1329 303 OFFCURVE",
"1154 -11 OFFCURVE",
"856 -11 CURVE SMOOTH"
);
}
);
};
layerId = "5EAC5215-9D4A-4BA0-8B26-A551FA1A966A";
paths = (
{
closed = 1;
nodes = (
"1268 -26 OFFCURVE",
"1585 313 OFFCURVE",
"1578 738 CURVE SMOOTH",
"1570 1169 OFFCURVE",
"1231 1489 OFFCURVE",
"814 1474 CURVE SMOOTH",
"392 1459 OFFCURVE",
"66 1112 OFFCURVE",
"74 685 CURVE SMOOTH",
"82 260 OFFCURVE",
"411 -56 OFFCURVE",
"840 -41 CURVE SMOOTH"
);
},
{
closed = 1;
nodes = (
"602 -19 OFFCURVE",
"381 286 OFFCURVE",
"374 696 CURVE SMOOTH",
"367 1105 OFFCURVE",
"576 1436 OFFCURVE",
"814 1444 CURVE SMOOTH",
"1051 1452 OFFCURVE",
"1271 1136 OFFCURVE",
"1278 727 CURVE SMOOTH",
"1285 319 OFFCURVE",
"1077 -3 OFFCURVE",
"839 -11 CURVE SMOOTH"
);
}
);
width = 1652;
},
{
anchors = (
{
name = bottom;
position = "{806, 0}";
},
{
name = center;
position = "{806, 715}";
},
{
name = ogonek;
position = "{976, 0}";
},
{
name = top;
position = "{806, 1430}";
},
{
name = topleft;
position = "{28, 1430}";
},
{
name = topright;
position = "{1583, 1430}";
}
);
background = {
paths = (
{
closed = 1;
nodes = (
"1160 -26 OFFCURVE",
"1452 296 OFFCURVE",
"1452 712 CURVE SMOOTH",
"1452 1120 OFFCURVE",
"1156 1460 OFFCURVE",
"766 1460 CURVE SMOOTH",
"382 1460 OFFCURVE",
"78 1122 OFFCURVE",
"78 712 CURVE SMOOTH",
"78 302 OFFCURVE",
"368 -26 OFFCURVE",
"766 -26 CURVE SMOOTH"
);
},
{
closed = 1;
nodes = (
"480 4 OFFCURVE",
"290 288 OFFCURVE",
"290 712 CURVE SMOOTH",
"290 1142 OFFCURVE",
"480 1430 OFFCURVE",
"766 1430 CURVE SMOOTH",
"1050 1430 OFFCURVE",
"1240 1142 OFFCURVE",
"1240 712 CURVE SMOOTH",
"1240 288 OFFCURVE",
"1050 4 OFFCURVE",
"766 4 CURVE SMOOTH"
);
}
);
};
layerId = "B4536172-55B8-4884-A498-BDE07D5884DA";
paths = (
{
closed = 1;
nodes = (
"1232 -26 OFFCURVE",
"1537 310 OFFCURVE",
"1533 727 CURVE SMOOTH",
"1529 1147 OFFCURVE",
"1213 1475 OFFCURVE",
"800 1467 CURVE SMOOTH",
"385 1460 OFFCURVE",
"74 1119 OFFCURVE",
"78 700 CURVE SMOOTH",
"82 284 OFFCURVE",
"393 -41 OFFCURVE",
"813 -34 CURVE SMOOTH"
);
},
{
closed = 1;
nodes = (
"527 -16 OFFCURVE",
"278 300 OFFCURVE",
"274 707 CURVE SMOOTH",
"271 1116 OFFCURVE",
"518 1441 OFFCURVE",
"800 1445 CURVE SMOOTH",
"1081 1449 OFFCURVE",
"1334 1132 OFFCURVE",
"1337 723 CURVE SMOOTH",
"1341 317 OFFCURVE",
"1098 -8 OFFCURVE",
"812 -12 CURVE SMOOTH"
);
}
);
width = 1611;
},
{
anchors = (
{
name = bottom;
position = "{784, 0}";
},
{
name = center;
position = "{784, 715}";
},
{
name = ogonek;
position = "{956, 0}";
},
{
name = top;
position = "{784, 1430}";
},
{
name = topleft;
position = "{30, 1430}";
},
{
name = topright;
position = "{1538, 1430}";
}
);
background = {
anchors = (
{
name = bottom;
position = "{745, 0}";
},
{
name = center;
position = "{745, 715}";
},
{
name = ogonek;
position = "{1328, 10}";
},
{
name = top;
position = "{745, 1430}";
},
{
name = topleft;
position = "{36, 1430}";
},
{
name = topright;
position = "{1454, 1430}";
}
);
components = (
{
name = H;
transform = "{1, 0, 0, 1, 44, 0}";
}
);
};
layerId = "09CD4194-2486-478D-AB32-B0AA8D4EDA22";
paths = (
{
closed = 1;
nodes = (
"1194 -26 OFFCURVE",
"1487 307 OFFCURVE",
"1487 715 CURVE SMOOTH",
"1487 1124 OFFCURVE",
"1193 1460 OFFCURVE",
"784 1460 CURVE SMOOTH",
"376 1460 OFFCURVE",
"81 1125 OFFCURVE",
"81 715 CURVE SMOOTH",
"81 307 OFFCURVE",
"374 -26 OFFCURVE",
"784 -26 CURVE SMOOTH"
);
},
{
closed = 1;
nodes = (
"451 -12 OFFCURVE",
"173 314 OFFCURVE",
"173 718 CURVE SMOOTH",
"173 1127 OFFCURVE",
"459 1446 OFFCURVE",
"784 1446 CURVE SMOOTH",
"1109 1446 OFFCURVE",
"1395 1127 OFFCURVE",
"1395 718 CURVE SMOOTH",
"1395 314 OFFCURVE",
"1117 -12 OFFCURVE",
"784 -12 CURVE SMOOTH"
);
}
);
width = 1568;
},
{
anchors = (
{
name = bottom;
position = "{891, 0}";
},
{
name = center;
position = "{891, 715}";
},
{
name = ogonek;
position = "{1082, 0}";
},
{
name = top;
position = "{891, 1430}";
},
{
name = topleft;
position = "{64, 1430}";
},
{
name = topright;
position = "{1718, 1430}";
}
);
background = {
anchors = (
{
name = bottom;
position = "{891, 0}";
},
{
name = center;
position = "{891, 715}";
},
{
name = ogonek;
position = "{1569, 10}";
},
{
name = top;
position = "{891, 1430}";
},
{
name = topleft;
position = "{64, 1430}";
},
{
name = topright;
position = "{1718, 1430}";
}
);
paths = (
{
closed = 1;
nodes = (
"1342 -44 OFFCURVE",
"1684 281 OFFCURVE",
"1684 707 CURVE SMOOTH",
"1684 1134 OFFCURVE",
"1338 1466 OFFCURVE",
"892 1466 CURVE SMOOTH",
"447 1466 OFFCURVE",
"98 1133 OFFCURVE",
"98 707 CURVE SMOOTH",
"98 281 OFFCURVE",
"442 -44 OFFCURVE",
"892 -44 CURVE SMOOTH"
);
},
{
closed = 1;
nodes = (
"650 146 OFFCURVE",
"491 368 OFFCURVE",
"491 706 CURVE SMOOTH",
"491 1047 OFFCURVE",
"652 1277 OFFCURVE",
"892 1277 CURVE SMOOTH",
"1131 1277 OFFCURVE",
"1292 1047 OFFCURVE",
"1292 706 CURVE SMOOTH",
"1292 367 OFFCURVE",
"1134 146 OFFCURVE",
"892 146 CURVE SMOOTH"
);
}
);
};
layerId = "338DAB22-2F62-42B0-AF6A-AC80FC784DAE";
paths = (
{
closed = 1;
nodes = (
"1342 -44 OFFCURVE",
"1674 281 OFFCURVE",
"1674 707 CURVE SMOOTH",
"1674 1134 OFFCURVE",
"1338 1466 OFFCURVE",
"892 1466 CURVE SMOOTH",
"447 1466 OFFCURVE",
"108 1133 OFFCURVE",
"108 707 CURVE SMOOTH",
"108 281 OFFCURVE",
"442 -44 OFFCURVE",
"892 -44 CURVE SMOOTH"
);
},
{
closed = 1;
nodes = (
"650 146 OFFCURVE",
"491 368 OFFCURVE",
"491 706 CURVE SMOOTH",
"491 1047 OFFCURVE",
"652 1277 OFFCURVE",
"892 1277 CURVE SMOOTH",
"1131 1277 OFFCURVE",
"1292 1047 OFFCURVE",
"1292 706 CURVE SMOOTH",
"1292 367 OFFCURVE",
"1134 146 OFFCURVE",
"892 146 CURVE SMOOTH"
);
}
);
width = 1782;
},
{
anchors = (
{
name = bottom;
position = "{780, -20}";
},
{
name = center;
position = "{780, 715}";
},
{
name = ogonek;
position = "{860, 0}";
},
{
name = top;
position = "{780, 1430}";
},
{
name = topleft;
position = "{-5, 1430}";
},
{
name = topright;
position = "{1565, 1430}";
}
);
background = {
anchors = (
{
name = bottom;
position = "{780, 0}";
},
{
name = center;
position = "{780, 715}";
},
{
name = ogonek;
position = "{1424, 10}";
},
{
name = top;
position = "{780, 1430}";
},
{
name = topleft;
position = "{-5, 1430}";
},
{
name = topright;
position = "{1565, 1430}";
}
);
paths = (
{
closed = 1;
nodes = (
"1178 -10 OFFCURVE",
"1446 283 OFFCURVE",
"1446 714 CURVE SMOOTH",
"1446 1146 OFFCURVE",
"1176 1443 OFFCURVE",
"780 1443 CURVE SMOOTH",
"385 1443 OFFCURVE",
"114 1145 OFFCURVE",
"114 714 CURVE SMOOTH",
"114 283 OFFCURVE",
"382 -10 OFFCURVE",
"780 -10 CURVE SMOOTH"
);
},
{
closed = 1;
nodes = (
"439 79 OFFCURVE",
"212 338 OFFCURVE",
"212 717 CURVE SMOOTH",
"212 1096 OFFCURVE",
"442 1358 OFFCURVE",
"780 1364 CURVE",
"1118 1358 OFFCURVE",
"1348 1096 OFFCURVE",
"1348 717 CURVE SMOOTH",
"1348 338 OFFCURVE",
"1121 79 OFFCURVE",
"780 69 CURVE"
);
}
);
};
layerId = "B71E0DD6-B640-4F5E-B48D-BF5E04BC2E71";
paths = (
{
closed = 1;
nodes = (
"1178 -10 OFFCURVE",
"1446 283 OFFCURVE",
"1446 714 CURVE SMOOTH",
"1446 1146 OFFCURVE",
"1176 1443 OFFCURVE",
"780 1443 CURVE SMOOTH",
"385 1443 OFFCURVE",
"114 1145 OFFCURVE",
"114 714 CURVE SMOOTH",
"114 283 OFFCURVE",
"382 -10 OFFCURVE",
"780 -10 CURVE SMOOTH"
);
},
{
closed = 1;
nodes = (
"439 79 OFFCURVE",
"212 338 OFFCURVE",
"212 717 CURVE SMOOTH",
"212 1096 OFFCURVE",
"442 1358 OFFCURVE",
"780 1364 CURVE",
"1118 1358 OFFCURVE",
"1348 1096 OFFCURVE",
"1348 717 CURVE SMOOTH",
"1348 338 OFFCURVE",
"1121 79 OFFCURVE",
"780 69 CURVE"
);
}
);
width = 1560;
},
{
anchors = (
{
name = bottom;
position = "{827, -11}";
},
{
name = center;
position = "{827, 715}";
},
{
name = ogonek;
position = "{955, 0}";
},
{
name = top;
position = "{827, 1430}";
},
{
name = topleft;
position = "{24, 1430}";
},
{
name = topright;
position = "{1630, 1430}";
}
);
layerId = "50B3BD20-6B7E-4A37-88B3-070541B8FD4C";
paths = (
{
closed = 1;
nodes = (
"1248 -25 OFFCURVE",
"1543 282 OFFCURVE",
"1543 711 CURVE SMOOTH",
"1543 1141 OFFCURVE",
"1245 1453 OFFCURVE",
"827 1453 CURVE SMOOTH",
"411 1453 OFFCURVE",
"111 1140 OFFCURVE",
"111 711 CURVE SMOOTH",
"111 282 OFFCURVE",
"407 -25 OFFCURVE",
"827 -25 CURVE SMOOTH"
);
},
{
closed = 1;
nodes = (
"529 108 OFFCURVE",
"331 351 OFFCURVE",
"331 712 CURVE SMOOTH",
"331 1075 OFFCURVE",
"532 1323 OFFCURVE",
"827 1327 CURVE SMOOTH",
"1123 1323 OFFCURVE",
"1323 1075 OFFCURVE",
"1323 712 CURVE SMOOTH",
"1323 350 OFFCURVE",
"1126 108 OFFCURVE",
"827 102 CURVE SMOOTH"
);
}
);
width = 1654;
}
);
leftKerningGroup = O;
note = O;
rightKerningGroup = O;
unicode = 004F;
},
{
color = 8;
glyphname = Odieresis;
lastChange = "2019-12-28 20:28:17 +0000";
layers = (
{
background = {
paths = (
{
closed = 1;
nodes = (
"558 1362 OFFCURVE",
"406 1292 OFFCURVE",
"280 1168 CURVE SMOOTH",
"148 1042 OFFCURVE",
"74 864 OFFCURVE",
"74 682 CURVE SMOOTH",
"74 522 OFFCURVE",
"118 378 OFFCURVE",
"202 256 CURVE SMOOTH",
"320 88 OFFCURVE",
"518 -24 OFFCURVE",
"700 -24 CURVE SMOOTH",
"846 -24 OFFCURVE",
"1006 50 OFFCURVE",
"1124 172 CURVE SMOOTH",
"1252 304 OFFCURVE",
"1320 476 OFFCURVE",
"1320 664 CURVE SMOOTH",
"1320 824 OFFCURVE",
"1268 984 OFFCURVE",
"1176 1104 CURVE SMOOTH",
"1056 1258 OFFCURVE",
"866 1362 OFFCURVE",
"698 1362 CURVE SMOOTH"
);
},
{
closed = 1;
nodes = (
"956 1332 OFFCURVE",
"1098 1094 OFFCURVE",
"1098 672 CURVE SMOOTH",
"1098 226 OFFCURVE",
"966 6 OFFCURVE",
"696 6 CURVE SMOOTH",
"430 6 OFFCURVE",
"296 228 OFFCURVE",
"296 670 CURVE SMOOTH",
"296 1104 OFFCURVE",
"436 1332 OFFCURVE",
"704 1332 CURVE SMOOTH"
);
},
{
closed = 1;
nodes = (
"834 1698 OFFCURVE",
"790 1656 OFFCURVE",
"790 1602 CURVE SMOOTH",
"790 1550 OFFCURVE",
"834 1506 OFFCURVE",
"886 1506 CURVE SMOOTH",
"938 1506 OFFCURVE",
"982 1550 OFFCURVE",
"982 1602 CURVE SMOOTH",
"982 1654 OFFCURVE",
"938 1698 OFFCURVE",
"888 1698 CURVE SMOOTH"
);
},
{
closed = 1;
nodes = (
"458 1698 OFFCURVE",
"414 1656 OFFCURVE",
"414 1602 CURVE SMOOTH",
"414 1550 OFFCURVE",
"458 1506 OFFCURVE",
"510 1506 CURVE SMOOTH",
"562 1506 OFFCURVE",
"606 1550 OFFCURVE",
"606 1602 CURVE SMOOTH",
"606 1654 OFFCURVE",
"562 1698 OFFCURVE",
"512 1698 CURVE SMOOTH"
);
}
);
};
components = (
{
name = O;
},
{
name = dieresiscomb.case;
transform = "{1, 0, 0, 1, 500, 550}";
}
);
layerId = "EA94BB3F-1054-4F03-AAB6-69C3B81B3CC3";
width = 1578;
},
{
components = (
{
name = O;
transform = "{1, 0, 0, 1.007, 0, 0}";
},
{
name = dieresiscomb.case;
transform = "{1, 0, 0, 1, 568, 510}";
}
);
layerId = "1A84AFAC-8532-492C-A52A-D2ACD869B7F8";
width = 1492;
},
{
components = (
{
name = O;
},
{
name = dieresiscomb.case;
transform = "{1, 0, 0, 1, 445, 600}";
}
);
layerId = "16E03120-9D89-4B3A-B1E3-633A6E865927";
width = 1688;
},
{
components = (
{
name = O;
},
{
name = dieresiscomb.case;
transform = "{1, 0, 0, 1, 433, 600}";
}
);
layerId = "5EAC5215-9D4A-4BA0-8B26-A551FA1A966A";
width = 1652;
},
{
background = {
paths = (
{
closed = 1;
nodes = (
"558 1362 OFFCURVE",
"406 1292 OFFCURVE",
"280 1168 CURVE SMOOTH",
"148 1042 OFFCURVE",
"74 864 OFFCURVE",
"74 682 CURVE SMOOTH",
"74 522 OFFCURVE",
"118 378 OFFCURVE",
"202 256 CURVE SMOOTH",
"320 88 OFFCURVE",
"518 -24 OFFCURVE",
"700 -24 CURVE SMOOTH",
"846 -24 OFFCURVE",
"1006 50 OFFCURVE",
"1124 172 CURVE SMOOTH",
"1252 304 OFFCURVE",
"1320 476 OFFCURVE",
"1320 664 CURVE SMOOTH",
"1320 824 OFFCURVE",
"1268 984 OFFCURVE",
"1176 1104 CURVE SMOOTH",
"1056 1258 OFFCURVE",
"866 1362 OFFCURVE",
"698 1362 CURVE SMOOTH"
);
},
{
closed = 1;
nodes = (
"956 1332 OFFCURVE",
"1098 1094 OFFCURVE",
"1098 672 CURVE SMOOTH",
"1098 226 OFFCURVE",
"966 6 OFFCURVE",
"696 6 CURVE SMOOTH",
"430 6 OFFCURVE",
"296 228 OFFCURVE",
"296 670 CURVE SMOOTH",
"296 1104 OFFCURVE",
"436 1332 OFFCURVE",
"704 1332 CURVE SMOOTH"
);
},
{
closed = 1;
nodes = (
"834 1698 OFFCURVE",
"790 1656 OFFCURVE",
"790 1602 CURVE SMOOTH",
"790 1550 OFFCURVE",
"834 1506 OFFCURVE",
"886 1506 CURVE SMOOTH",
"938 1506 OFFCURVE",
"982 1550 OFFCURVE",
"982 1602 CURVE SMOOTH",
"982 1654 OFFCURVE",
"938 1698 OFFCURVE",
"888 1698 CURVE SMOOTH"
);
},
{
closed = 1;
nodes = (
"458 1698 OFFCURVE",
"414 1656 OFFCURVE",
"414 1602 CURVE SMOOTH",
"414 1550 OFFCURVE",
"458 1506 OFFCURVE",
"510 1506 CURVE SMOOTH",
"562 1506 OFFCURVE",
"606 1550 OFFCURVE",
"606 1602 CURVE SMOOTH",
"606 1654 OFFCURVE",
"562 1698 OFFCURVE",
"512 1698 CURVE SMOOTH"
);
}
);
};
components = (
{
name = O;
},
{
name = dieresiscomb.case;
transform = "{1, 0, 0, 1, 493, 500}";
}
);
layerId = "B4536172-55B8-4884-A498-BDE07D5884DA";
width = 1611;
},
{
components = (
{
name = O;
},
{
name = dieresiscomb.case;
transform = "{1, 0, 0, 1, 559, 500}";
}
);
layerId = "09CD4194-2486-478D-AB32-B0AA8D4EDA22";
width = 1568;
},
{
background = {
components = (
{
name = O;
},
{
name = dieresiscomb;
transform = "{1, 0, 0, 1, 436, 510}";
}
);
};
components = (
{
name = O;
},
{
name = dieresiscomb.case;
transform = "{1, 0, 0, 1, 480, 520}";
}
);
layerId = "338DAB22-2F62-42B0-AF6A-AC80FC784DAE";
width = 1782;
},
{
background = {
components = (
{
name = O;
transform = "{1, 0, 0, 1.007, 0, 0}";
},
{
name = dieresiscomb;
transform = "{1, 0, 0, 1, 557, 451}";
}
);
};
components = (
{
name = O;
transform = "{1, 0, 0, 1.007, 0, 0}";
},
{
name = dieresiscomb.case;
transform = "{1, 0, 0, 1, 527, 550}";
}
);
layerId = "B71E0DD6-B640-4F5E-B48D-BF5E04BC2E71";
width = 1560;
},
{
components = (
{
name = O;
transform = "{1, 0, 0, 1.00399, 0, 0}";
},
{
name = dieresiscomb.case;
transform = "{1, 0, 0, 1, 506, 537}";
}
);
layerId = "50B3BD20-6B7E-4A37-88B3-070541B8FD4C";
width = 1654;
}
);
leftKerningGroup = O;
note = Odieresis;
rightKerningGroup = O;
unicode = 00D6;
},
